G75*
%MOIN*%
%OFA0B0*%
%FSLAX25Y25*%
%IPPOS*%
%LPD*%
%AMOC8*
5,1,8,0,0,1.08239X$1,22.5*
%
%ADD10C,0.03800*%
%ADD11C,0.01000*%
%ADD12C,0.00400*%
%ADD13C,0.00500*%
%ADD14C,0.00800*%
%ADD15C,0.01600*%
%ADD16C,0.00100*%
%ADD17C,0.00600*%
D10*
X0413274Y0621500D02*
X0413274Y0643118D01*
X0424083Y0632309D01*
X0409671Y0632309D01*
X0549671Y0628706D02*
X0549671Y0625103D01*
X0553274Y0621500D01*
X0560480Y0621500D01*
X0564083Y0625103D01*
X0556877Y0632309D02*
X0553274Y0632309D01*
X0549671Y0628706D01*
X0553274Y0632309D02*
X0549671Y0635912D01*
X0549671Y0639515D01*
X0553274Y0643118D01*
X0560480Y0643118D01*
X0564083Y0639515D01*
X0699671Y0639515D02*
X0703274Y0643118D01*
X0710480Y0643118D01*
X0714083Y0639515D01*
X0699671Y0639515D02*
X0699671Y0635912D01*
X0714083Y0621500D01*
X0699671Y0621500D01*
X0849671Y0621500D02*
X0864083Y0621500D01*
X0856877Y0621500D02*
X0856877Y0643118D01*
X0864083Y0635912D01*
X0267471Y0656500D02*
X0267471Y0678118D01*
X0260265Y0670912D01*
X0253059Y0678118D01*
X0253059Y0656500D01*
X0244083Y0656500D02*
X0229671Y0656500D01*
X0236877Y0656500D02*
X0236877Y0678118D01*
X0244083Y0670912D01*
X0167471Y0678118D02*
X0167471Y0656500D01*
X0153059Y0656500D02*
X0153059Y0678118D01*
X0160265Y0670912D01*
X0167471Y0678118D01*
X0144083Y0674515D02*
X0140480Y0678118D01*
X0133274Y0678118D01*
X0129671Y0674515D01*
X0129671Y0670912D01*
X0144083Y0656500D01*
X0129671Y0656500D01*
D11*
X0177595Y0685000D02*
X0177595Y0285000D01*
X0277595Y0285000D02*
X0277595Y0450000D01*
X0077595Y0450000D01*
X0077595Y0540000D02*
X0277595Y0540000D01*
X0277595Y0450000D01*
X0277595Y0540000D02*
X0277595Y0685000D01*
X0427595Y0685000D02*
X0427595Y0285000D01*
X0577595Y0285000D02*
X0577595Y0685000D01*
X0727595Y0685000D02*
X0727595Y0285000D01*
D12*
X0670415Y0311735D02*
X0668880Y0310200D01*
X0667346Y0311735D01*
X0667346Y0314804D01*
X0665811Y0314804D02*
X0663509Y0314804D01*
X0662742Y0314037D01*
X0662742Y0312502D01*
X0663509Y0311735D01*
X0665811Y0311735D01*
X0664276Y0311735D02*
X0662742Y0310200D01*
X0661207Y0310200D02*
X0658138Y0313269D01*
X0658138Y0314037D01*
X0658905Y0314804D01*
X0660440Y0314804D01*
X0661207Y0314037D01*
X0661207Y0310200D02*
X0658138Y0310200D01*
X0656603Y0310967D02*
X0653534Y0314037D01*
X0653534Y0310967D01*
X0654301Y0310200D01*
X0655836Y0310200D01*
X0656603Y0310967D01*
X0656603Y0314037D01*
X0655836Y0314804D01*
X0654301Y0314804D01*
X0653534Y0314037D01*
X0651999Y0314037D02*
X0651232Y0314804D01*
X0649697Y0314804D01*
X0648930Y0314037D01*
X0648930Y0313269D01*
X0651999Y0310200D01*
X0648930Y0310200D01*
X0665811Y0310200D02*
X0665811Y0314804D01*
X0670415Y0314804D02*
X0670415Y0311735D01*
X0661207Y0355200D02*
X0658138Y0355200D01*
X0659672Y0355200D02*
X0659672Y0359804D01*
X0661207Y0358269D01*
X0656603Y0359037D02*
X0655836Y0359804D01*
X0654301Y0359804D01*
X0653534Y0359037D01*
X0656603Y0355967D01*
X0655836Y0355200D01*
X0654301Y0355200D01*
X0653534Y0355967D01*
X0653534Y0359037D01*
X0651999Y0359804D02*
X0651999Y0355200D01*
X0651999Y0356735D02*
X0648930Y0359804D01*
X0651232Y0357502D02*
X0648930Y0355200D01*
X0656603Y0355967D02*
X0656603Y0359037D01*
X0655836Y0410200D02*
X0656603Y0410967D01*
X0653534Y0414037D01*
X0653534Y0410967D01*
X0654301Y0410200D01*
X0655836Y0410200D01*
X0656603Y0410967D02*
X0656603Y0414037D01*
X0655836Y0414804D01*
X0654301Y0414804D01*
X0653534Y0414037D01*
X0651999Y0414037D02*
X0651232Y0414804D01*
X0649697Y0414804D01*
X0648930Y0414037D01*
X0648930Y0413269D01*
X0649697Y0412502D01*
X0648930Y0411735D01*
X0648930Y0410967D01*
X0649697Y0410200D01*
X0651232Y0410200D01*
X0651999Y0410967D01*
X0650464Y0412502D02*
X0649697Y0412502D01*
X0658138Y0413269D02*
X0658138Y0414037D01*
X0658905Y0414804D01*
X0660440Y0414804D01*
X0661207Y0414037D01*
X0662742Y0414037D02*
X0663509Y0414804D01*
X0665811Y0414804D01*
X0665811Y0410200D01*
X0665811Y0411735D02*
X0663509Y0411735D01*
X0662742Y0412502D01*
X0662742Y0414037D01*
X0664276Y0411735D02*
X0662742Y0410200D01*
X0661207Y0410200D02*
X0658138Y0413269D01*
X0658138Y0410200D02*
X0661207Y0410200D01*
X0667346Y0411735D02*
X0667346Y0414804D01*
X0670415Y0414804D02*
X0670415Y0411735D01*
X0668880Y0410200D01*
X0667346Y0411735D01*
X0661207Y0455200D02*
X0658138Y0455200D01*
X0659672Y0455200D02*
X0659672Y0459804D01*
X0661207Y0458269D01*
X0656603Y0459037D02*
X0655836Y0459804D01*
X0654301Y0459804D01*
X0653534Y0459037D01*
X0656603Y0455967D01*
X0655836Y0455200D01*
X0654301Y0455200D01*
X0653534Y0455967D01*
X0653534Y0459037D01*
X0651999Y0459804D02*
X0651999Y0455200D01*
X0651999Y0456735D02*
X0648930Y0459804D01*
X0651232Y0457502D02*
X0648930Y0455200D01*
X0656603Y0455967D02*
X0656603Y0459037D01*
X0520415Y0414804D02*
X0520415Y0411735D01*
X0518880Y0410200D01*
X0517346Y0411735D01*
X0517346Y0414804D01*
X0515811Y0414804D02*
X0513509Y0414804D01*
X0512742Y0414037D01*
X0512742Y0412502D01*
X0513509Y0411735D01*
X0515811Y0411735D01*
X0514276Y0411735D02*
X0512742Y0410200D01*
X0511207Y0410967D02*
X0510440Y0410200D01*
X0508905Y0410200D01*
X0508138Y0410967D01*
X0508138Y0411735D01*
X0508905Y0412502D01*
X0509672Y0412502D01*
X0508905Y0412502D02*
X0508138Y0413269D01*
X0508138Y0414037D01*
X0508905Y0414804D01*
X0510440Y0414804D01*
X0511207Y0414037D01*
X0506603Y0414037D02*
X0505836Y0414804D01*
X0504301Y0414804D01*
X0503534Y0414037D01*
X0506603Y0410967D01*
X0505836Y0410200D01*
X0504301Y0410200D01*
X0503534Y0410967D01*
X0503534Y0414037D01*
X0501999Y0414037D02*
X0501232Y0414804D01*
X0499697Y0414804D01*
X0498930Y0414037D01*
X0498930Y0413269D01*
X0499697Y0412502D01*
X0498930Y0411735D01*
X0498930Y0410967D01*
X0499697Y0410200D01*
X0501232Y0410200D01*
X0501999Y0410967D01*
X0500464Y0412502D02*
X0499697Y0412502D01*
X0506603Y0410967D02*
X0506603Y0414037D01*
X0515811Y0414804D02*
X0515811Y0410200D01*
X0511207Y0455200D02*
X0508138Y0455200D01*
X0509672Y0455200D02*
X0509672Y0459804D01*
X0511207Y0458269D01*
X0506603Y0459037D02*
X0505836Y0459804D01*
X0504301Y0459804D01*
X0503534Y0459037D01*
X0506603Y0455967D01*
X0505836Y0455200D01*
X0504301Y0455200D01*
X0503534Y0455967D01*
X0503534Y0459037D01*
X0501999Y0459804D02*
X0501999Y0455200D01*
X0501999Y0456735D02*
X0498930Y0459804D01*
X0501232Y0457502D02*
X0498930Y0455200D01*
X0506603Y0455967D02*
X0506603Y0459037D01*
X0505836Y0359804D02*
X0504301Y0359804D01*
X0503534Y0359037D01*
X0506603Y0355967D01*
X0505836Y0355200D01*
X0504301Y0355200D01*
X0503534Y0355967D01*
X0503534Y0359037D01*
X0501999Y0359804D02*
X0501999Y0355200D01*
X0501999Y0356735D02*
X0498930Y0359804D01*
X0501232Y0357502D02*
X0498930Y0355200D01*
X0506603Y0355967D02*
X0506603Y0359037D01*
X0505836Y0359804D01*
X0509672Y0359804D02*
X0509672Y0355200D01*
X0508138Y0355200D02*
X0511207Y0355200D01*
X0511207Y0358269D02*
X0509672Y0359804D01*
X0508905Y0314804D02*
X0508138Y0314037D01*
X0508138Y0313269D01*
X0508905Y0312502D01*
X0508138Y0311735D01*
X0508138Y0310967D01*
X0508905Y0310200D01*
X0510440Y0310200D01*
X0511207Y0310967D01*
X0512742Y0310200D02*
X0514276Y0311735D01*
X0513509Y0311735D02*
X0515811Y0311735D01*
X0517346Y0311735D02*
X0517346Y0314804D01*
X0515811Y0314804D02*
X0513509Y0314804D01*
X0512742Y0314037D01*
X0512742Y0312502D01*
X0513509Y0311735D01*
X0515811Y0310200D02*
X0515811Y0314804D01*
X0517346Y0311735D02*
X0518880Y0310200D01*
X0520415Y0311735D01*
X0520415Y0314804D01*
X0511207Y0314037D02*
X0510440Y0314804D01*
X0508905Y0314804D01*
X0508905Y0312502D02*
X0509672Y0312502D01*
X0506603Y0314037D02*
X0505836Y0314804D01*
X0504301Y0314804D01*
X0503534Y0314037D01*
X0506603Y0310967D01*
X0505836Y0310200D01*
X0504301Y0310200D01*
X0503534Y0310967D01*
X0503534Y0314037D01*
X0501999Y0314037D02*
X0501232Y0314804D01*
X0499697Y0314804D01*
X0498930Y0314037D01*
X0498930Y0313269D01*
X0501999Y0310200D01*
X0498930Y0310200D01*
X0506603Y0310967D02*
X0506603Y0314037D01*
X0370415Y0314804D02*
X0370415Y0311735D01*
X0368880Y0310200D01*
X0367346Y0311735D01*
X0367346Y0314804D01*
X0365811Y0314804D02*
X0363509Y0314804D01*
X0362742Y0314037D01*
X0362742Y0312502D01*
X0363509Y0311735D01*
X0365811Y0311735D01*
X0364276Y0311735D02*
X0362742Y0310200D01*
X0361207Y0312502D02*
X0358138Y0312502D01*
X0356603Y0314037D02*
X0355836Y0314804D01*
X0354301Y0314804D01*
X0353534Y0314037D01*
X0356603Y0310967D01*
X0355836Y0310200D01*
X0354301Y0310200D01*
X0353534Y0310967D01*
X0353534Y0314037D01*
X0351999Y0314037D02*
X0351232Y0314804D01*
X0349697Y0314804D01*
X0348930Y0314037D01*
X0348930Y0313269D01*
X0351999Y0310200D01*
X0348930Y0310200D01*
X0356603Y0310967D02*
X0356603Y0314037D01*
X0358905Y0314804D02*
X0361207Y0312502D01*
X0358905Y0310200D02*
X0358905Y0314804D01*
X0365811Y0314804D02*
X0365811Y0310200D01*
X0361207Y0355200D02*
X0358138Y0355200D01*
X0359672Y0355200D02*
X0359672Y0359804D01*
X0361207Y0358269D01*
X0356603Y0359037D02*
X0356603Y0355967D01*
X0353534Y0359037D01*
X0353534Y0355967D01*
X0354301Y0355200D01*
X0355836Y0355200D01*
X0356603Y0355967D01*
X0356603Y0359037D02*
X0355836Y0359804D01*
X0354301Y0359804D01*
X0353534Y0359037D01*
X0351999Y0359804D02*
X0351999Y0355200D01*
X0351999Y0356735D02*
X0348930Y0359804D01*
X0351232Y0357502D02*
X0348930Y0355200D01*
X0349697Y0410200D02*
X0351232Y0410200D01*
X0351999Y0410967D01*
X0353534Y0410967D02*
X0354301Y0410200D01*
X0355836Y0410200D01*
X0356603Y0410967D01*
X0353534Y0414037D01*
X0353534Y0410967D01*
X0356603Y0410967D02*
X0356603Y0414037D01*
X0355836Y0414804D01*
X0354301Y0414804D01*
X0353534Y0414037D01*
X0351999Y0414037D02*
X0351232Y0414804D01*
X0349697Y0414804D01*
X0348930Y0414037D01*
X0348930Y0413269D01*
X0349697Y0412502D01*
X0348930Y0411735D01*
X0348930Y0410967D01*
X0349697Y0410200D01*
X0349697Y0412502D02*
X0350464Y0412502D01*
X0358138Y0412502D02*
X0361207Y0412502D01*
X0358905Y0414804D01*
X0358905Y0410200D01*
X0362742Y0410200D02*
X0364276Y0411735D01*
X0363509Y0411735D02*
X0365811Y0411735D01*
X0367346Y0411735D02*
X0367346Y0414804D01*
X0365811Y0414804D02*
X0363509Y0414804D01*
X0362742Y0414037D01*
X0362742Y0412502D01*
X0363509Y0411735D01*
X0365811Y0410200D02*
X0365811Y0414804D01*
X0367346Y0411735D02*
X0368880Y0410200D01*
X0370415Y0411735D01*
X0370415Y0414804D01*
X0361207Y0455200D02*
X0358138Y0455200D01*
X0359672Y0455200D02*
X0359672Y0459804D01*
X0361207Y0458269D01*
X0356603Y0459037D02*
X0355836Y0459804D01*
X0354301Y0459804D01*
X0353534Y0459037D01*
X0356603Y0455967D01*
X0355836Y0455200D01*
X0354301Y0455200D01*
X0353534Y0455967D01*
X0353534Y0459037D01*
X0351999Y0459804D02*
X0351999Y0455200D01*
X0351999Y0456735D02*
X0348930Y0459804D01*
X0351232Y0457502D02*
X0348930Y0455200D01*
X0356603Y0455967D02*
X0356603Y0459037D01*
X0798930Y0459804D02*
X0801999Y0456735D01*
X0801232Y0457502D02*
X0798930Y0455200D01*
X0801999Y0455200D02*
X0801999Y0459804D01*
X0803534Y0459037D02*
X0806603Y0455967D01*
X0805836Y0455200D01*
X0804301Y0455200D01*
X0803534Y0455967D01*
X0803534Y0459037D01*
X0804301Y0459804D01*
X0805836Y0459804D01*
X0806603Y0459037D01*
X0806603Y0455967D01*
X0808138Y0455200D02*
X0811207Y0455200D01*
X0809672Y0455200D02*
X0809672Y0459804D01*
X0811207Y0458269D01*
X0809672Y0414804D02*
X0809672Y0410200D01*
X0808138Y0410200D02*
X0811207Y0410200D01*
X0812742Y0410200D02*
X0814276Y0411735D01*
X0813509Y0411735D02*
X0815811Y0411735D01*
X0817346Y0411735D02*
X0817346Y0414804D01*
X0815811Y0414804D02*
X0813509Y0414804D01*
X0812742Y0414037D01*
X0812742Y0412502D01*
X0813509Y0411735D01*
X0811207Y0413269D02*
X0809672Y0414804D01*
X0806603Y0414037D02*
X0805836Y0414804D01*
X0804301Y0414804D01*
X0803534Y0414037D01*
X0806603Y0410967D01*
X0805836Y0410200D01*
X0804301Y0410200D01*
X0803534Y0410967D01*
X0803534Y0414037D01*
X0801999Y0414037D02*
X0801232Y0414804D01*
X0799697Y0414804D01*
X0798930Y0414037D01*
X0798930Y0413269D01*
X0799697Y0412502D01*
X0798930Y0411735D01*
X0798930Y0410967D01*
X0799697Y0410200D01*
X0801232Y0410200D01*
X0801999Y0410967D01*
X0800464Y0412502D02*
X0799697Y0412502D01*
X0806603Y0410967D02*
X0806603Y0414037D01*
X0815811Y0414804D02*
X0815811Y0410200D01*
X0817346Y0411735D02*
X0818880Y0410200D01*
X0820415Y0411735D01*
X0820415Y0414804D01*
X0809672Y0359804D02*
X0809672Y0355200D01*
X0808138Y0355200D02*
X0811207Y0355200D01*
X0811207Y0358269D02*
X0809672Y0359804D01*
X0806603Y0359037D02*
X0806603Y0355967D01*
X0803534Y0359037D01*
X0803534Y0355967D01*
X0804301Y0355200D01*
X0805836Y0355200D01*
X0806603Y0355967D01*
X0806603Y0359037D02*
X0805836Y0359804D01*
X0804301Y0359804D01*
X0803534Y0359037D01*
X0801999Y0359804D02*
X0801999Y0355200D01*
X0801999Y0356735D02*
X0798930Y0359804D01*
X0801232Y0357502D02*
X0798930Y0355200D01*
X0799697Y0314804D02*
X0801232Y0314804D01*
X0801999Y0314037D01*
X0803534Y0314037D02*
X0806603Y0310967D01*
X0805836Y0310200D01*
X0804301Y0310200D01*
X0803534Y0310967D01*
X0803534Y0314037D01*
X0804301Y0314804D01*
X0805836Y0314804D01*
X0806603Y0314037D01*
X0806603Y0310967D01*
X0808138Y0310200D02*
X0811207Y0310200D01*
X0812742Y0310200D02*
X0814276Y0311735D01*
X0813509Y0311735D02*
X0815811Y0311735D01*
X0817346Y0311735D02*
X0817346Y0314804D01*
X0815811Y0314804D02*
X0813509Y0314804D01*
X0812742Y0314037D01*
X0812742Y0312502D01*
X0813509Y0311735D01*
X0811207Y0313269D02*
X0809672Y0314804D01*
X0809672Y0310200D01*
X0815811Y0310200D02*
X0815811Y0314804D01*
X0817346Y0311735D02*
X0818880Y0310200D01*
X0820415Y0311735D01*
X0820415Y0314804D01*
X0801999Y0310200D02*
X0798930Y0313269D01*
X0798930Y0314037D01*
X0799697Y0314804D01*
X0798930Y0310200D02*
X0801999Y0310200D01*
D13*
X0824091Y0299567D02*
X0863461Y0299567D01*
X0863461Y0370433D01*
X0824091Y0370433D01*
X0824091Y0399567D02*
X0863461Y0399567D01*
X0863461Y0470433D01*
X0824091Y0470433D01*
X0835524Y0485000D02*
X0749666Y0485000D01*
X0749495Y0485002D01*
X0749324Y0485008D01*
X0749154Y0485019D01*
X0748984Y0485033D01*
X0748814Y0485052D01*
X0748644Y0485074D01*
X0748476Y0485101D01*
X0748307Y0485132D01*
X0748140Y0485167D01*
X0747974Y0485205D01*
X0747808Y0485248D01*
X0747644Y0485295D01*
X0747481Y0485346D01*
X0747319Y0485401D01*
X0747159Y0485460D01*
X0747000Y0485522D01*
X0746842Y0485588D01*
X0746686Y0485658D01*
X0746532Y0485732D01*
X0746380Y0485810D01*
X0746230Y0485891D01*
X0746081Y0485976D01*
X0745935Y0486064D01*
X0745791Y0486156D01*
X0745649Y0486252D01*
X0745510Y0486350D01*
X0745373Y0486453D01*
X0745238Y0486558D01*
X0745106Y0486667D01*
X0744977Y0486778D01*
X0744851Y0486893D01*
X0744727Y0487011D01*
X0744606Y0487132D01*
X0744488Y0487256D01*
X0744373Y0487382D01*
X0744262Y0487511D01*
X0744153Y0487643D01*
X0744048Y0487778D01*
X0743945Y0487915D01*
X0743847Y0488054D01*
X0743751Y0488196D01*
X0743659Y0488340D01*
X0743571Y0488486D01*
X0743486Y0488635D01*
X0743405Y0488785D01*
X0743327Y0488937D01*
X0743253Y0489091D01*
X0743183Y0489247D01*
X0743117Y0489405D01*
X0743055Y0489564D01*
X0742996Y0489724D01*
X0742941Y0489886D01*
X0742890Y0490049D01*
X0742843Y0490213D01*
X0742800Y0490379D01*
X0742762Y0490545D01*
X0742727Y0490712D01*
X0742696Y0490881D01*
X0742669Y0491049D01*
X0742647Y0491219D01*
X0742628Y0491389D01*
X0742614Y0491559D01*
X0742603Y0491729D01*
X0742597Y0491900D01*
X0742595Y0492071D01*
X0742595Y0662929D01*
X0742597Y0663100D01*
X0742603Y0663271D01*
X0742614Y0663441D01*
X0742628Y0663611D01*
X0742647Y0663781D01*
X0742669Y0663951D01*
X0742696Y0664119D01*
X0742727Y0664288D01*
X0742762Y0664455D01*
X0742800Y0664621D01*
X0742843Y0664787D01*
X0742890Y0664951D01*
X0742941Y0665114D01*
X0742996Y0665276D01*
X0743055Y0665436D01*
X0743117Y0665595D01*
X0743183Y0665753D01*
X0743253Y0665909D01*
X0743327Y0666063D01*
X0743405Y0666215D01*
X0743486Y0666365D01*
X0743571Y0666514D01*
X0743659Y0666660D01*
X0743751Y0666804D01*
X0743847Y0666946D01*
X0743945Y0667085D01*
X0744048Y0667222D01*
X0744153Y0667357D01*
X0744262Y0667489D01*
X0744373Y0667618D01*
X0744488Y0667744D01*
X0744606Y0667868D01*
X0744727Y0667989D01*
X0744851Y0668107D01*
X0744977Y0668222D01*
X0745106Y0668333D01*
X0745238Y0668442D01*
X0745373Y0668547D01*
X0745510Y0668650D01*
X0745649Y0668748D01*
X0745791Y0668844D01*
X0745935Y0668936D01*
X0746081Y0669024D01*
X0746230Y0669109D01*
X0746380Y0669190D01*
X0746532Y0669268D01*
X0746686Y0669342D01*
X0746842Y0669412D01*
X0747000Y0669478D01*
X0747159Y0669540D01*
X0747319Y0669599D01*
X0747481Y0669654D01*
X0747644Y0669705D01*
X0747808Y0669752D01*
X0747974Y0669795D01*
X0748140Y0669833D01*
X0748307Y0669868D01*
X0748476Y0669899D01*
X0748644Y0669926D01*
X0748814Y0669948D01*
X0748984Y0669967D01*
X0749154Y0669981D01*
X0749324Y0669992D01*
X0749495Y0669998D01*
X0749666Y0670000D01*
X0835524Y0670000D01*
X0835695Y0669998D01*
X0835866Y0669992D01*
X0836036Y0669981D01*
X0836206Y0669967D01*
X0836376Y0669948D01*
X0836546Y0669926D01*
X0836714Y0669899D01*
X0836883Y0669868D01*
X0837050Y0669833D01*
X0837216Y0669795D01*
X0837382Y0669752D01*
X0837546Y0669705D01*
X0837709Y0669654D01*
X0837871Y0669599D01*
X0838031Y0669540D01*
X0838190Y0669478D01*
X0838348Y0669412D01*
X0838504Y0669342D01*
X0838658Y0669268D01*
X0838810Y0669190D01*
X0838960Y0669109D01*
X0839109Y0669024D01*
X0839255Y0668936D01*
X0839399Y0668844D01*
X0839541Y0668748D01*
X0839680Y0668650D01*
X0839817Y0668547D01*
X0839952Y0668442D01*
X0840084Y0668333D01*
X0840213Y0668222D01*
X0840339Y0668107D01*
X0840463Y0667989D01*
X0840584Y0667868D01*
X0840702Y0667744D01*
X0840817Y0667618D01*
X0840928Y0667489D01*
X0841037Y0667357D01*
X0841142Y0667222D01*
X0841245Y0667085D01*
X0841343Y0666946D01*
X0841439Y0666804D01*
X0841531Y0666660D01*
X0841619Y0666514D01*
X0841704Y0666365D01*
X0841785Y0666215D01*
X0841863Y0666063D01*
X0841937Y0665909D01*
X0842007Y0665753D01*
X0842073Y0665595D01*
X0842135Y0665436D01*
X0842194Y0665276D01*
X0842249Y0665114D01*
X0842300Y0664951D01*
X0842347Y0664787D01*
X0842390Y0664621D01*
X0842428Y0664455D01*
X0842463Y0664288D01*
X0842494Y0664119D01*
X0842521Y0663951D01*
X0842543Y0663781D01*
X0842562Y0663611D01*
X0842576Y0663441D01*
X0842587Y0663271D01*
X0842593Y0663100D01*
X0842595Y0662929D01*
X0842595Y0492071D01*
X0842593Y0491900D01*
X0842587Y0491729D01*
X0842576Y0491559D01*
X0842562Y0491389D01*
X0842543Y0491219D01*
X0842521Y0491049D01*
X0842494Y0490881D01*
X0842463Y0490712D01*
X0842428Y0490545D01*
X0842390Y0490379D01*
X0842347Y0490213D01*
X0842300Y0490049D01*
X0842249Y0489886D01*
X0842194Y0489724D01*
X0842135Y0489564D01*
X0842073Y0489405D01*
X0842007Y0489247D01*
X0841937Y0489091D01*
X0841863Y0488937D01*
X0841785Y0488785D01*
X0841704Y0488635D01*
X0841619Y0488486D01*
X0841531Y0488340D01*
X0841439Y0488196D01*
X0841343Y0488054D01*
X0841245Y0487915D01*
X0841142Y0487778D01*
X0841037Y0487643D01*
X0840928Y0487511D01*
X0840817Y0487382D01*
X0840702Y0487256D01*
X0840584Y0487132D01*
X0840463Y0487011D01*
X0840339Y0486893D01*
X0840213Y0486778D01*
X0840084Y0486667D01*
X0839952Y0486558D01*
X0839817Y0486453D01*
X0839680Y0486350D01*
X0839541Y0486252D01*
X0839399Y0486156D01*
X0839255Y0486064D01*
X0839109Y0485976D01*
X0838960Y0485891D01*
X0838810Y0485810D01*
X0838658Y0485732D01*
X0838504Y0485658D01*
X0838348Y0485588D01*
X0838190Y0485522D01*
X0838031Y0485460D01*
X0837871Y0485401D01*
X0837709Y0485346D01*
X0837546Y0485295D01*
X0837382Y0485248D01*
X0837216Y0485205D01*
X0837050Y0485167D01*
X0836883Y0485132D01*
X0836714Y0485101D01*
X0836546Y0485074D01*
X0836376Y0485052D01*
X0836206Y0485033D01*
X0836036Y0485019D01*
X0835866Y0485008D01*
X0835695Y0485002D01*
X0835524Y0485000D01*
X0755095Y0435000D02*
X0755106Y0435920D01*
X0755140Y0436840D01*
X0755197Y0437759D01*
X0755276Y0438676D01*
X0755377Y0439590D01*
X0755501Y0440502D01*
X0755647Y0441411D01*
X0755816Y0442316D01*
X0756006Y0443216D01*
X0756219Y0444112D01*
X0756453Y0445002D01*
X0756710Y0445886D01*
X0756988Y0446763D01*
X0757287Y0447633D01*
X0757608Y0448496D01*
X0757950Y0449351D01*
X0758312Y0450197D01*
X0758695Y0451033D01*
X0759099Y0451860D01*
X0759523Y0452677D01*
X0759967Y0453484D01*
X0760430Y0454279D01*
X0760913Y0455062D01*
X0761415Y0455834D01*
X0761936Y0456593D01*
X0762475Y0457339D01*
X0763032Y0458071D01*
X0763607Y0458790D01*
X0764200Y0459494D01*
X0764809Y0460183D01*
X0765436Y0460858D01*
X0766078Y0461517D01*
X0766737Y0462159D01*
X0767412Y0462786D01*
X0768101Y0463395D01*
X0768805Y0463988D01*
X0769524Y0464563D01*
X0770256Y0465120D01*
X0771002Y0465659D01*
X0771761Y0466180D01*
X0772533Y0466682D01*
X0773316Y0467165D01*
X0774111Y0467628D01*
X0774918Y0468072D01*
X0775735Y0468496D01*
X0776562Y0468900D01*
X0777398Y0469283D01*
X0778244Y0469645D01*
X0779099Y0469987D01*
X0779962Y0470308D01*
X0780832Y0470607D01*
X0781709Y0470885D01*
X0782593Y0471142D01*
X0783483Y0471376D01*
X0784379Y0471589D01*
X0785279Y0471779D01*
X0786184Y0471948D01*
X0787093Y0472094D01*
X0788005Y0472218D01*
X0788919Y0472319D01*
X0789836Y0472398D01*
X0790755Y0472455D01*
X0791675Y0472489D01*
X0792595Y0472500D01*
X0793515Y0472489D01*
X0794435Y0472455D01*
X0795354Y0472398D01*
X0796271Y0472319D01*
X0797185Y0472218D01*
X0798097Y0472094D01*
X0799006Y0471948D01*
X0799911Y0471779D01*
X0800811Y0471589D01*
X0801707Y0471376D01*
X0802597Y0471142D01*
X0803481Y0470885D01*
X0804358Y0470607D01*
X0805228Y0470308D01*
X0806091Y0469987D01*
X0806946Y0469645D01*
X0807792Y0469283D01*
X0808628Y0468900D01*
X0809455Y0468496D01*
X0810272Y0468072D01*
X0811079Y0467628D01*
X0811874Y0467165D01*
X0812657Y0466682D01*
X0813429Y0466180D01*
X0814188Y0465659D01*
X0814934Y0465120D01*
X0815666Y0464563D01*
X0816385Y0463988D01*
X0817089Y0463395D01*
X0817778Y0462786D01*
X0818453Y0462159D01*
X0819112Y0461517D01*
X0819754Y0460858D01*
X0820381Y0460183D01*
X0820990Y0459494D01*
X0821583Y0458790D01*
X0822158Y0458071D01*
X0822715Y0457339D01*
X0823254Y0456593D01*
X0823775Y0455834D01*
X0824277Y0455062D01*
X0824760Y0454279D01*
X0825223Y0453484D01*
X0825667Y0452677D01*
X0826091Y0451860D01*
X0826495Y0451033D01*
X0826878Y0450197D01*
X0827240Y0449351D01*
X0827582Y0448496D01*
X0827903Y0447633D01*
X0828202Y0446763D01*
X0828480Y0445886D01*
X0828737Y0445002D01*
X0828971Y0444112D01*
X0829184Y0443216D01*
X0829374Y0442316D01*
X0829543Y0441411D01*
X0829689Y0440502D01*
X0829813Y0439590D01*
X0829914Y0438676D01*
X0829993Y0437759D01*
X0830050Y0436840D01*
X0830084Y0435920D01*
X0830095Y0435000D01*
X0830084Y0434080D01*
X0830050Y0433160D01*
X0829993Y0432241D01*
X0829914Y0431324D01*
X0829813Y0430410D01*
X0829689Y0429498D01*
X0829543Y0428589D01*
X0829374Y0427684D01*
X0829184Y0426784D01*
X0828971Y0425888D01*
X0828737Y0424998D01*
X0828480Y0424114D01*
X0828202Y0423237D01*
X0827903Y0422367D01*
X0827582Y0421504D01*
X0827240Y0420649D01*
X0826878Y0419803D01*
X0826495Y0418967D01*
X0826091Y0418140D01*
X0825667Y0417323D01*
X0825223Y0416516D01*
X0824760Y0415721D01*
X0824277Y0414938D01*
X0823775Y0414166D01*
X0823254Y0413407D01*
X0822715Y0412661D01*
X0822158Y0411929D01*
X0821583Y0411210D01*
X0820990Y0410506D01*
X0820381Y0409817D01*
X0819754Y0409142D01*
X0819112Y0408483D01*
X0818453Y0407841D01*
X0817778Y0407214D01*
X0817089Y0406605D01*
X0816385Y0406012D01*
X0815666Y0405437D01*
X0814934Y0404880D01*
X0814188Y0404341D01*
X0813429Y0403820D01*
X0812657Y0403318D01*
X0811874Y0402835D01*
X0811079Y0402372D01*
X0810272Y0401928D01*
X0809455Y0401504D01*
X0808628Y0401100D01*
X0807792Y0400717D01*
X0806946Y0400355D01*
X0806091Y0400013D01*
X0805228Y0399692D01*
X0804358Y0399393D01*
X0803481Y0399115D01*
X0802597Y0398858D01*
X0801707Y0398624D01*
X0800811Y0398411D01*
X0799911Y0398221D01*
X0799006Y0398052D01*
X0798097Y0397906D01*
X0797185Y0397782D01*
X0796271Y0397681D01*
X0795354Y0397602D01*
X0794435Y0397545D01*
X0793515Y0397511D01*
X0792595Y0397500D01*
X0791675Y0397511D01*
X0790755Y0397545D01*
X0789836Y0397602D01*
X0788919Y0397681D01*
X0788005Y0397782D01*
X0787093Y0397906D01*
X0786184Y0398052D01*
X0785279Y0398221D01*
X0784379Y0398411D01*
X0783483Y0398624D01*
X0782593Y0398858D01*
X0781709Y0399115D01*
X0780832Y0399393D01*
X0779962Y0399692D01*
X0779099Y0400013D01*
X0778244Y0400355D01*
X0777398Y0400717D01*
X0776562Y0401100D01*
X0775735Y0401504D01*
X0774918Y0401928D01*
X0774111Y0402372D01*
X0773316Y0402835D01*
X0772533Y0403318D01*
X0771761Y0403820D01*
X0771002Y0404341D01*
X0770256Y0404880D01*
X0769524Y0405437D01*
X0768805Y0406012D01*
X0768101Y0406605D01*
X0767412Y0407214D01*
X0766737Y0407841D01*
X0766078Y0408483D01*
X0765436Y0409142D01*
X0764809Y0409817D01*
X0764200Y0410506D01*
X0763607Y0411210D01*
X0763032Y0411929D01*
X0762475Y0412661D01*
X0761936Y0413407D01*
X0761415Y0414166D01*
X0760913Y0414938D01*
X0760430Y0415721D01*
X0759967Y0416516D01*
X0759523Y0417323D01*
X0759099Y0418140D01*
X0758695Y0418967D01*
X0758312Y0419803D01*
X0757950Y0420649D01*
X0757608Y0421504D01*
X0757287Y0422367D01*
X0756988Y0423237D01*
X0756710Y0424114D01*
X0756453Y0424998D01*
X0756219Y0425888D01*
X0756006Y0426784D01*
X0755816Y0427684D01*
X0755647Y0428589D01*
X0755501Y0429498D01*
X0755377Y0430410D01*
X0755276Y0431324D01*
X0755197Y0432241D01*
X0755140Y0433160D01*
X0755106Y0434080D01*
X0755095Y0435000D01*
X0745351Y0435000D02*
X0745365Y0436159D01*
X0745408Y0437318D01*
X0745479Y0438475D01*
X0745578Y0439631D01*
X0745706Y0440783D01*
X0745862Y0441932D01*
X0746047Y0443077D01*
X0746259Y0444217D01*
X0746499Y0445351D01*
X0746767Y0446479D01*
X0747062Y0447601D01*
X0747385Y0448714D01*
X0747735Y0449820D01*
X0748113Y0450916D01*
X0748517Y0452003D01*
X0748947Y0453079D01*
X0749404Y0454145D01*
X0749887Y0455199D01*
X0750396Y0456241D01*
X0750930Y0457271D01*
X0751489Y0458286D01*
X0752072Y0459288D01*
X0752681Y0460275D01*
X0753313Y0461247D01*
X0753969Y0462203D01*
X0754648Y0463143D01*
X0755350Y0464066D01*
X0756075Y0464971D01*
X0756821Y0465858D01*
X0757590Y0466727D01*
X0758379Y0467577D01*
X0759188Y0468407D01*
X0760018Y0469216D01*
X0760868Y0470005D01*
X0761737Y0470774D01*
X0762624Y0471520D01*
X0763529Y0472245D01*
X0764452Y0472947D01*
X0765392Y0473626D01*
X0766348Y0474282D01*
X0767320Y0474914D01*
X0768307Y0475523D01*
X0769309Y0476106D01*
X0770324Y0476665D01*
X0771354Y0477199D01*
X0772396Y0477708D01*
X0773450Y0478191D01*
X0774516Y0478648D01*
X0775592Y0479078D01*
X0776679Y0479482D01*
X0777775Y0479860D01*
X0778881Y0480210D01*
X0779994Y0480533D01*
X0781116Y0480828D01*
X0782244Y0481096D01*
X0783378Y0481336D01*
X0784518Y0481548D01*
X0785663Y0481733D01*
X0786812Y0481889D01*
X0787964Y0482017D01*
X0789120Y0482116D01*
X0790277Y0482187D01*
X0791436Y0482230D01*
X0792595Y0482244D01*
X0793754Y0482230D01*
X0794913Y0482187D01*
X0796070Y0482116D01*
X0797226Y0482017D01*
X0798378Y0481889D01*
X0799527Y0481733D01*
X0800672Y0481548D01*
X0801812Y0481336D01*
X0802946Y0481096D01*
X0804074Y0480828D01*
X0805196Y0480533D01*
X0806309Y0480210D01*
X0807415Y0479860D01*
X0808511Y0479482D01*
X0809598Y0479078D01*
X0810674Y0478648D01*
X0811740Y0478191D01*
X0812794Y0477708D01*
X0813836Y0477199D01*
X0814866Y0476665D01*
X0815881Y0476106D01*
X0816883Y0475523D01*
X0817870Y0474914D01*
X0818842Y0474282D01*
X0819798Y0473626D01*
X0820738Y0472947D01*
X0821661Y0472245D01*
X0822566Y0471520D01*
X0823453Y0470774D01*
X0824322Y0470005D01*
X0825172Y0469216D01*
X0826002Y0468407D01*
X0826811Y0467577D01*
X0827600Y0466727D01*
X0828369Y0465858D01*
X0829115Y0464971D01*
X0829840Y0464066D01*
X0830542Y0463143D01*
X0831221Y0462203D01*
X0831877Y0461247D01*
X0832509Y0460275D01*
X0833118Y0459288D01*
X0833701Y0458286D01*
X0834260Y0457271D01*
X0834794Y0456241D01*
X0835303Y0455199D01*
X0835786Y0454145D01*
X0836243Y0453079D01*
X0836673Y0452003D01*
X0837077Y0450916D01*
X0837455Y0449820D01*
X0837805Y0448714D01*
X0838128Y0447601D01*
X0838423Y0446479D01*
X0838691Y0445351D01*
X0838931Y0444217D01*
X0839143Y0443077D01*
X0839328Y0441932D01*
X0839484Y0440783D01*
X0839612Y0439631D01*
X0839711Y0438475D01*
X0839782Y0437318D01*
X0839825Y0436159D01*
X0839839Y0435000D01*
X0839825Y0433841D01*
X0839782Y0432682D01*
X0839711Y0431525D01*
X0839612Y0430369D01*
X0839484Y0429217D01*
X0839328Y0428068D01*
X0839143Y0426923D01*
X0838931Y0425783D01*
X0838691Y0424649D01*
X0838423Y0423521D01*
X0838128Y0422399D01*
X0837805Y0421286D01*
X0837455Y0420180D01*
X0837077Y0419084D01*
X0836673Y0417997D01*
X0836243Y0416921D01*
X0835786Y0415855D01*
X0835303Y0414801D01*
X0834794Y0413759D01*
X0834260Y0412729D01*
X0833701Y0411714D01*
X0833118Y0410712D01*
X0832509Y0409725D01*
X0831877Y0408753D01*
X0831221Y0407797D01*
X0830542Y0406857D01*
X0829840Y0405934D01*
X0829115Y0405029D01*
X0828369Y0404142D01*
X0827600Y0403273D01*
X0826811Y0402423D01*
X0826002Y0401593D01*
X0825172Y0400784D01*
X0824322Y0399995D01*
X0823453Y0399226D01*
X0822566Y0398480D01*
X0821661Y0397755D01*
X0820738Y0397053D01*
X0819798Y0396374D01*
X0818842Y0395718D01*
X0817870Y0395086D01*
X0816883Y0394477D01*
X0815881Y0393894D01*
X0814866Y0393335D01*
X0813836Y0392801D01*
X0812794Y0392292D01*
X0811740Y0391809D01*
X0810674Y0391352D01*
X0809598Y0390922D01*
X0808511Y0390518D01*
X0807415Y0390140D01*
X0806309Y0389790D01*
X0805196Y0389467D01*
X0804074Y0389172D01*
X0802946Y0388904D01*
X0801812Y0388664D01*
X0800672Y0388452D01*
X0799527Y0388267D01*
X0798378Y0388111D01*
X0797226Y0387983D01*
X0796070Y0387884D01*
X0794913Y0387813D01*
X0793754Y0387770D01*
X0792595Y0387756D01*
X0791436Y0387770D01*
X0790277Y0387813D01*
X0789120Y0387884D01*
X0787964Y0387983D01*
X0786812Y0388111D01*
X0785663Y0388267D01*
X0784518Y0388452D01*
X0783378Y0388664D01*
X0782244Y0388904D01*
X0781116Y0389172D01*
X0779994Y0389467D01*
X0778881Y0389790D01*
X0777775Y0390140D01*
X0776679Y0390518D01*
X0775592Y0390922D01*
X0774516Y0391352D01*
X0773450Y0391809D01*
X0772396Y0392292D01*
X0771354Y0392801D01*
X0770324Y0393335D01*
X0769309Y0393894D01*
X0768307Y0394477D01*
X0767320Y0395086D01*
X0766348Y0395718D01*
X0765392Y0396374D01*
X0764452Y0397053D01*
X0763529Y0397755D01*
X0762624Y0398480D01*
X0761737Y0399226D01*
X0760868Y0399995D01*
X0760018Y0400784D01*
X0759188Y0401593D01*
X0758379Y0402423D01*
X0757590Y0403273D01*
X0756821Y0404142D01*
X0756075Y0405029D01*
X0755350Y0405934D01*
X0754648Y0406857D01*
X0753969Y0407797D01*
X0753313Y0408753D01*
X0752681Y0409725D01*
X0752072Y0410712D01*
X0751489Y0411714D01*
X0750930Y0412729D01*
X0750396Y0413759D01*
X0749887Y0414801D01*
X0749404Y0415855D01*
X0748947Y0416921D01*
X0748517Y0417997D01*
X0748113Y0419084D01*
X0747735Y0420180D01*
X0747385Y0421286D01*
X0747062Y0422399D01*
X0746767Y0423521D01*
X0746499Y0424649D01*
X0746259Y0425783D01*
X0746047Y0426923D01*
X0745862Y0428068D01*
X0745706Y0429217D01*
X0745578Y0430369D01*
X0745479Y0431525D01*
X0745408Y0432682D01*
X0745365Y0433841D01*
X0745351Y0435000D01*
X0713461Y0399567D02*
X0713461Y0470433D01*
X0674091Y0470433D01*
X0685524Y0485000D02*
X0599666Y0485000D01*
X0599495Y0485002D01*
X0599324Y0485008D01*
X0599154Y0485019D01*
X0598984Y0485033D01*
X0598814Y0485052D01*
X0598644Y0485074D01*
X0598476Y0485101D01*
X0598307Y0485132D01*
X0598140Y0485167D01*
X0597974Y0485205D01*
X0597808Y0485248D01*
X0597644Y0485295D01*
X0597481Y0485346D01*
X0597319Y0485401D01*
X0597159Y0485460D01*
X0597000Y0485522D01*
X0596842Y0485588D01*
X0596686Y0485658D01*
X0596532Y0485732D01*
X0596380Y0485810D01*
X0596230Y0485891D01*
X0596081Y0485976D01*
X0595935Y0486064D01*
X0595791Y0486156D01*
X0595649Y0486252D01*
X0595510Y0486350D01*
X0595373Y0486453D01*
X0595238Y0486558D01*
X0595106Y0486667D01*
X0594977Y0486778D01*
X0594851Y0486893D01*
X0594727Y0487011D01*
X0594606Y0487132D01*
X0594488Y0487256D01*
X0594373Y0487382D01*
X0594262Y0487511D01*
X0594153Y0487643D01*
X0594048Y0487778D01*
X0593945Y0487915D01*
X0593847Y0488054D01*
X0593751Y0488196D01*
X0593659Y0488340D01*
X0593571Y0488486D01*
X0593486Y0488635D01*
X0593405Y0488785D01*
X0593327Y0488937D01*
X0593253Y0489091D01*
X0593183Y0489247D01*
X0593117Y0489405D01*
X0593055Y0489564D01*
X0592996Y0489724D01*
X0592941Y0489886D01*
X0592890Y0490049D01*
X0592843Y0490213D01*
X0592800Y0490379D01*
X0592762Y0490545D01*
X0592727Y0490712D01*
X0592696Y0490881D01*
X0592669Y0491049D01*
X0592647Y0491219D01*
X0592628Y0491389D01*
X0592614Y0491559D01*
X0592603Y0491729D01*
X0592597Y0491900D01*
X0592595Y0492071D01*
X0592595Y0662929D01*
X0592597Y0663100D01*
X0592603Y0663271D01*
X0592614Y0663441D01*
X0592628Y0663611D01*
X0592647Y0663781D01*
X0592669Y0663951D01*
X0592696Y0664119D01*
X0592727Y0664288D01*
X0592762Y0664455D01*
X0592800Y0664621D01*
X0592843Y0664787D01*
X0592890Y0664951D01*
X0592941Y0665114D01*
X0592996Y0665276D01*
X0593055Y0665436D01*
X0593117Y0665595D01*
X0593183Y0665753D01*
X0593253Y0665909D01*
X0593327Y0666063D01*
X0593405Y0666215D01*
X0593486Y0666365D01*
X0593571Y0666514D01*
X0593659Y0666660D01*
X0593751Y0666804D01*
X0593847Y0666946D01*
X0593945Y0667085D01*
X0594048Y0667222D01*
X0594153Y0667357D01*
X0594262Y0667489D01*
X0594373Y0667618D01*
X0594488Y0667744D01*
X0594606Y0667868D01*
X0594727Y0667989D01*
X0594851Y0668107D01*
X0594977Y0668222D01*
X0595106Y0668333D01*
X0595238Y0668442D01*
X0595373Y0668547D01*
X0595510Y0668650D01*
X0595649Y0668748D01*
X0595791Y0668844D01*
X0595935Y0668936D01*
X0596081Y0669024D01*
X0596230Y0669109D01*
X0596380Y0669190D01*
X0596532Y0669268D01*
X0596686Y0669342D01*
X0596842Y0669412D01*
X0597000Y0669478D01*
X0597159Y0669540D01*
X0597319Y0669599D01*
X0597481Y0669654D01*
X0597644Y0669705D01*
X0597808Y0669752D01*
X0597974Y0669795D01*
X0598140Y0669833D01*
X0598307Y0669868D01*
X0598476Y0669899D01*
X0598644Y0669926D01*
X0598814Y0669948D01*
X0598984Y0669967D01*
X0599154Y0669981D01*
X0599324Y0669992D01*
X0599495Y0669998D01*
X0599666Y0670000D01*
X0685524Y0670000D01*
X0685695Y0669998D01*
X0685866Y0669992D01*
X0686036Y0669981D01*
X0686206Y0669967D01*
X0686376Y0669948D01*
X0686546Y0669926D01*
X0686714Y0669899D01*
X0686883Y0669868D01*
X0687050Y0669833D01*
X0687216Y0669795D01*
X0687382Y0669752D01*
X0687546Y0669705D01*
X0687709Y0669654D01*
X0687871Y0669599D01*
X0688031Y0669540D01*
X0688190Y0669478D01*
X0688348Y0669412D01*
X0688504Y0669342D01*
X0688658Y0669268D01*
X0688810Y0669190D01*
X0688960Y0669109D01*
X0689109Y0669024D01*
X0689255Y0668936D01*
X0689399Y0668844D01*
X0689541Y0668748D01*
X0689680Y0668650D01*
X0689817Y0668547D01*
X0689952Y0668442D01*
X0690084Y0668333D01*
X0690213Y0668222D01*
X0690339Y0668107D01*
X0690463Y0667989D01*
X0690584Y0667868D01*
X0690702Y0667744D01*
X0690817Y0667618D01*
X0690928Y0667489D01*
X0691037Y0667357D01*
X0691142Y0667222D01*
X0691245Y0667085D01*
X0691343Y0666946D01*
X0691439Y0666804D01*
X0691531Y0666660D01*
X0691619Y0666514D01*
X0691704Y0666365D01*
X0691785Y0666215D01*
X0691863Y0666063D01*
X0691937Y0665909D01*
X0692007Y0665753D01*
X0692073Y0665595D01*
X0692135Y0665436D01*
X0692194Y0665276D01*
X0692249Y0665114D01*
X0692300Y0664951D01*
X0692347Y0664787D01*
X0692390Y0664621D01*
X0692428Y0664455D01*
X0692463Y0664288D01*
X0692494Y0664119D01*
X0692521Y0663951D01*
X0692543Y0663781D01*
X0692562Y0663611D01*
X0692576Y0663441D01*
X0692587Y0663271D01*
X0692593Y0663100D01*
X0692595Y0662929D01*
X0692595Y0492071D01*
X0692593Y0491900D01*
X0692587Y0491729D01*
X0692576Y0491559D01*
X0692562Y0491389D01*
X0692543Y0491219D01*
X0692521Y0491049D01*
X0692494Y0490881D01*
X0692463Y0490712D01*
X0692428Y0490545D01*
X0692390Y0490379D01*
X0692347Y0490213D01*
X0692300Y0490049D01*
X0692249Y0489886D01*
X0692194Y0489724D01*
X0692135Y0489564D01*
X0692073Y0489405D01*
X0692007Y0489247D01*
X0691937Y0489091D01*
X0691863Y0488937D01*
X0691785Y0488785D01*
X0691704Y0488635D01*
X0691619Y0488486D01*
X0691531Y0488340D01*
X0691439Y0488196D01*
X0691343Y0488054D01*
X0691245Y0487915D01*
X0691142Y0487778D01*
X0691037Y0487643D01*
X0690928Y0487511D01*
X0690817Y0487382D01*
X0690702Y0487256D01*
X0690584Y0487132D01*
X0690463Y0487011D01*
X0690339Y0486893D01*
X0690213Y0486778D01*
X0690084Y0486667D01*
X0689952Y0486558D01*
X0689817Y0486453D01*
X0689680Y0486350D01*
X0689541Y0486252D01*
X0689399Y0486156D01*
X0689255Y0486064D01*
X0689109Y0485976D01*
X0688960Y0485891D01*
X0688810Y0485810D01*
X0688658Y0485732D01*
X0688504Y0485658D01*
X0688348Y0485588D01*
X0688190Y0485522D01*
X0688031Y0485460D01*
X0687871Y0485401D01*
X0687709Y0485346D01*
X0687546Y0485295D01*
X0687382Y0485248D01*
X0687216Y0485205D01*
X0687050Y0485167D01*
X0686883Y0485132D01*
X0686714Y0485101D01*
X0686546Y0485074D01*
X0686376Y0485052D01*
X0686206Y0485033D01*
X0686036Y0485019D01*
X0685866Y0485008D01*
X0685695Y0485002D01*
X0685524Y0485000D01*
X0605095Y0435000D02*
X0605106Y0435920D01*
X0605140Y0436840D01*
X0605197Y0437759D01*
X0605276Y0438676D01*
X0605377Y0439590D01*
X0605501Y0440502D01*
X0605647Y0441411D01*
X0605816Y0442316D01*
X0606006Y0443216D01*
X0606219Y0444112D01*
X0606453Y0445002D01*
X0606710Y0445886D01*
X0606988Y0446763D01*
X0607287Y0447633D01*
X0607608Y0448496D01*
X0607950Y0449351D01*
X0608312Y0450197D01*
X0608695Y0451033D01*
X0609099Y0451860D01*
X0609523Y0452677D01*
X0609967Y0453484D01*
X0610430Y0454279D01*
X0610913Y0455062D01*
X0611415Y0455834D01*
X0611936Y0456593D01*
X0612475Y0457339D01*
X0613032Y0458071D01*
X0613607Y0458790D01*
X0614200Y0459494D01*
X0614809Y0460183D01*
X0615436Y0460858D01*
X0616078Y0461517D01*
X0616737Y0462159D01*
X0617412Y0462786D01*
X0618101Y0463395D01*
X0618805Y0463988D01*
X0619524Y0464563D01*
X0620256Y0465120D01*
X0621002Y0465659D01*
X0621761Y0466180D01*
X0622533Y0466682D01*
X0623316Y0467165D01*
X0624111Y0467628D01*
X0624918Y0468072D01*
X0625735Y0468496D01*
X0626562Y0468900D01*
X0627398Y0469283D01*
X0628244Y0469645D01*
X0629099Y0469987D01*
X0629962Y0470308D01*
X0630832Y0470607D01*
X0631709Y0470885D01*
X0632593Y0471142D01*
X0633483Y0471376D01*
X0634379Y0471589D01*
X0635279Y0471779D01*
X0636184Y0471948D01*
X0637093Y0472094D01*
X0638005Y0472218D01*
X0638919Y0472319D01*
X0639836Y0472398D01*
X0640755Y0472455D01*
X0641675Y0472489D01*
X0642595Y0472500D01*
X0643515Y0472489D01*
X0644435Y0472455D01*
X0645354Y0472398D01*
X0646271Y0472319D01*
X0647185Y0472218D01*
X0648097Y0472094D01*
X0649006Y0471948D01*
X0649911Y0471779D01*
X0650811Y0471589D01*
X0651707Y0471376D01*
X0652597Y0471142D01*
X0653481Y0470885D01*
X0654358Y0470607D01*
X0655228Y0470308D01*
X0656091Y0469987D01*
X0656946Y0469645D01*
X0657792Y0469283D01*
X0658628Y0468900D01*
X0659455Y0468496D01*
X0660272Y0468072D01*
X0661079Y0467628D01*
X0661874Y0467165D01*
X0662657Y0466682D01*
X0663429Y0466180D01*
X0664188Y0465659D01*
X0664934Y0465120D01*
X0665666Y0464563D01*
X0666385Y0463988D01*
X0667089Y0463395D01*
X0667778Y0462786D01*
X0668453Y0462159D01*
X0669112Y0461517D01*
X0669754Y0460858D01*
X0670381Y0460183D01*
X0670990Y0459494D01*
X0671583Y0458790D01*
X0672158Y0458071D01*
X0672715Y0457339D01*
X0673254Y0456593D01*
X0673775Y0455834D01*
X0674277Y0455062D01*
X0674760Y0454279D01*
X0675223Y0453484D01*
X0675667Y0452677D01*
X0676091Y0451860D01*
X0676495Y0451033D01*
X0676878Y0450197D01*
X0677240Y0449351D01*
X0677582Y0448496D01*
X0677903Y0447633D01*
X0678202Y0446763D01*
X0678480Y0445886D01*
X0678737Y0445002D01*
X0678971Y0444112D01*
X0679184Y0443216D01*
X0679374Y0442316D01*
X0679543Y0441411D01*
X0679689Y0440502D01*
X0679813Y0439590D01*
X0679914Y0438676D01*
X0679993Y0437759D01*
X0680050Y0436840D01*
X0680084Y0435920D01*
X0680095Y0435000D01*
X0680084Y0434080D01*
X0680050Y0433160D01*
X0679993Y0432241D01*
X0679914Y0431324D01*
X0679813Y0430410D01*
X0679689Y0429498D01*
X0679543Y0428589D01*
X0679374Y0427684D01*
X0679184Y0426784D01*
X0678971Y0425888D01*
X0678737Y0424998D01*
X0678480Y0424114D01*
X0678202Y0423237D01*
X0677903Y0422367D01*
X0677582Y0421504D01*
X0677240Y0420649D01*
X0676878Y0419803D01*
X0676495Y0418967D01*
X0676091Y0418140D01*
X0675667Y0417323D01*
X0675223Y0416516D01*
X0674760Y0415721D01*
X0674277Y0414938D01*
X0673775Y0414166D01*
X0673254Y0413407D01*
X0672715Y0412661D01*
X0672158Y0411929D01*
X0671583Y0411210D01*
X0670990Y0410506D01*
X0670381Y0409817D01*
X0669754Y0409142D01*
X0669112Y0408483D01*
X0668453Y0407841D01*
X0667778Y0407214D01*
X0667089Y0406605D01*
X0666385Y0406012D01*
X0665666Y0405437D01*
X0664934Y0404880D01*
X0664188Y0404341D01*
X0663429Y0403820D01*
X0662657Y0403318D01*
X0661874Y0402835D01*
X0661079Y0402372D01*
X0660272Y0401928D01*
X0659455Y0401504D01*
X0658628Y0401100D01*
X0657792Y0400717D01*
X0656946Y0400355D01*
X0656091Y0400013D01*
X0655228Y0399692D01*
X0654358Y0399393D01*
X0653481Y0399115D01*
X0652597Y0398858D01*
X0651707Y0398624D01*
X0650811Y0398411D01*
X0649911Y0398221D01*
X0649006Y0398052D01*
X0648097Y0397906D01*
X0647185Y0397782D01*
X0646271Y0397681D01*
X0645354Y0397602D01*
X0644435Y0397545D01*
X0643515Y0397511D01*
X0642595Y0397500D01*
X0641675Y0397511D01*
X0640755Y0397545D01*
X0639836Y0397602D01*
X0638919Y0397681D01*
X0638005Y0397782D01*
X0637093Y0397906D01*
X0636184Y0398052D01*
X0635279Y0398221D01*
X0634379Y0398411D01*
X0633483Y0398624D01*
X0632593Y0398858D01*
X0631709Y0399115D01*
X0630832Y0399393D01*
X0629962Y0399692D01*
X0629099Y0400013D01*
X0628244Y0400355D01*
X0627398Y0400717D01*
X0626562Y0401100D01*
X0625735Y0401504D01*
X0624918Y0401928D01*
X0624111Y0402372D01*
X0623316Y0402835D01*
X0622533Y0403318D01*
X0621761Y0403820D01*
X0621002Y0404341D01*
X0620256Y0404880D01*
X0619524Y0405437D01*
X0618805Y0406012D01*
X0618101Y0406605D01*
X0617412Y0407214D01*
X0616737Y0407841D01*
X0616078Y0408483D01*
X0615436Y0409142D01*
X0614809Y0409817D01*
X0614200Y0410506D01*
X0613607Y0411210D01*
X0613032Y0411929D01*
X0612475Y0412661D01*
X0611936Y0413407D01*
X0611415Y0414166D01*
X0610913Y0414938D01*
X0610430Y0415721D01*
X0609967Y0416516D01*
X0609523Y0417323D01*
X0609099Y0418140D01*
X0608695Y0418967D01*
X0608312Y0419803D01*
X0607950Y0420649D01*
X0607608Y0421504D01*
X0607287Y0422367D01*
X0606988Y0423237D01*
X0606710Y0424114D01*
X0606453Y0424998D01*
X0606219Y0425888D01*
X0606006Y0426784D01*
X0605816Y0427684D01*
X0605647Y0428589D01*
X0605501Y0429498D01*
X0605377Y0430410D01*
X0605276Y0431324D01*
X0605197Y0432241D01*
X0605140Y0433160D01*
X0605106Y0434080D01*
X0605095Y0435000D01*
X0595351Y0435000D02*
X0595365Y0436159D01*
X0595408Y0437318D01*
X0595479Y0438475D01*
X0595578Y0439631D01*
X0595706Y0440783D01*
X0595862Y0441932D01*
X0596047Y0443077D01*
X0596259Y0444217D01*
X0596499Y0445351D01*
X0596767Y0446479D01*
X0597062Y0447601D01*
X0597385Y0448714D01*
X0597735Y0449820D01*
X0598113Y0450916D01*
X0598517Y0452003D01*
X0598947Y0453079D01*
X0599404Y0454145D01*
X0599887Y0455199D01*
X0600396Y0456241D01*
X0600930Y0457271D01*
X0601489Y0458286D01*
X0602072Y0459288D01*
X0602681Y0460275D01*
X0603313Y0461247D01*
X0603969Y0462203D01*
X0604648Y0463143D01*
X0605350Y0464066D01*
X0606075Y0464971D01*
X0606821Y0465858D01*
X0607590Y0466727D01*
X0608379Y0467577D01*
X0609188Y0468407D01*
X0610018Y0469216D01*
X0610868Y0470005D01*
X0611737Y0470774D01*
X0612624Y0471520D01*
X0613529Y0472245D01*
X0614452Y0472947D01*
X0615392Y0473626D01*
X0616348Y0474282D01*
X0617320Y0474914D01*
X0618307Y0475523D01*
X0619309Y0476106D01*
X0620324Y0476665D01*
X0621354Y0477199D01*
X0622396Y0477708D01*
X0623450Y0478191D01*
X0624516Y0478648D01*
X0625592Y0479078D01*
X0626679Y0479482D01*
X0627775Y0479860D01*
X0628881Y0480210D01*
X0629994Y0480533D01*
X0631116Y0480828D01*
X0632244Y0481096D01*
X0633378Y0481336D01*
X0634518Y0481548D01*
X0635663Y0481733D01*
X0636812Y0481889D01*
X0637964Y0482017D01*
X0639120Y0482116D01*
X0640277Y0482187D01*
X0641436Y0482230D01*
X0642595Y0482244D01*
X0643754Y0482230D01*
X0644913Y0482187D01*
X0646070Y0482116D01*
X0647226Y0482017D01*
X0648378Y0481889D01*
X0649527Y0481733D01*
X0650672Y0481548D01*
X0651812Y0481336D01*
X0652946Y0481096D01*
X0654074Y0480828D01*
X0655196Y0480533D01*
X0656309Y0480210D01*
X0657415Y0479860D01*
X0658511Y0479482D01*
X0659598Y0479078D01*
X0660674Y0478648D01*
X0661740Y0478191D01*
X0662794Y0477708D01*
X0663836Y0477199D01*
X0664866Y0476665D01*
X0665881Y0476106D01*
X0666883Y0475523D01*
X0667870Y0474914D01*
X0668842Y0474282D01*
X0669798Y0473626D01*
X0670738Y0472947D01*
X0671661Y0472245D01*
X0672566Y0471520D01*
X0673453Y0470774D01*
X0674322Y0470005D01*
X0675172Y0469216D01*
X0676002Y0468407D01*
X0676811Y0467577D01*
X0677600Y0466727D01*
X0678369Y0465858D01*
X0679115Y0464971D01*
X0679840Y0464066D01*
X0680542Y0463143D01*
X0681221Y0462203D01*
X0681877Y0461247D01*
X0682509Y0460275D01*
X0683118Y0459288D01*
X0683701Y0458286D01*
X0684260Y0457271D01*
X0684794Y0456241D01*
X0685303Y0455199D01*
X0685786Y0454145D01*
X0686243Y0453079D01*
X0686673Y0452003D01*
X0687077Y0450916D01*
X0687455Y0449820D01*
X0687805Y0448714D01*
X0688128Y0447601D01*
X0688423Y0446479D01*
X0688691Y0445351D01*
X0688931Y0444217D01*
X0689143Y0443077D01*
X0689328Y0441932D01*
X0689484Y0440783D01*
X0689612Y0439631D01*
X0689711Y0438475D01*
X0689782Y0437318D01*
X0689825Y0436159D01*
X0689839Y0435000D01*
X0689825Y0433841D01*
X0689782Y0432682D01*
X0689711Y0431525D01*
X0689612Y0430369D01*
X0689484Y0429217D01*
X0689328Y0428068D01*
X0689143Y0426923D01*
X0688931Y0425783D01*
X0688691Y0424649D01*
X0688423Y0423521D01*
X0688128Y0422399D01*
X0687805Y0421286D01*
X0687455Y0420180D01*
X0687077Y0419084D01*
X0686673Y0417997D01*
X0686243Y0416921D01*
X0685786Y0415855D01*
X0685303Y0414801D01*
X0684794Y0413759D01*
X0684260Y0412729D01*
X0683701Y0411714D01*
X0683118Y0410712D01*
X0682509Y0409725D01*
X0681877Y0408753D01*
X0681221Y0407797D01*
X0680542Y0406857D01*
X0679840Y0405934D01*
X0679115Y0405029D01*
X0678369Y0404142D01*
X0677600Y0403273D01*
X0676811Y0402423D01*
X0676002Y0401593D01*
X0675172Y0400784D01*
X0674322Y0399995D01*
X0673453Y0399226D01*
X0672566Y0398480D01*
X0671661Y0397755D01*
X0670738Y0397053D01*
X0669798Y0396374D01*
X0668842Y0395718D01*
X0667870Y0395086D01*
X0666883Y0394477D01*
X0665881Y0393894D01*
X0664866Y0393335D01*
X0663836Y0392801D01*
X0662794Y0392292D01*
X0661740Y0391809D01*
X0660674Y0391352D01*
X0659598Y0390922D01*
X0658511Y0390518D01*
X0657415Y0390140D01*
X0656309Y0389790D01*
X0655196Y0389467D01*
X0654074Y0389172D01*
X0652946Y0388904D01*
X0651812Y0388664D01*
X0650672Y0388452D01*
X0649527Y0388267D01*
X0648378Y0388111D01*
X0647226Y0387983D01*
X0646070Y0387884D01*
X0644913Y0387813D01*
X0643754Y0387770D01*
X0642595Y0387756D01*
X0641436Y0387770D01*
X0640277Y0387813D01*
X0639120Y0387884D01*
X0637964Y0387983D01*
X0636812Y0388111D01*
X0635663Y0388267D01*
X0634518Y0388452D01*
X0633378Y0388664D01*
X0632244Y0388904D01*
X0631116Y0389172D01*
X0629994Y0389467D01*
X0628881Y0389790D01*
X0627775Y0390140D01*
X0626679Y0390518D01*
X0625592Y0390922D01*
X0624516Y0391352D01*
X0623450Y0391809D01*
X0622396Y0392292D01*
X0621354Y0392801D01*
X0620324Y0393335D01*
X0619309Y0393894D01*
X0618307Y0394477D01*
X0617320Y0395086D01*
X0616348Y0395718D01*
X0615392Y0396374D01*
X0614452Y0397053D01*
X0613529Y0397755D01*
X0612624Y0398480D01*
X0611737Y0399226D01*
X0610868Y0399995D01*
X0610018Y0400784D01*
X0609188Y0401593D01*
X0608379Y0402423D01*
X0607590Y0403273D01*
X0606821Y0404142D01*
X0606075Y0405029D01*
X0605350Y0405934D01*
X0604648Y0406857D01*
X0603969Y0407797D01*
X0603313Y0408753D01*
X0602681Y0409725D01*
X0602072Y0410712D01*
X0601489Y0411714D01*
X0600930Y0412729D01*
X0600396Y0413759D01*
X0599887Y0414801D01*
X0599404Y0415855D01*
X0598947Y0416921D01*
X0598517Y0417997D01*
X0598113Y0419084D01*
X0597735Y0420180D01*
X0597385Y0421286D01*
X0597062Y0422399D01*
X0596767Y0423521D01*
X0596499Y0424649D01*
X0596259Y0425783D01*
X0596047Y0426923D01*
X0595862Y0428068D01*
X0595706Y0429217D01*
X0595578Y0430369D01*
X0595479Y0431525D01*
X0595408Y0432682D01*
X0595365Y0433841D01*
X0595351Y0435000D01*
X0563461Y0399567D02*
X0563461Y0470433D01*
X0524091Y0470433D01*
X0535524Y0485000D02*
X0449666Y0485000D01*
X0449495Y0485002D01*
X0449324Y0485008D01*
X0449154Y0485019D01*
X0448984Y0485033D01*
X0448814Y0485052D01*
X0448644Y0485074D01*
X0448476Y0485101D01*
X0448307Y0485132D01*
X0448140Y0485167D01*
X0447974Y0485205D01*
X0447808Y0485248D01*
X0447644Y0485295D01*
X0447481Y0485346D01*
X0447319Y0485401D01*
X0447159Y0485460D01*
X0447000Y0485522D01*
X0446842Y0485588D01*
X0446686Y0485658D01*
X0446532Y0485732D01*
X0446380Y0485810D01*
X0446230Y0485891D01*
X0446081Y0485976D01*
X0445935Y0486064D01*
X0445791Y0486156D01*
X0445649Y0486252D01*
X0445510Y0486350D01*
X0445373Y0486453D01*
X0445238Y0486558D01*
X0445106Y0486667D01*
X0444977Y0486778D01*
X0444851Y0486893D01*
X0444727Y0487011D01*
X0444606Y0487132D01*
X0444488Y0487256D01*
X0444373Y0487382D01*
X0444262Y0487511D01*
X0444153Y0487643D01*
X0444048Y0487778D01*
X0443945Y0487915D01*
X0443847Y0488054D01*
X0443751Y0488196D01*
X0443659Y0488340D01*
X0443571Y0488486D01*
X0443486Y0488635D01*
X0443405Y0488785D01*
X0443327Y0488937D01*
X0443253Y0489091D01*
X0443183Y0489247D01*
X0443117Y0489405D01*
X0443055Y0489564D01*
X0442996Y0489724D01*
X0442941Y0489886D01*
X0442890Y0490049D01*
X0442843Y0490213D01*
X0442800Y0490379D01*
X0442762Y0490545D01*
X0442727Y0490712D01*
X0442696Y0490881D01*
X0442669Y0491049D01*
X0442647Y0491219D01*
X0442628Y0491389D01*
X0442614Y0491559D01*
X0442603Y0491729D01*
X0442597Y0491900D01*
X0442595Y0492071D01*
X0442595Y0662929D01*
X0442597Y0663100D01*
X0442603Y0663271D01*
X0442614Y0663441D01*
X0442628Y0663611D01*
X0442647Y0663781D01*
X0442669Y0663951D01*
X0442696Y0664119D01*
X0442727Y0664288D01*
X0442762Y0664455D01*
X0442800Y0664621D01*
X0442843Y0664787D01*
X0442890Y0664951D01*
X0442941Y0665114D01*
X0442996Y0665276D01*
X0443055Y0665436D01*
X0443117Y0665595D01*
X0443183Y0665753D01*
X0443253Y0665909D01*
X0443327Y0666063D01*
X0443405Y0666215D01*
X0443486Y0666365D01*
X0443571Y0666514D01*
X0443659Y0666660D01*
X0443751Y0666804D01*
X0443847Y0666946D01*
X0443945Y0667085D01*
X0444048Y0667222D01*
X0444153Y0667357D01*
X0444262Y0667489D01*
X0444373Y0667618D01*
X0444488Y0667744D01*
X0444606Y0667868D01*
X0444727Y0667989D01*
X0444851Y0668107D01*
X0444977Y0668222D01*
X0445106Y0668333D01*
X0445238Y0668442D01*
X0445373Y0668547D01*
X0445510Y0668650D01*
X0445649Y0668748D01*
X0445791Y0668844D01*
X0445935Y0668936D01*
X0446081Y0669024D01*
X0446230Y0669109D01*
X0446380Y0669190D01*
X0446532Y0669268D01*
X0446686Y0669342D01*
X0446842Y0669412D01*
X0447000Y0669478D01*
X0447159Y0669540D01*
X0447319Y0669599D01*
X0447481Y0669654D01*
X0447644Y0669705D01*
X0447808Y0669752D01*
X0447974Y0669795D01*
X0448140Y0669833D01*
X0448307Y0669868D01*
X0448476Y0669899D01*
X0448644Y0669926D01*
X0448814Y0669948D01*
X0448984Y0669967D01*
X0449154Y0669981D01*
X0449324Y0669992D01*
X0449495Y0669998D01*
X0449666Y0670000D01*
X0535524Y0670000D01*
X0535695Y0669998D01*
X0535866Y0669992D01*
X0536036Y0669981D01*
X0536206Y0669967D01*
X0536376Y0669948D01*
X0536546Y0669926D01*
X0536714Y0669899D01*
X0536883Y0669868D01*
X0537050Y0669833D01*
X0537216Y0669795D01*
X0537382Y0669752D01*
X0537546Y0669705D01*
X0537709Y0669654D01*
X0537871Y0669599D01*
X0538031Y0669540D01*
X0538190Y0669478D01*
X0538348Y0669412D01*
X0538504Y0669342D01*
X0538658Y0669268D01*
X0538810Y0669190D01*
X0538960Y0669109D01*
X0539109Y0669024D01*
X0539255Y0668936D01*
X0539399Y0668844D01*
X0539541Y0668748D01*
X0539680Y0668650D01*
X0539817Y0668547D01*
X0539952Y0668442D01*
X0540084Y0668333D01*
X0540213Y0668222D01*
X0540339Y0668107D01*
X0540463Y0667989D01*
X0540584Y0667868D01*
X0540702Y0667744D01*
X0540817Y0667618D01*
X0540928Y0667489D01*
X0541037Y0667357D01*
X0541142Y0667222D01*
X0541245Y0667085D01*
X0541343Y0666946D01*
X0541439Y0666804D01*
X0541531Y0666660D01*
X0541619Y0666514D01*
X0541704Y0666365D01*
X0541785Y0666215D01*
X0541863Y0666063D01*
X0541937Y0665909D01*
X0542007Y0665753D01*
X0542073Y0665595D01*
X0542135Y0665436D01*
X0542194Y0665276D01*
X0542249Y0665114D01*
X0542300Y0664951D01*
X0542347Y0664787D01*
X0542390Y0664621D01*
X0542428Y0664455D01*
X0542463Y0664288D01*
X0542494Y0664119D01*
X0542521Y0663951D01*
X0542543Y0663781D01*
X0542562Y0663611D01*
X0542576Y0663441D01*
X0542587Y0663271D01*
X0542593Y0663100D01*
X0542595Y0662929D01*
X0542595Y0492071D01*
X0542593Y0491900D01*
X0542587Y0491729D01*
X0542576Y0491559D01*
X0542562Y0491389D01*
X0542543Y0491219D01*
X0542521Y0491049D01*
X0542494Y0490881D01*
X0542463Y0490712D01*
X0542428Y0490545D01*
X0542390Y0490379D01*
X0542347Y0490213D01*
X0542300Y0490049D01*
X0542249Y0489886D01*
X0542194Y0489724D01*
X0542135Y0489564D01*
X0542073Y0489405D01*
X0542007Y0489247D01*
X0541937Y0489091D01*
X0541863Y0488937D01*
X0541785Y0488785D01*
X0541704Y0488635D01*
X0541619Y0488486D01*
X0541531Y0488340D01*
X0541439Y0488196D01*
X0541343Y0488054D01*
X0541245Y0487915D01*
X0541142Y0487778D01*
X0541037Y0487643D01*
X0540928Y0487511D01*
X0540817Y0487382D01*
X0540702Y0487256D01*
X0540584Y0487132D01*
X0540463Y0487011D01*
X0540339Y0486893D01*
X0540213Y0486778D01*
X0540084Y0486667D01*
X0539952Y0486558D01*
X0539817Y0486453D01*
X0539680Y0486350D01*
X0539541Y0486252D01*
X0539399Y0486156D01*
X0539255Y0486064D01*
X0539109Y0485976D01*
X0538960Y0485891D01*
X0538810Y0485810D01*
X0538658Y0485732D01*
X0538504Y0485658D01*
X0538348Y0485588D01*
X0538190Y0485522D01*
X0538031Y0485460D01*
X0537871Y0485401D01*
X0537709Y0485346D01*
X0537546Y0485295D01*
X0537382Y0485248D01*
X0537216Y0485205D01*
X0537050Y0485167D01*
X0536883Y0485132D01*
X0536714Y0485101D01*
X0536546Y0485074D01*
X0536376Y0485052D01*
X0536206Y0485033D01*
X0536036Y0485019D01*
X0535866Y0485008D01*
X0535695Y0485002D01*
X0535524Y0485000D01*
X0455095Y0435000D02*
X0455106Y0435920D01*
X0455140Y0436840D01*
X0455197Y0437759D01*
X0455276Y0438676D01*
X0455377Y0439590D01*
X0455501Y0440502D01*
X0455647Y0441411D01*
X0455816Y0442316D01*
X0456006Y0443216D01*
X0456219Y0444112D01*
X0456453Y0445002D01*
X0456710Y0445886D01*
X0456988Y0446763D01*
X0457287Y0447633D01*
X0457608Y0448496D01*
X0457950Y0449351D01*
X0458312Y0450197D01*
X0458695Y0451033D01*
X0459099Y0451860D01*
X0459523Y0452677D01*
X0459967Y0453484D01*
X0460430Y0454279D01*
X0460913Y0455062D01*
X0461415Y0455834D01*
X0461936Y0456593D01*
X0462475Y0457339D01*
X0463032Y0458071D01*
X0463607Y0458790D01*
X0464200Y0459494D01*
X0464809Y0460183D01*
X0465436Y0460858D01*
X0466078Y0461517D01*
X0466737Y0462159D01*
X0467412Y0462786D01*
X0468101Y0463395D01*
X0468805Y0463988D01*
X0469524Y0464563D01*
X0470256Y0465120D01*
X0471002Y0465659D01*
X0471761Y0466180D01*
X0472533Y0466682D01*
X0473316Y0467165D01*
X0474111Y0467628D01*
X0474918Y0468072D01*
X0475735Y0468496D01*
X0476562Y0468900D01*
X0477398Y0469283D01*
X0478244Y0469645D01*
X0479099Y0469987D01*
X0479962Y0470308D01*
X0480832Y0470607D01*
X0481709Y0470885D01*
X0482593Y0471142D01*
X0483483Y0471376D01*
X0484379Y0471589D01*
X0485279Y0471779D01*
X0486184Y0471948D01*
X0487093Y0472094D01*
X0488005Y0472218D01*
X0488919Y0472319D01*
X0489836Y0472398D01*
X0490755Y0472455D01*
X0491675Y0472489D01*
X0492595Y0472500D01*
X0493515Y0472489D01*
X0494435Y0472455D01*
X0495354Y0472398D01*
X0496271Y0472319D01*
X0497185Y0472218D01*
X0498097Y0472094D01*
X0499006Y0471948D01*
X0499911Y0471779D01*
X0500811Y0471589D01*
X0501707Y0471376D01*
X0502597Y0471142D01*
X0503481Y0470885D01*
X0504358Y0470607D01*
X0505228Y0470308D01*
X0506091Y0469987D01*
X0506946Y0469645D01*
X0507792Y0469283D01*
X0508628Y0468900D01*
X0509455Y0468496D01*
X0510272Y0468072D01*
X0511079Y0467628D01*
X0511874Y0467165D01*
X0512657Y0466682D01*
X0513429Y0466180D01*
X0514188Y0465659D01*
X0514934Y0465120D01*
X0515666Y0464563D01*
X0516385Y0463988D01*
X0517089Y0463395D01*
X0517778Y0462786D01*
X0518453Y0462159D01*
X0519112Y0461517D01*
X0519754Y0460858D01*
X0520381Y0460183D01*
X0520990Y0459494D01*
X0521583Y0458790D01*
X0522158Y0458071D01*
X0522715Y0457339D01*
X0523254Y0456593D01*
X0523775Y0455834D01*
X0524277Y0455062D01*
X0524760Y0454279D01*
X0525223Y0453484D01*
X0525667Y0452677D01*
X0526091Y0451860D01*
X0526495Y0451033D01*
X0526878Y0450197D01*
X0527240Y0449351D01*
X0527582Y0448496D01*
X0527903Y0447633D01*
X0528202Y0446763D01*
X0528480Y0445886D01*
X0528737Y0445002D01*
X0528971Y0444112D01*
X0529184Y0443216D01*
X0529374Y0442316D01*
X0529543Y0441411D01*
X0529689Y0440502D01*
X0529813Y0439590D01*
X0529914Y0438676D01*
X0529993Y0437759D01*
X0530050Y0436840D01*
X0530084Y0435920D01*
X0530095Y0435000D01*
X0530084Y0434080D01*
X0530050Y0433160D01*
X0529993Y0432241D01*
X0529914Y0431324D01*
X0529813Y0430410D01*
X0529689Y0429498D01*
X0529543Y0428589D01*
X0529374Y0427684D01*
X0529184Y0426784D01*
X0528971Y0425888D01*
X0528737Y0424998D01*
X0528480Y0424114D01*
X0528202Y0423237D01*
X0527903Y0422367D01*
X0527582Y0421504D01*
X0527240Y0420649D01*
X0526878Y0419803D01*
X0526495Y0418967D01*
X0526091Y0418140D01*
X0525667Y0417323D01*
X0525223Y0416516D01*
X0524760Y0415721D01*
X0524277Y0414938D01*
X0523775Y0414166D01*
X0523254Y0413407D01*
X0522715Y0412661D01*
X0522158Y0411929D01*
X0521583Y0411210D01*
X0520990Y0410506D01*
X0520381Y0409817D01*
X0519754Y0409142D01*
X0519112Y0408483D01*
X0518453Y0407841D01*
X0517778Y0407214D01*
X0517089Y0406605D01*
X0516385Y0406012D01*
X0515666Y0405437D01*
X0514934Y0404880D01*
X0514188Y0404341D01*
X0513429Y0403820D01*
X0512657Y0403318D01*
X0511874Y0402835D01*
X0511079Y0402372D01*
X0510272Y0401928D01*
X0509455Y0401504D01*
X0508628Y0401100D01*
X0507792Y0400717D01*
X0506946Y0400355D01*
X0506091Y0400013D01*
X0505228Y0399692D01*
X0504358Y0399393D01*
X0503481Y0399115D01*
X0502597Y0398858D01*
X0501707Y0398624D01*
X0500811Y0398411D01*
X0499911Y0398221D01*
X0499006Y0398052D01*
X0498097Y0397906D01*
X0497185Y0397782D01*
X0496271Y0397681D01*
X0495354Y0397602D01*
X0494435Y0397545D01*
X0493515Y0397511D01*
X0492595Y0397500D01*
X0491675Y0397511D01*
X0490755Y0397545D01*
X0489836Y0397602D01*
X0488919Y0397681D01*
X0488005Y0397782D01*
X0487093Y0397906D01*
X0486184Y0398052D01*
X0485279Y0398221D01*
X0484379Y0398411D01*
X0483483Y0398624D01*
X0482593Y0398858D01*
X0481709Y0399115D01*
X0480832Y0399393D01*
X0479962Y0399692D01*
X0479099Y0400013D01*
X0478244Y0400355D01*
X0477398Y0400717D01*
X0476562Y0401100D01*
X0475735Y0401504D01*
X0474918Y0401928D01*
X0474111Y0402372D01*
X0473316Y0402835D01*
X0472533Y0403318D01*
X0471761Y0403820D01*
X0471002Y0404341D01*
X0470256Y0404880D01*
X0469524Y0405437D01*
X0468805Y0406012D01*
X0468101Y0406605D01*
X0467412Y0407214D01*
X0466737Y0407841D01*
X0466078Y0408483D01*
X0465436Y0409142D01*
X0464809Y0409817D01*
X0464200Y0410506D01*
X0463607Y0411210D01*
X0463032Y0411929D01*
X0462475Y0412661D01*
X0461936Y0413407D01*
X0461415Y0414166D01*
X0460913Y0414938D01*
X0460430Y0415721D01*
X0459967Y0416516D01*
X0459523Y0417323D01*
X0459099Y0418140D01*
X0458695Y0418967D01*
X0458312Y0419803D01*
X0457950Y0420649D01*
X0457608Y0421504D01*
X0457287Y0422367D01*
X0456988Y0423237D01*
X0456710Y0424114D01*
X0456453Y0424998D01*
X0456219Y0425888D01*
X0456006Y0426784D01*
X0455816Y0427684D01*
X0455647Y0428589D01*
X0455501Y0429498D01*
X0455377Y0430410D01*
X0455276Y0431324D01*
X0455197Y0432241D01*
X0455140Y0433160D01*
X0455106Y0434080D01*
X0455095Y0435000D01*
X0445351Y0435000D02*
X0445365Y0436159D01*
X0445408Y0437318D01*
X0445479Y0438475D01*
X0445578Y0439631D01*
X0445706Y0440783D01*
X0445862Y0441932D01*
X0446047Y0443077D01*
X0446259Y0444217D01*
X0446499Y0445351D01*
X0446767Y0446479D01*
X0447062Y0447601D01*
X0447385Y0448714D01*
X0447735Y0449820D01*
X0448113Y0450916D01*
X0448517Y0452003D01*
X0448947Y0453079D01*
X0449404Y0454145D01*
X0449887Y0455199D01*
X0450396Y0456241D01*
X0450930Y0457271D01*
X0451489Y0458286D01*
X0452072Y0459288D01*
X0452681Y0460275D01*
X0453313Y0461247D01*
X0453969Y0462203D01*
X0454648Y0463143D01*
X0455350Y0464066D01*
X0456075Y0464971D01*
X0456821Y0465858D01*
X0457590Y0466727D01*
X0458379Y0467577D01*
X0459188Y0468407D01*
X0460018Y0469216D01*
X0460868Y0470005D01*
X0461737Y0470774D01*
X0462624Y0471520D01*
X0463529Y0472245D01*
X0464452Y0472947D01*
X0465392Y0473626D01*
X0466348Y0474282D01*
X0467320Y0474914D01*
X0468307Y0475523D01*
X0469309Y0476106D01*
X0470324Y0476665D01*
X0471354Y0477199D01*
X0472396Y0477708D01*
X0473450Y0478191D01*
X0474516Y0478648D01*
X0475592Y0479078D01*
X0476679Y0479482D01*
X0477775Y0479860D01*
X0478881Y0480210D01*
X0479994Y0480533D01*
X0481116Y0480828D01*
X0482244Y0481096D01*
X0483378Y0481336D01*
X0484518Y0481548D01*
X0485663Y0481733D01*
X0486812Y0481889D01*
X0487964Y0482017D01*
X0489120Y0482116D01*
X0490277Y0482187D01*
X0491436Y0482230D01*
X0492595Y0482244D01*
X0493754Y0482230D01*
X0494913Y0482187D01*
X0496070Y0482116D01*
X0497226Y0482017D01*
X0498378Y0481889D01*
X0499527Y0481733D01*
X0500672Y0481548D01*
X0501812Y0481336D01*
X0502946Y0481096D01*
X0504074Y0480828D01*
X0505196Y0480533D01*
X0506309Y0480210D01*
X0507415Y0479860D01*
X0508511Y0479482D01*
X0509598Y0479078D01*
X0510674Y0478648D01*
X0511740Y0478191D01*
X0512794Y0477708D01*
X0513836Y0477199D01*
X0514866Y0476665D01*
X0515881Y0476106D01*
X0516883Y0475523D01*
X0517870Y0474914D01*
X0518842Y0474282D01*
X0519798Y0473626D01*
X0520738Y0472947D01*
X0521661Y0472245D01*
X0522566Y0471520D01*
X0523453Y0470774D01*
X0524322Y0470005D01*
X0525172Y0469216D01*
X0526002Y0468407D01*
X0526811Y0467577D01*
X0527600Y0466727D01*
X0528369Y0465858D01*
X0529115Y0464971D01*
X0529840Y0464066D01*
X0530542Y0463143D01*
X0531221Y0462203D01*
X0531877Y0461247D01*
X0532509Y0460275D01*
X0533118Y0459288D01*
X0533701Y0458286D01*
X0534260Y0457271D01*
X0534794Y0456241D01*
X0535303Y0455199D01*
X0535786Y0454145D01*
X0536243Y0453079D01*
X0536673Y0452003D01*
X0537077Y0450916D01*
X0537455Y0449820D01*
X0537805Y0448714D01*
X0538128Y0447601D01*
X0538423Y0446479D01*
X0538691Y0445351D01*
X0538931Y0444217D01*
X0539143Y0443077D01*
X0539328Y0441932D01*
X0539484Y0440783D01*
X0539612Y0439631D01*
X0539711Y0438475D01*
X0539782Y0437318D01*
X0539825Y0436159D01*
X0539839Y0435000D01*
X0539825Y0433841D01*
X0539782Y0432682D01*
X0539711Y0431525D01*
X0539612Y0430369D01*
X0539484Y0429217D01*
X0539328Y0428068D01*
X0539143Y0426923D01*
X0538931Y0425783D01*
X0538691Y0424649D01*
X0538423Y0423521D01*
X0538128Y0422399D01*
X0537805Y0421286D01*
X0537455Y0420180D01*
X0537077Y0419084D01*
X0536673Y0417997D01*
X0536243Y0416921D01*
X0535786Y0415855D01*
X0535303Y0414801D01*
X0534794Y0413759D01*
X0534260Y0412729D01*
X0533701Y0411714D01*
X0533118Y0410712D01*
X0532509Y0409725D01*
X0531877Y0408753D01*
X0531221Y0407797D01*
X0530542Y0406857D01*
X0529840Y0405934D01*
X0529115Y0405029D01*
X0528369Y0404142D01*
X0527600Y0403273D01*
X0526811Y0402423D01*
X0526002Y0401593D01*
X0525172Y0400784D01*
X0524322Y0399995D01*
X0523453Y0399226D01*
X0522566Y0398480D01*
X0521661Y0397755D01*
X0520738Y0397053D01*
X0519798Y0396374D01*
X0518842Y0395718D01*
X0517870Y0395086D01*
X0516883Y0394477D01*
X0515881Y0393894D01*
X0514866Y0393335D01*
X0513836Y0392801D01*
X0512794Y0392292D01*
X0511740Y0391809D01*
X0510674Y0391352D01*
X0509598Y0390922D01*
X0508511Y0390518D01*
X0507415Y0390140D01*
X0506309Y0389790D01*
X0505196Y0389467D01*
X0504074Y0389172D01*
X0502946Y0388904D01*
X0501812Y0388664D01*
X0500672Y0388452D01*
X0499527Y0388267D01*
X0498378Y0388111D01*
X0497226Y0387983D01*
X0496070Y0387884D01*
X0494913Y0387813D01*
X0493754Y0387770D01*
X0492595Y0387756D01*
X0491436Y0387770D01*
X0490277Y0387813D01*
X0489120Y0387884D01*
X0487964Y0387983D01*
X0486812Y0388111D01*
X0485663Y0388267D01*
X0484518Y0388452D01*
X0483378Y0388664D01*
X0482244Y0388904D01*
X0481116Y0389172D01*
X0479994Y0389467D01*
X0478881Y0389790D01*
X0477775Y0390140D01*
X0476679Y0390518D01*
X0475592Y0390922D01*
X0474516Y0391352D01*
X0473450Y0391809D01*
X0472396Y0392292D01*
X0471354Y0392801D01*
X0470324Y0393335D01*
X0469309Y0393894D01*
X0468307Y0394477D01*
X0467320Y0395086D01*
X0466348Y0395718D01*
X0465392Y0396374D01*
X0464452Y0397053D01*
X0463529Y0397755D01*
X0462624Y0398480D01*
X0461737Y0399226D01*
X0460868Y0399995D01*
X0460018Y0400784D01*
X0459188Y0401593D01*
X0458379Y0402423D01*
X0457590Y0403273D01*
X0456821Y0404142D01*
X0456075Y0405029D01*
X0455350Y0405934D01*
X0454648Y0406857D01*
X0453969Y0407797D01*
X0453313Y0408753D01*
X0452681Y0409725D01*
X0452072Y0410712D01*
X0451489Y0411714D01*
X0450930Y0412729D01*
X0450396Y0413759D01*
X0449887Y0414801D01*
X0449404Y0415855D01*
X0448947Y0416921D01*
X0448517Y0417997D01*
X0448113Y0419084D01*
X0447735Y0420180D01*
X0447385Y0421286D01*
X0447062Y0422399D01*
X0446767Y0423521D01*
X0446499Y0424649D01*
X0446259Y0425783D01*
X0446047Y0426923D01*
X0445862Y0428068D01*
X0445706Y0429217D01*
X0445578Y0430369D01*
X0445479Y0431525D01*
X0445408Y0432682D01*
X0445365Y0433841D01*
X0445351Y0435000D01*
X0413461Y0399567D02*
X0413461Y0470433D01*
X0374091Y0470433D01*
X0385524Y0485000D02*
X0299666Y0485000D01*
X0299495Y0485002D01*
X0299324Y0485008D01*
X0299154Y0485019D01*
X0298984Y0485033D01*
X0298814Y0485052D01*
X0298644Y0485074D01*
X0298476Y0485101D01*
X0298307Y0485132D01*
X0298140Y0485167D01*
X0297974Y0485205D01*
X0297808Y0485248D01*
X0297644Y0485295D01*
X0297481Y0485346D01*
X0297319Y0485401D01*
X0297159Y0485460D01*
X0297000Y0485522D01*
X0296842Y0485588D01*
X0296686Y0485658D01*
X0296532Y0485732D01*
X0296380Y0485810D01*
X0296230Y0485891D01*
X0296081Y0485976D01*
X0295935Y0486064D01*
X0295791Y0486156D01*
X0295649Y0486252D01*
X0295510Y0486350D01*
X0295373Y0486453D01*
X0295238Y0486558D01*
X0295106Y0486667D01*
X0294977Y0486778D01*
X0294851Y0486893D01*
X0294727Y0487011D01*
X0294606Y0487132D01*
X0294488Y0487256D01*
X0294373Y0487382D01*
X0294262Y0487511D01*
X0294153Y0487643D01*
X0294048Y0487778D01*
X0293945Y0487915D01*
X0293847Y0488054D01*
X0293751Y0488196D01*
X0293659Y0488340D01*
X0293571Y0488486D01*
X0293486Y0488635D01*
X0293405Y0488785D01*
X0293327Y0488937D01*
X0293253Y0489091D01*
X0293183Y0489247D01*
X0293117Y0489405D01*
X0293055Y0489564D01*
X0292996Y0489724D01*
X0292941Y0489886D01*
X0292890Y0490049D01*
X0292843Y0490213D01*
X0292800Y0490379D01*
X0292762Y0490545D01*
X0292727Y0490712D01*
X0292696Y0490881D01*
X0292669Y0491049D01*
X0292647Y0491219D01*
X0292628Y0491389D01*
X0292614Y0491559D01*
X0292603Y0491729D01*
X0292597Y0491900D01*
X0292595Y0492071D01*
X0292595Y0662929D01*
X0292597Y0663100D01*
X0292603Y0663271D01*
X0292614Y0663441D01*
X0292628Y0663611D01*
X0292647Y0663781D01*
X0292669Y0663951D01*
X0292696Y0664119D01*
X0292727Y0664288D01*
X0292762Y0664455D01*
X0292800Y0664621D01*
X0292843Y0664787D01*
X0292890Y0664951D01*
X0292941Y0665114D01*
X0292996Y0665276D01*
X0293055Y0665436D01*
X0293117Y0665595D01*
X0293183Y0665753D01*
X0293253Y0665909D01*
X0293327Y0666063D01*
X0293405Y0666215D01*
X0293486Y0666365D01*
X0293571Y0666514D01*
X0293659Y0666660D01*
X0293751Y0666804D01*
X0293847Y0666946D01*
X0293945Y0667085D01*
X0294048Y0667222D01*
X0294153Y0667357D01*
X0294262Y0667489D01*
X0294373Y0667618D01*
X0294488Y0667744D01*
X0294606Y0667868D01*
X0294727Y0667989D01*
X0294851Y0668107D01*
X0294977Y0668222D01*
X0295106Y0668333D01*
X0295238Y0668442D01*
X0295373Y0668547D01*
X0295510Y0668650D01*
X0295649Y0668748D01*
X0295791Y0668844D01*
X0295935Y0668936D01*
X0296081Y0669024D01*
X0296230Y0669109D01*
X0296380Y0669190D01*
X0296532Y0669268D01*
X0296686Y0669342D01*
X0296842Y0669412D01*
X0297000Y0669478D01*
X0297159Y0669540D01*
X0297319Y0669599D01*
X0297481Y0669654D01*
X0297644Y0669705D01*
X0297808Y0669752D01*
X0297974Y0669795D01*
X0298140Y0669833D01*
X0298307Y0669868D01*
X0298476Y0669899D01*
X0298644Y0669926D01*
X0298814Y0669948D01*
X0298984Y0669967D01*
X0299154Y0669981D01*
X0299324Y0669992D01*
X0299495Y0669998D01*
X0299666Y0670000D01*
X0385524Y0670000D01*
X0385695Y0669998D01*
X0385866Y0669992D01*
X0386036Y0669981D01*
X0386206Y0669967D01*
X0386376Y0669948D01*
X0386546Y0669926D01*
X0386714Y0669899D01*
X0386883Y0669868D01*
X0387050Y0669833D01*
X0387216Y0669795D01*
X0387382Y0669752D01*
X0387546Y0669705D01*
X0387709Y0669654D01*
X0387871Y0669599D01*
X0388031Y0669540D01*
X0388190Y0669478D01*
X0388348Y0669412D01*
X0388504Y0669342D01*
X0388658Y0669268D01*
X0388810Y0669190D01*
X0388960Y0669109D01*
X0389109Y0669024D01*
X0389255Y0668936D01*
X0389399Y0668844D01*
X0389541Y0668748D01*
X0389680Y0668650D01*
X0389817Y0668547D01*
X0389952Y0668442D01*
X0390084Y0668333D01*
X0390213Y0668222D01*
X0390339Y0668107D01*
X0390463Y0667989D01*
X0390584Y0667868D01*
X0390702Y0667744D01*
X0390817Y0667618D01*
X0390928Y0667489D01*
X0391037Y0667357D01*
X0391142Y0667222D01*
X0391245Y0667085D01*
X0391343Y0666946D01*
X0391439Y0666804D01*
X0391531Y0666660D01*
X0391619Y0666514D01*
X0391704Y0666365D01*
X0391785Y0666215D01*
X0391863Y0666063D01*
X0391937Y0665909D01*
X0392007Y0665753D01*
X0392073Y0665595D01*
X0392135Y0665436D01*
X0392194Y0665276D01*
X0392249Y0665114D01*
X0392300Y0664951D01*
X0392347Y0664787D01*
X0392390Y0664621D01*
X0392428Y0664455D01*
X0392463Y0664288D01*
X0392494Y0664119D01*
X0392521Y0663951D01*
X0392543Y0663781D01*
X0392562Y0663611D01*
X0392576Y0663441D01*
X0392587Y0663271D01*
X0392593Y0663100D01*
X0392595Y0662929D01*
X0392595Y0492071D01*
X0392593Y0491900D01*
X0392587Y0491729D01*
X0392576Y0491559D01*
X0392562Y0491389D01*
X0392543Y0491219D01*
X0392521Y0491049D01*
X0392494Y0490881D01*
X0392463Y0490712D01*
X0392428Y0490545D01*
X0392390Y0490379D01*
X0392347Y0490213D01*
X0392300Y0490049D01*
X0392249Y0489886D01*
X0392194Y0489724D01*
X0392135Y0489564D01*
X0392073Y0489405D01*
X0392007Y0489247D01*
X0391937Y0489091D01*
X0391863Y0488937D01*
X0391785Y0488785D01*
X0391704Y0488635D01*
X0391619Y0488486D01*
X0391531Y0488340D01*
X0391439Y0488196D01*
X0391343Y0488054D01*
X0391245Y0487915D01*
X0391142Y0487778D01*
X0391037Y0487643D01*
X0390928Y0487511D01*
X0390817Y0487382D01*
X0390702Y0487256D01*
X0390584Y0487132D01*
X0390463Y0487011D01*
X0390339Y0486893D01*
X0390213Y0486778D01*
X0390084Y0486667D01*
X0389952Y0486558D01*
X0389817Y0486453D01*
X0389680Y0486350D01*
X0389541Y0486252D01*
X0389399Y0486156D01*
X0389255Y0486064D01*
X0389109Y0485976D01*
X0388960Y0485891D01*
X0388810Y0485810D01*
X0388658Y0485732D01*
X0388504Y0485658D01*
X0388348Y0485588D01*
X0388190Y0485522D01*
X0388031Y0485460D01*
X0387871Y0485401D01*
X0387709Y0485346D01*
X0387546Y0485295D01*
X0387382Y0485248D01*
X0387216Y0485205D01*
X0387050Y0485167D01*
X0386883Y0485132D01*
X0386714Y0485101D01*
X0386546Y0485074D01*
X0386376Y0485052D01*
X0386206Y0485033D01*
X0386036Y0485019D01*
X0385866Y0485008D01*
X0385695Y0485002D01*
X0385524Y0485000D01*
X0305095Y0435000D02*
X0305106Y0435920D01*
X0305140Y0436840D01*
X0305197Y0437759D01*
X0305276Y0438676D01*
X0305377Y0439590D01*
X0305501Y0440502D01*
X0305647Y0441411D01*
X0305816Y0442316D01*
X0306006Y0443216D01*
X0306219Y0444112D01*
X0306453Y0445002D01*
X0306710Y0445886D01*
X0306988Y0446763D01*
X0307287Y0447633D01*
X0307608Y0448496D01*
X0307950Y0449351D01*
X0308312Y0450197D01*
X0308695Y0451033D01*
X0309099Y0451860D01*
X0309523Y0452677D01*
X0309967Y0453484D01*
X0310430Y0454279D01*
X0310913Y0455062D01*
X0311415Y0455834D01*
X0311936Y0456593D01*
X0312475Y0457339D01*
X0313032Y0458071D01*
X0313607Y0458790D01*
X0314200Y0459494D01*
X0314809Y0460183D01*
X0315436Y0460858D01*
X0316078Y0461517D01*
X0316737Y0462159D01*
X0317412Y0462786D01*
X0318101Y0463395D01*
X0318805Y0463988D01*
X0319524Y0464563D01*
X0320256Y0465120D01*
X0321002Y0465659D01*
X0321761Y0466180D01*
X0322533Y0466682D01*
X0323316Y0467165D01*
X0324111Y0467628D01*
X0324918Y0468072D01*
X0325735Y0468496D01*
X0326562Y0468900D01*
X0327398Y0469283D01*
X0328244Y0469645D01*
X0329099Y0469987D01*
X0329962Y0470308D01*
X0330832Y0470607D01*
X0331709Y0470885D01*
X0332593Y0471142D01*
X0333483Y0471376D01*
X0334379Y0471589D01*
X0335279Y0471779D01*
X0336184Y0471948D01*
X0337093Y0472094D01*
X0338005Y0472218D01*
X0338919Y0472319D01*
X0339836Y0472398D01*
X0340755Y0472455D01*
X0341675Y0472489D01*
X0342595Y0472500D01*
X0343515Y0472489D01*
X0344435Y0472455D01*
X0345354Y0472398D01*
X0346271Y0472319D01*
X0347185Y0472218D01*
X0348097Y0472094D01*
X0349006Y0471948D01*
X0349911Y0471779D01*
X0350811Y0471589D01*
X0351707Y0471376D01*
X0352597Y0471142D01*
X0353481Y0470885D01*
X0354358Y0470607D01*
X0355228Y0470308D01*
X0356091Y0469987D01*
X0356946Y0469645D01*
X0357792Y0469283D01*
X0358628Y0468900D01*
X0359455Y0468496D01*
X0360272Y0468072D01*
X0361079Y0467628D01*
X0361874Y0467165D01*
X0362657Y0466682D01*
X0363429Y0466180D01*
X0364188Y0465659D01*
X0364934Y0465120D01*
X0365666Y0464563D01*
X0366385Y0463988D01*
X0367089Y0463395D01*
X0367778Y0462786D01*
X0368453Y0462159D01*
X0369112Y0461517D01*
X0369754Y0460858D01*
X0370381Y0460183D01*
X0370990Y0459494D01*
X0371583Y0458790D01*
X0372158Y0458071D01*
X0372715Y0457339D01*
X0373254Y0456593D01*
X0373775Y0455834D01*
X0374277Y0455062D01*
X0374760Y0454279D01*
X0375223Y0453484D01*
X0375667Y0452677D01*
X0376091Y0451860D01*
X0376495Y0451033D01*
X0376878Y0450197D01*
X0377240Y0449351D01*
X0377582Y0448496D01*
X0377903Y0447633D01*
X0378202Y0446763D01*
X0378480Y0445886D01*
X0378737Y0445002D01*
X0378971Y0444112D01*
X0379184Y0443216D01*
X0379374Y0442316D01*
X0379543Y0441411D01*
X0379689Y0440502D01*
X0379813Y0439590D01*
X0379914Y0438676D01*
X0379993Y0437759D01*
X0380050Y0436840D01*
X0380084Y0435920D01*
X0380095Y0435000D01*
X0380084Y0434080D01*
X0380050Y0433160D01*
X0379993Y0432241D01*
X0379914Y0431324D01*
X0379813Y0430410D01*
X0379689Y0429498D01*
X0379543Y0428589D01*
X0379374Y0427684D01*
X0379184Y0426784D01*
X0378971Y0425888D01*
X0378737Y0424998D01*
X0378480Y0424114D01*
X0378202Y0423237D01*
X0377903Y0422367D01*
X0377582Y0421504D01*
X0377240Y0420649D01*
X0376878Y0419803D01*
X0376495Y0418967D01*
X0376091Y0418140D01*
X0375667Y0417323D01*
X0375223Y0416516D01*
X0374760Y0415721D01*
X0374277Y0414938D01*
X0373775Y0414166D01*
X0373254Y0413407D01*
X0372715Y0412661D01*
X0372158Y0411929D01*
X0371583Y0411210D01*
X0370990Y0410506D01*
X0370381Y0409817D01*
X0369754Y0409142D01*
X0369112Y0408483D01*
X0368453Y0407841D01*
X0367778Y0407214D01*
X0367089Y0406605D01*
X0366385Y0406012D01*
X0365666Y0405437D01*
X0364934Y0404880D01*
X0364188Y0404341D01*
X0363429Y0403820D01*
X0362657Y0403318D01*
X0361874Y0402835D01*
X0361079Y0402372D01*
X0360272Y0401928D01*
X0359455Y0401504D01*
X0358628Y0401100D01*
X0357792Y0400717D01*
X0356946Y0400355D01*
X0356091Y0400013D01*
X0355228Y0399692D01*
X0354358Y0399393D01*
X0353481Y0399115D01*
X0352597Y0398858D01*
X0351707Y0398624D01*
X0350811Y0398411D01*
X0349911Y0398221D01*
X0349006Y0398052D01*
X0348097Y0397906D01*
X0347185Y0397782D01*
X0346271Y0397681D01*
X0345354Y0397602D01*
X0344435Y0397545D01*
X0343515Y0397511D01*
X0342595Y0397500D01*
X0341675Y0397511D01*
X0340755Y0397545D01*
X0339836Y0397602D01*
X0338919Y0397681D01*
X0338005Y0397782D01*
X0337093Y0397906D01*
X0336184Y0398052D01*
X0335279Y0398221D01*
X0334379Y0398411D01*
X0333483Y0398624D01*
X0332593Y0398858D01*
X0331709Y0399115D01*
X0330832Y0399393D01*
X0329962Y0399692D01*
X0329099Y0400013D01*
X0328244Y0400355D01*
X0327398Y0400717D01*
X0326562Y0401100D01*
X0325735Y0401504D01*
X0324918Y0401928D01*
X0324111Y0402372D01*
X0323316Y0402835D01*
X0322533Y0403318D01*
X0321761Y0403820D01*
X0321002Y0404341D01*
X0320256Y0404880D01*
X0319524Y0405437D01*
X0318805Y0406012D01*
X0318101Y0406605D01*
X0317412Y0407214D01*
X0316737Y0407841D01*
X0316078Y0408483D01*
X0315436Y0409142D01*
X0314809Y0409817D01*
X0314200Y0410506D01*
X0313607Y0411210D01*
X0313032Y0411929D01*
X0312475Y0412661D01*
X0311936Y0413407D01*
X0311415Y0414166D01*
X0310913Y0414938D01*
X0310430Y0415721D01*
X0309967Y0416516D01*
X0309523Y0417323D01*
X0309099Y0418140D01*
X0308695Y0418967D01*
X0308312Y0419803D01*
X0307950Y0420649D01*
X0307608Y0421504D01*
X0307287Y0422367D01*
X0306988Y0423237D01*
X0306710Y0424114D01*
X0306453Y0424998D01*
X0306219Y0425888D01*
X0306006Y0426784D01*
X0305816Y0427684D01*
X0305647Y0428589D01*
X0305501Y0429498D01*
X0305377Y0430410D01*
X0305276Y0431324D01*
X0305197Y0432241D01*
X0305140Y0433160D01*
X0305106Y0434080D01*
X0305095Y0435000D01*
X0295351Y0435000D02*
X0295365Y0436159D01*
X0295408Y0437318D01*
X0295479Y0438475D01*
X0295578Y0439631D01*
X0295706Y0440783D01*
X0295862Y0441932D01*
X0296047Y0443077D01*
X0296259Y0444217D01*
X0296499Y0445351D01*
X0296767Y0446479D01*
X0297062Y0447601D01*
X0297385Y0448714D01*
X0297735Y0449820D01*
X0298113Y0450916D01*
X0298517Y0452003D01*
X0298947Y0453079D01*
X0299404Y0454145D01*
X0299887Y0455199D01*
X0300396Y0456241D01*
X0300930Y0457271D01*
X0301489Y0458286D01*
X0302072Y0459288D01*
X0302681Y0460275D01*
X0303313Y0461247D01*
X0303969Y0462203D01*
X0304648Y0463143D01*
X0305350Y0464066D01*
X0306075Y0464971D01*
X0306821Y0465858D01*
X0307590Y0466727D01*
X0308379Y0467577D01*
X0309188Y0468407D01*
X0310018Y0469216D01*
X0310868Y0470005D01*
X0311737Y0470774D01*
X0312624Y0471520D01*
X0313529Y0472245D01*
X0314452Y0472947D01*
X0315392Y0473626D01*
X0316348Y0474282D01*
X0317320Y0474914D01*
X0318307Y0475523D01*
X0319309Y0476106D01*
X0320324Y0476665D01*
X0321354Y0477199D01*
X0322396Y0477708D01*
X0323450Y0478191D01*
X0324516Y0478648D01*
X0325592Y0479078D01*
X0326679Y0479482D01*
X0327775Y0479860D01*
X0328881Y0480210D01*
X0329994Y0480533D01*
X0331116Y0480828D01*
X0332244Y0481096D01*
X0333378Y0481336D01*
X0334518Y0481548D01*
X0335663Y0481733D01*
X0336812Y0481889D01*
X0337964Y0482017D01*
X0339120Y0482116D01*
X0340277Y0482187D01*
X0341436Y0482230D01*
X0342595Y0482244D01*
X0343754Y0482230D01*
X0344913Y0482187D01*
X0346070Y0482116D01*
X0347226Y0482017D01*
X0348378Y0481889D01*
X0349527Y0481733D01*
X0350672Y0481548D01*
X0351812Y0481336D01*
X0352946Y0481096D01*
X0354074Y0480828D01*
X0355196Y0480533D01*
X0356309Y0480210D01*
X0357415Y0479860D01*
X0358511Y0479482D01*
X0359598Y0479078D01*
X0360674Y0478648D01*
X0361740Y0478191D01*
X0362794Y0477708D01*
X0363836Y0477199D01*
X0364866Y0476665D01*
X0365881Y0476106D01*
X0366883Y0475523D01*
X0367870Y0474914D01*
X0368842Y0474282D01*
X0369798Y0473626D01*
X0370738Y0472947D01*
X0371661Y0472245D01*
X0372566Y0471520D01*
X0373453Y0470774D01*
X0374322Y0470005D01*
X0375172Y0469216D01*
X0376002Y0468407D01*
X0376811Y0467577D01*
X0377600Y0466727D01*
X0378369Y0465858D01*
X0379115Y0464971D01*
X0379840Y0464066D01*
X0380542Y0463143D01*
X0381221Y0462203D01*
X0381877Y0461247D01*
X0382509Y0460275D01*
X0383118Y0459288D01*
X0383701Y0458286D01*
X0384260Y0457271D01*
X0384794Y0456241D01*
X0385303Y0455199D01*
X0385786Y0454145D01*
X0386243Y0453079D01*
X0386673Y0452003D01*
X0387077Y0450916D01*
X0387455Y0449820D01*
X0387805Y0448714D01*
X0388128Y0447601D01*
X0388423Y0446479D01*
X0388691Y0445351D01*
X0388931Y0444217D01*
X0389143Y0443077D01*
X0389328Y0441932D01*
X0389484Y0440783D01*
X0389612Y0439631D01*
X0389711Y0438475D01*
X0389782Y0437318D01*
X0389825Y0436159D01*
X0389839Y0435000D01*
X0389825Y0433841D01*
X0389782Y0432682D01*
X0389711Y0431525D01*
X0389612Y0430369D01*
X0389484Y0429217D01*
X0389328Y0428068D01*
X0389143Y0426923D01*
X0388931Y0425783D01*
X0388691Y0424649D01*
X0388423Y0423521D01*
X0388128Y0422399D01*
X0387805Y0421286D01*
X0387455Y0420180D01*
X0387077Y0419084D01*
X0386673Y0417997D01*
X0386243Y0416921D01*
X0385786Y0415855D01*
X0385303Y0414801D01*
X0384794Y0413759D01*
X0384260Y0412729D01*
X0383701Y0411714D01*
X0383118Y0410712D01*
X0382509Y0409725D01*
X0381877Y0408753D01*
X0381221Y0407797D01*
X0380542Y0406857D01*
X0379840Y0405934D01*
X0379115Y0405029D01*
X0378369Y0404142D01*
X0377600Y0403273D01*
X0376811Y0402423D01*
X0376002Y0401593D01*
X0375172Y0400784D01*
X0374322Y0399995D01*
X0373453Y0399226D01*
X0372566Y0398480D01*
X0371661Y0397755D01*
X0370738Y0397053D01*
X0369798Y0396374D01*
X0368842Y0395718D01*
X0367870Y0395086D01*
X0366883Y0394477D01*
X0365881Y0393894D01*
X0364866Y0393335D01*
X0363836Y0392801D01*
X0362794Y0392292D01*
X0361740Y0391809D01*
X0360674Y0391352D01*
X0359598Y0390922D01*
X0358511Y0390518D01*
X0357415Y0390140D01*
X0356309Y0389790D01*
X0355196Y0389467D01*
X0354074Y0389172D01*
X0352946Y0388904D01*
X0351812Y0388664D01*
X0350672Y0388452D01*
X0349527Y0388267D01*
X0348378Y0388111D01*
X0347226Y0387983D01*
X0346070Y0387884D01*
X0344913Y0387813D01*
X0343754Y0387770D01*
X0342595Y0387756D01*
X0341436Y0387770D01*
X0340277Y0387813D01*
X0339120Y0387884D01*
X0337964Y0387983D01*
X0336812Y0388111D01*
X0335663Y0388267D01*
X0334518Y0388452D01*
X0333378Y0388664D01*
X0332244Y0388904D01*
X0331116Y0389172D01*
X0329994Y0389467D01*
X0328881Y0389790D01*
X0327775Y0390140D01*
X0326679Y0390518D01*
X0325592Y0390922D01*
X0324516Y0391352D01*
X0323450Y0391809D01*
X0322396Y0392292D01*
X0321354Y0392801D01*
X0320324Y0393335D01*
X0319309Y0393894D01*
X0318307Y0394477D01*
X0317320Y0395086D01*
X0316348Y0395718D01*
X0315392Y0396374D01*
X0314452Y0397053D01*
X0313529Y0397755D01*
X0312624Y0398480D01*
X0311737Y0399226D01*
X0310868Y0399995D01*
X0310018Y0400784D01*
X0309188Y0401593D01*
X0308379Y0402423D01*
X0307590Y0403273D01*
X0306821Y0404142D01*
X0306075Y0405029D01*
X0305350Y0405934D01*
X0304648Y0406857D01*
X0303969Y0407797D01*
X0303313Y0408753D01*
X0302681Y0409725D01*
X0302072Y0410712D01*
X0301489Y0411714D01*
X0300930Y0412729D01*
X0300396Y0413759D01*
X0299887Y0414801D01*
X0299404Y0415855D01*
X0298947Y0416921D01*
X0298517Y0417997D01*
X0298113Y0419084D01*
X0297735Y0420180D01*
X0297385Y0421286D01*
X0297062Y0422399D01*
X0296767Y0423521D01*
X0296499Y0424649D01*
X0296259Y0425783D01*
X0296047Y0426923D01*
X0295862Y0428068D01*
X0295706Y0429217D01*
X0295578Y0430369D01*
X0295479Y0431525D01*
X0295408Y0432682D01*
X0295365Y0433841D01*
X0295351Y0435000D01*
X0374091Y0399567D02*
X0413461Y0399567D01*
X0413461Y0370433D02*
X0374091Y0370433D01*
X0413461Y0370433D02*
X0413461Y0299567D01*
X0374091Y0299567D01*
X0305095Y0335000D02*
X0305106Y0335920D01*
X0305140Y0336840D01*
X0305197Y0337759D01*
X0305276Y0338676D01*
X0305377Y0339590D01*
X0305501Y0340502D01*
X0305647Y0341411D01*
X0305816Y0342316D01*
X0306006Y0343216D01*
X0306219Y0344112D01*
X0306453Y0345002D01*
X0306710Y0345886D01*
X0306988Y0346763D01*
X0307287Y0347633D01*
X0307608Y0348496D01*
X0307950Y0349351D01*
X0308312Y0350197D01*
X0308695Y0351033D01*
X0309099Y0351860D01*
X0309523Y0352677D01*
X0309967Y0353484D01*
X0310430Y0354279D01*
X0310913Y0355062D01*
X0311415Y0355834D01*
X0311936Y0356593D01*
X0312475Y0357339D01*
X0313032Y0358071D01*
X0313607Y0358790D01*
X0314200Y0359494D01*
X0314809Y0360183D01*
X0315436Y0360858D01*
X0316078Y0361517D01*
X0316737Y0362159D01*
X0317412Y0362786D01*
X0318101Y0363395D01*
X0318805Y0363988D01*
X0319524Y0364563D01*
X0320256Y0365120D01*
X0321002Y0365659D01*
X0321761Y0366180D01*
X0322533Y0366682D01*
X0323316Y0367165D01*
X0324111Y0367628D01*
X0324918Y0368072D01*
X0325735Y0368496D01*
X0326562Y0368900D01*
X0327398Y0369283D01*
X0328244Y0369645D01*
X0329099Y0369987D01*
X0329962Y0370308D01*
X0330832Y0370607D01*
X0331709Y0370885D01*
X0332593Y0371142D01*
X0333483Y0371376D01*
X0334379Y0371589D01*
X0335279Y0371779D01*
X0336184Y0371948D01*
X0337093Y0372094D01*
X0338005Y0372218D01*
X0338919Y0372319D01*
X0339836Y0372398D01*
X0340755Y0372455D01*
X0341675Y0372489D01*
X0342595Y0372500D01*
X0343515Y0372489D01*
X0344435Y0372455D01*
X0345354Y0372398D01*
X0346271Y0372319D01*
X0347185Y0372218D01*
X0348097Y0372094D01*
X0349006Y0371948D01*
X0349911Y0371779D01*
X0350811Y0371589D01*
X0351707Y0371376D01*
X0352597Y0371142D01*
X0353481Y0370885D01*
X0354358Y0370607D01*
X0355228Y0370308D01*
X0356091Y0369987D01*
X0356946Y0369645D01*
X0357792Y0369283D01*
X0358628Y0368900D01*
X0359455Y0368496D01*
X0360272Y0368072D01*
X0361079Y0367628D01*
X0361874Y0367165D01*
X0362657Y0366682D01*
X0363429Y0366180D01*
X0364188Y0365659D01*
X0364934Y0365120D01*
X0365666Y0364563D01*
X0366385Y0363988D01*
X0367089Y0363395D01*
X0367778Y0362786D01*
X0368453Y0362159D01*
X0369112Y0361517D01*
X0369754Y0360858D01*
X0370381Y0360183D01*
X0370990Y0359494D01*
X0371583Y0358790D01*
X0372158Y0358071D01*
X0372715Y0357339D01*
X0373254Y0356593D01*
X0373775Y0355834D01*
X0374277Y0355062D01*
X0374760Y0354279D01*
X0375223Y0353484D01*
X0375667Y0352677D01*
X0376091Y0351860D01*
X0376495Y0351033D01*
X0376878Y0350197D01*
X0377240Y0349351D01*
X0377582Y0348496D01*
X0377903Y0347633D01*
X0378202Y0346763D01*
X0378480Y0345886D01*
X0378737Y0345002D01*
X0378971Y0344112D01*
X0379184Y0343216D01*
X0379374Y0342316D01*
X0379543Y0341411D01*
X0379689Y0340502D01*
X0379813Y0339590D01*
X0379914Y0338676D01*
X0379993Y0337759D01*
X0380050Y0336840D01*
X0380084Y0335920D01*
X0380095Y0335000D01*
X0380084Y0334080D01*
X0380050Y0333160D01*
X0379993Y0332241D01*
X0379914Y0331324D01*
X0379813Y0330410D01*
X0379689Y0329498D01*
X0379543Y0328589D01*
X0379374Y0327684D01*
X0379184Y0326784D01*
X0378971Y0325888D01*
X0378737Y0324998D01*
X0378480Y0324114D01*
X0378202Y0323237D01*
X0377903Y0322367D01*
X0377582Y0321504D01*
X0377240Y0320649D01*
X0376878Y0319803D01*
X0376495Y0318967D01*
X0376091Y0318140D01*
X0375667Y0317323D01*
X0375223Y0316516D01*
X0374760Y0315721D01*
X0374277Y0314938D01*
X0373775Y0314166D01*
X0373254Y0313407D01*
X0372715Y0312661D01*
X0372158Y0311929D01*
X0371583Y0311210D01*
X0370990Y0310506D01*
X0370381Y0309817D01*
X0369754Y0309142D01*
X0369112Y0308483D01*
X0368453Y0307841D01*
X0367778Y0307214D01*
X0367089Y0306605D01*
X0366385Y0306012D01*
X0365666Y0305437D01*
X0364934Y0304880D01*
X0364188Y0304341D01*
X0363429Y0303820D01*
X0362657Y0303318D01*
X0361874Y0302835D01*
X0361079Y0302372D01*
X0360272Y0301928D01*
X0359455Y0301504D01*
X0358628Y0301100D01*
X0357792Y0300717D01*
X0356946Y0300355D01*
X0356091Y0300013D01*
X0355228Y0299692D01*
X0354358Y0299393D01*
X0353481Y0299115D01*
X0352597Y0298858D01*
X0351707Y0298624D01*
X0350811Y0298411D01*
X0349911Y0298221D01*
X0349006Y0298052D01*
X0348097Y0297906D01*
X0347185Y0297782D01*
X0346271Y0297681D01*
X0345354Y0297602D01*
X0344435Y0297545D01*
X0343515Y0297511D01*
X0342595Y0297500D01*
X0341675Y0297511D01*
X0340755Y0297545D01*
X0339836Y0297602D01*
X0338919Y0297681D01*
X0338005Y0297782D01*
X0337093Y0297906D01*
X0336184Y0298052D01*
X0335279Y0298221D01*
X0334379Y0298411D01*
X0333483Y0298624D01*
X0332593Y0298858D01*
X0331709Y0299115D01*
X0330832Y0299393D01*
X0329962Y0299692D01*
X0329099Y0300013D01*
X0328244Y0300355D01*
X0327398Y0300717D01*
X0326562Y0301100D01*
X0325735Y0301504D01*
X0324918Y0301928D01*
X0324111Y0302372D01*
X0323316Y0302835D01*
X0322533Y0303318D01*
X0321761Y0303820D01*
X0321002Y0304341D01*
X0320256Y0304880D01*
X0319524Y0305437D01*
X0318805Y0306012D01*
X0318101Y0306605D01*
X0317412Y0307214D01*
X0316737Y0307841D01*
X0316078Y0308483D01*
X0315436Y0309142D01*
X0314809Y0309817D01*
X0314200Y0310506D01*
X0313607Y0311210D01*
X0313032Y0311929D01*
X0312475Y0312661D01*
X0311936Y0313407D01*
X0311415Y0314166D01*
X0310913Y0314938D01*
X0310430Y0315721D01*
X0309967Y0316516D01*
X0309523Y0317323D01*
X0309099Y0318140D01*
X0308695Y0318967D01*
X0308312Y0319803D01*
X0307950Y0320649D01*
X0307608Y0321504D01*
X0307287Y0322367D01*
X0306988Y0323237D01*
X0306710Y0324114D01*
X0306453Y0324998D01*
X0306219Y0325888D01*
X0306006Y0326784D01*
X0305816Y0327684D01*
X0305647Y0328589D01*
X0305501Y0329498D01*
X0305377Y0330410D01*
X0305276Y0331324D01*
X0305197Y0332241D01*
X0305140Y0333160D01*
X0305106Y0334080D01*
X0305095Y0335000D01*
X0295351Y0335000D02*
X0295365Y0336159D01*
X0295408Y0337318D01*
X0295479Y0338475D01*
X0295578Y0339631D01*
X0295706Y0340783D01*
X0295862Y0341932D01*
X0296047Y0343077D01*
X0296259Y0344217D01*
X0296499Y0345351D01*
X0296767Y0346479D01*
X0297062Y0347601D01*
X0297385Y0348714D01*
X0297735Y0349820D01*
X0298113Y0350916D01*
X0298517Y0352003D01*
X0298947Y0353079D01*
X0299404Y0354145D01*
X0299887Y0355199D01*
X0300396Y0356241D01*
X0300930Y0357271D01*
X0301489Y0358286D01*
X0302072Y0359288D01*
X0302681Y0360275D01*
X0303313Y0361247D01*
X0303969Y0362203D01*
X0304648Y0363143D01*
X0305350Y0364066D01*
X0306075Y0364971D01*
X0306821Y0365858D01*
X0307590Y0366727D01*
X0308379Y0367577D01*
X0309188Y0368407D01*
X0310018Y0369216D01*
X0310868Y0370005D01*
X0311737Y0370774D01*
X0312624Y0371520D01*
X0313529Y0372245D01*
X0314452Y0372947D01*
X0315392Y0373626D01*
X0316348Y0374282D01*
X0317320Y0374914D01*
X0318307Y0375523D01*
X0319309Y0376106D01*
X0320324Y0376665D01*
X0321354Y0377199D01*
X0322396Y0377708D01*
X0323450Y0378191D01*
X0324516Y0378648D01*
X0325592Y0379078D01*
X0326679Y0379482D01*
X0327775Y0379860D01*
X0328881Y0380210D01*
X0329994Y0380533D01*
X0331116Y0380828D01*
X0332244Y0381096D01*
X0333378Y0381336D01*
X0334518Y0381548D01*
X0335663Y0381733D01*
X0336812Y0381889D01*
X0337964Y0382017D01*
X0339120Y0382116D01*
X0340277Y0382187D01*
X0341436Y0382230D01*
X0342595Y0382244D01*
X0343754Y0382230D01*
X0344913Y0382187D01*
X0346070Y0382116D01*
X0347226Y0382017D01*
X0348378Y0381889D01*
X0349527Y0381733D01*
X0350672Y0381548D01*
X0351812Y0381336D01*
X0352946Y0381096D01*
X0354074Y0380828D01*
X0355196Y0380533D01*
X0356309Y0380210D01*
X0357415Y0379860D01*
X0358511Y0379482D01*
X0359598Y0379078D01*
X0360674Y0378648D01*
X0361740Y0378191D01*
X0362794Y0377708D01*
X0363836Y0377199D01*
X0364866Y0376665D01*
X0365881Y0376106D01*
X0366883Y0375523D01*
X0367870Y0374914D01*
X0368842Y0374282D01*
X0369798Y0373626D01*
X0370738Y0372947D01*
X0371661Y0372245D01*
X0372566Y0371520D01*
X0373453Y0370774D01*
X0374322Y0370005D01*
X0375172Y0369216D01*
X0376002Y0368407D01*
X0376811Y0367577D01*
X0377600Y0366727D01*
X0378369Y0365858D01*
X0379115Y0364971D01*
X0379840Y0364066D01*
X0380542Y0363143D01*
X0381221Y0362203D01*
X0381877Y0361247D01*
X0382509Y0360275D01*
X0383118Y0359288D01*
X0383701Y0358286D01*
X0384260Y0357271D01*
X0384794Y0356241D01*
X0385303Y0355199D01*
X0385786Y0354145D01*
X0386243Y0353079D01*
X0386673Y0352003D01*
X0387077Y0350916D01*
X0387455Y0349820D01*
X0387805Y0348714D01*
X0388128Y0347601D01*
X0388423Y0346479D01*
X0388691Y0345351D01*
X0388931Y0344217D01*
X0389143Y0343077D01*
X0389328Y0341932D01*
X0389484Y0340783D01*
X0389612Y0339631D01*
X0389711Y0338475D01*
X0389782Y0337318D01*
X0389825Y0336159D01*
X0389839Y0335000D01*
X0389825Y0333841D01*
X0389782Y0332682D01*
X0389711Y0331525D01*
X0389612Y0330369D01*
X0389484Y0329217D01*
X0389328Y0328068D01*
X0389143Y0326923D01*
X0388931Y0325783D01*
X0388691Y0324649D01*
X0388423Y0323521D01*
X0388128Y0322399D01*
X0387805Y0321286D01*
X0387455Y0320180D01*
X0387077Y0319084D01*
X0386673Y0317997D01*
X0386243Y0316921D01*
X0385786Y0315855D01*
X0385303Y0314801D01*
X0384794Y0313759D01*
X0384260Y0312729D01*
X0383701Y0311714D01*
X0383118Y0310712D01*
X0382509Y0309725D01*
X0381877Y0308753D01*
X0381221Y0307797D01*
X0380542Y0306857D01*
X0379840Y0305934D01*
X0379115Y0305029D01*
X0378369Y0304142D01*
X0377600Y0303273D01*
X0376811Y0302423D01*
X0376002Y0301593D01*
X0375172Y0300784D01*
X0374322Y0299995D01*
X0373453Y0299226D01*
X0372566Y0298480D01*
X0371661Y0297755D01*
X0370738Y0297053D01*
X0369798Y0296374D01*
X0368842Y0295718D01*
X0367870Y0295086D01*
X0366883Y0294477D01*
X0365881Y0293894D01*
X0364866Y0293335D01*
X0363836Y0292801D01*
X0362794Y0292292D01*
X0361740Y0291809D01*
X0360674Y0291352D01*
X0359598Y0290922D01*
X0358511Y0290518D01*
X0357415Y0290140D01*
X0356309Y0289790D01*
X0355196Y0289467D01*
X0354074Y0289172D01*
X0352946Y0288904D01*
X0351812Y0288664D01*
X0350672Y0288452D01*
X0349527Y0288267D01*
X0348378Y0288111D01*
X0347226Y0287983D01*
X0346070Y0287884D01*
X0344913Y0287813D01*
X0343754Y0287770D01*
X0342595Y0287756D01*
X0341436Y0287770D01*
X0340277Y0287813D01*
X0339120Y0287884D01*
X0337964Y0287983D01*
X0336812Y0288111D01*
X0335663Y0288267D01*
X0334518Y0288452D01*
X0333378Y0288664D01*
X0332244Y0288904D01*
X0331116Y0289172D01*
X0329994Y0289467D01*
X0328881Y0289790D01*
X0327775Y0290140D01*
X0326679Y0290518D01*
X0325592Y0290922D01*
X0324516Y0291352D01*
X0323450Y0291809D01*
X0322396Y0292292D01*
X0321354Y0292801D01*
X0320324Y0293335D01*
X0319309Y0293894D01*
X0318307Y0294477D01*
X0317320Y0295086D01*
X0316348Y0295718D01*
X0315392Y0296374D01*
X0314452Y0297053D01*
X0313529Y0297755D01*
X0312624Y0298480D01*
X0311737Y0299226D01*
X0310868Y0299995D01*
X0310018Y0300784D01*
X0309188Y0301593D01*
X0308379Y0302423D01*
X0307590Y0303273D01*
X0306821Y0304142D01*
X0306075Y0305029D01*
X0305350Y0305934D01*
X0304648Y0306857D01*
X0303969Y0307797D01*
X0303313Y0308753D01*
X0302681Y0309725D01*
X0302072Y0310712D01*
X0301489Y0311714D01*
X0300930Y0312729D01*
X0300396Y0313759D01*
X0299887Y0314801D01*
X0299404Y0315855D01*
X0298947Y0316921D01*
X0298517Y0317997D01*
X0298113Y0319084D01*
X0297735Y0320180D01*
X0297385Y0321286D01*
X0297062Y0322399D01*
X0296767Y0323521D01*
X0296499Y0324649D01*
X0296259Y0325783D01*
X0296047Y0326923D01*
X0295862Y0328068D01*
X0295706Y0329217D01*
X0295578Y0330369D01*
X0295479Y0331525D01*
X0295408Y0332682D01*
X0295365Y0333841D01*
X0295351Y0335000D01*
X0455095Y0335000D02*
X0455106Y0335920D01*
X0455140Y0336840D01*
X0455197Y0337759D01*
X0455276Y0338676D01*
X0455377Y0339590D01*
X0455501Y0340502D01*
X0455647Y0341411D01*
X0455816Y0342316D01*
X0456006Y0343216D01*
X0456219Y0344112D01*
X0456453Y0345002D01*
X0456710Y0345886D01*
X0456988Y0346763D01*
X0457287Y0347633D01*
X0457608Y0348496D01*
X0457950Y0349351D01*
X0458312Y0350197D01*
X0458695Y0351033D01*
X0459099Y0351860D01*
X0459523Y0352677D01*
X0459967Y0353484D01*
X0460430Y0354279D01*
X0460913Y0355062D01*
X0461415Y0355834D01*
X0461936Y0356593D01*
X0462475Y0357339D01*
X0463032Y0358071D01*
X0463607Y0358790D01*
X0464200Y0359494D01*
X0464809Y0360183D01*
X0465436Y0360858D01*
X0466078Y0361517D01*
X0466737Y0362159D01*
X0467412Y0362786D01*
X0468101Y0363395D01*
X0468805Y0363988D01*
X0469524Y0364563D01*
X0470256Y0365120D01*
X0471002Y0365659D01*
X0471761Y0366180D01*
X0472533Y0366682D01*
X0473316Y0367165D01*
X0474111Y0367628D01*
X0474918Y0368072D01*
X0475735Y0368496D01*
X0476562Y0368900D01*
X0477398Y0369283D01*
X0478244Y0369645D01*
X0479099Y0369987D01*
X0479962Y0370308D01*
X0480832Y0370607D01*
X0481709Y0370885D01*
X0482593Y0371142D01*
X0483483Y0371376D01*
X0484379Y0371589D01*
X0485279Y0371779D01*
X0486184Y0371948D01*
X0487093Y0372094D01*
X0488005Y0372218D01*
X0488919Y0372319D01*
X0489836Y0372398D01*
X0490755Y0372455D01*
X0491675Y0372489D01*
X0492595Y0372500D01*
X0493515Y0372489D01*
X0494435Y0372455D01*
X0495354Y0372398D01*
X0496271Y0372319D01*
X0497185Y0372218D01*
X0498097Y0372094D01*
X0499006Y0371948D01*
X0499911Y0371779D01*
X0500811Y0371589D01*
X0501707Y0371376D01*
X0502597Y0371142D01*
X0503481Y0370885D01*
X0504358Y0370607D01*
X0505228Y0370308D01*
X0506091Y0369987D01*
X0506946Y0369645D01*
X0507792Y0369283D01*
X0508628Y0368900D01*
X0509455Y0368496D01*
X0510272Y0368072D01*
X0511079Y0367628D01*
X0511874Y0367165D01*
X0512657Y0366682D01*
X0513429Y0366180D01*
X0514188Y0365659D01*
X0514934Y0365120D01*
X0515666Y0364563D01*
X0516385Y0363988D01*
X0517089Y0363395D01*
X0517778Y0362786D01*
X0518453Y0362159D01*
X0519112Y0361517D01*
X0519754Y0360858D01*
X0520381Y0360183D01*
X0520990Y0359494D01*
X0521583Y0358790D01*
X0522158Y0358071D01*
X0522715Y0357339D01*
X0523254Y0356593D01*
X0523775Y0355834D01*
X0524277Y0355062D01*
X0524760Y0354279D01*
X0525223Y0353484D01*
X0525667Y0352677D01*
X0526091Y0351860D01*
X0526495Y0351033D01*
X0526878Y0350197D01*
X0527240Y0349351D01*
X0527582Y0348496D01*
X0527903Y0347633D01*
X0528202Y0346763D01*
X0528480Y0345886D01*
X0528737Y0345002D01*
X0528971Y0344112D01*
X0529184Y0343216D01*
X0529374Y0342316D01*
X0529543Y0341411D01*
X0529689Y0340502D01*
X0529813Y0339590D01*
X0529914Y0338676D01*
X0529993Y0337759D01*
X0530050Y0336840D01*
X0530084Y0335920D01*
X0530095Y0335000D01*
X0530084Y0334080D01*
X0530050Y0333160D01*
X0529993Y0332241D01*
X0529914Y0331324D01*
X0529813Y0330410D01*
X0529689Y0329498D01*
X0529543Y0328589D01*
X0529374Y0327684D01*
X0529184Y0326784D01*
X0528971Y0325888D01*
X0528737Y0324998D01*
X0528480Y0324114D01*
X0528202Y0323237D01*
X0527903Y0322367D01*
X0527582Y0321504D01*
X0527240Y0320649D01*
X0526878Y0319803D01*
X0526495Y0318967D01*
X0526091Y0318140D01*
X0525667Y0317323D01*
X0525223Y0316516D01*
X0524760Y0315721D01*
X0524277Y0314938D01*
X0523775Y0314166D01*
X0523254Y0313407D01*
X0522715Y0312661D01*
X0522158Y0311929D01*
X0521583Y0311210D01*
X0520990Y0310506D01*
X0520381Y0309817D01*
X0519754Y0309142D01*
X0519112Y0308483D01*
X0518453Y0307841D01*
X0517778Y0307214D01*
X0517089Y0306605D01*
X0516385Y0306012D01*
X0515666Y0305437D01*
X0514934Y0304880D01*
X0514188Y0304341D01*
X0513429Y0303820D01*
X0512657Y0303318D01*
X0511874Y0302835D01*
X0511079Y0302372D01*
X0510272Y0301928D01*
X0509455Y0301504D01*
X0508628Y0301100D01*
X0507792Y0300717D01*
X0506946Y0300355D01*
X0506091Y0300013D01*
X0505228Y0299692D01*
X0504358Y0299393D01*
X0503481Y0299115D01*
X0502597Y0298858D01*
X0501707Y0298624D01*
X0500811Y0298411D01*
X0499911Y0298221D01*
X0499006Y0298052D01*
X0498097Y0297906D01*
X0497185Y0297782D01*
X0496271Y0297681D01*
X0495354Y0297602D01*
X0494435Y0297545D01*
X0493515Y0297511D01*
X0492595Y0297500D01*
X0491675Y0297511D01*
X0490755Y0297545D01*
X0489836Y0297602D01*
X0488919Y0297681D01*
X0488005Y0297782D01*
X0487093Y0297906D01*
X0486184Y0298052D01*
X0485279Y0298221D01*
X0484379Y0298411D01*
X0483483Y0298624D01*
X0482593Y0298858D01*
X0481709Y0299115D01*
X0480832Y0299393D01*
X0479962Y0299692D01*
X0479099Y0300013D01*
X0478244Y0300355D01*
X0477398Y0300717D01*
X0476562Y0301100D01*
X0475735Y0301504D01*
X0474918Y0301928D01*
X0474111Y0302372D01*
X0473316Y0302835D01*
X0472533Y0303318D01*
X0471761Y0303820D01*
X0471002Y0304341D01*
X0470256Y0304880D01*
X0469524Y0305437D01*
X0468805Y0306012D01*
X0468101Y0306605D01*
X0467412Y0307214D01*
X0466737Y0307841D01*
X0466078Y0308483D01*
X0465436Y0309142D01*
X0464809Y0309817D01*
X0464200Y0310506D01*
X0463607Y0311210D01*
X0463032Y0311929D01*
X0462475Y0312661D01*
X0461936Y0313407D01*
X0461415Y0314166D01*
X0460913Y0314938D01*
X0460430Y0315721D01*
X0459967Y0316516D01*
X0459523Y0317323D01*
X0459099Y0318140D01*
X0458695Y0318967D01*
X0458312Y0319803D01*
X0457950Y0320649D01*
X0457608Y0321504D01*
X0457287Y0322367D01*
X0456988Y0323237D01*
X0456710Y0324114D01*
X0456453Y0324998D01*
X0456219Y0325888D01*
X0456006Y0326784D01*
X0455816Y0327684D01*
X0455647Y0328589D01*
X0455501Y0329498D01*
X0455377Y0330410D01*
X0455276Y0331324D01*
X0455197Y0332241D01*
X0455140Y0333160D01*
X0455106Y0334080D01*
X0455095Y0335000D01*
X0445351Y0335000D02*
X0445365Y0336159D01*
X0445408Y0337318D01*
X0445479Y0338475D01*
X0445578Y0339631D01*
X0445706Y0340783D01*
X0445862Y0341932D01*
X0446047Y0343077D01*
X0446259Y0344217D01*
X0446499Y0345351D01*
X0446767Y0346479D01*
X0447062Y0347601D01*
X0447385Y0348714D01*
X0447735Y0349820D01*
X0448113Y0350916D01*
X0448517Y0352003D01*
X0448947Y0353079D01*
X0449404Y0354145D01*
X0449887Y0355199D01*
X0450396Y0356241D01*
X0450930Y0357271D01*
X0451489Y0358286D01*
X0452072Y0359288D01*
X0452681Y0360275D01*
X0453313Y0361247D01*
X0453969Y0362203D01*
X0454648Y0363143D01*
X0455350Y0364066D01*
X0456075Y0364971D01*
X0456821Y0365858D01*
X0457590Y0366727D01*
X0458379Y0367577D01*
X0459188Y0368407D01*
X0460018Y0369216D01*
X0460868Y0370005D01*
X0461737Y0370774D01*
X0462624Y0371520D01*
X0463529Y0372245D01*
X0464452Y0372947D01*
X0465392Y0373626D01*
X0466348Y0374282D01*
X0467320Y0374914D01*
X0468307Y0375523D01*
X0469309Y0376106D01*
X0470324Y0376665D01*
X0471354Y0377199D01*
X0472396Y0377708D01*
X0473450Y0378191D01*
X0474516Y0378648D01*
X0475592Y0379078D01*
X0476679Y0379482D01*
X0477775Y0379860D01*
X0478881Y0380210D01*
X0479994Y0380533D01*
X0481116Y0380828D01*
X0482244Y0381096D01*
X0483378Y0381336D01*
X0484518Y0381548D01*
X0485663Y0381733D01*
X0486812Y0381889D01*
X0487964Y0382017D01*
X0489120Y0382116D01*
X0490277Y0382187D01*
X0491436Y0382230D01*
X0492595Y0382244D01*
X0493754Y0382230D01*
X0494913Y0382187D01*
X0496070Y0382116D01*
X0497226Y0382017D01*
X0498378Y0381889D01*
X0499527Y0381733D01*
X0500672Y0381548D01*
X0501812Y0381336D01*
X0502946Y0381096D01*
X0504074Y0380828D01*
X0505196Y0380533D01*
X0506309Y0380210D01*
X0507415Y0379860D01*
X0508511Y0379482D01*
X0509598Y0379078D01*
X0510674Y0378648D01*
X0511740Y0378191D01*
X0512794Y0377708D01*
X0513836Y0377199D01*
X0514866Y0376665D01*
X0515881Y0376106D01*
X0516883Y0375523D01*
X0517870Y0374914D01*
X0518842Y0374282D01*
X0519798Y0373626D01*
X0520738Y0372947D01*
X0521661Y0372245D01*
X0522566Y0371520D01*
X0523453Y0370774D01*
X0524322Y0370005D01*
X0525172Y0369216D01*
X0526002Y0368407D01*
X0526811Y0367577D01*
X0527600Y0366727D01*
X0528369Y0365858D01*
X0529115Y0364971D01*
X0529840Y0364066D01*
X0530542Y0363143D01*
X0531221Y0362203D01*
X0531877Y0361247D01*
X0532509Y0360275D01*
X0533118Y0359288D01*
X0533701Y0358286D01*
X0534260Y0357271D01*
X0534794Y0356241D01*
X0535303Y0355199D01*
X0535786Y0354145D01*
X0536243Y0353079D01*
X0536673Y0352003D01*
X0537077Y0350916D01*
X0537455Y0349820D01*
X0537805Y0348714D01*
X0538128Y0347601D01*
X0538423Y0346479D01*
X0538691Y0345351D01*
X0538931Y0344217D01*
X0539143Y0343077D01*
X0539328Y0341932D01*
X0539484Y0340783D01*
X0539612Y0339631D01*
X0539711Y0338475D01*
X0539782Y0337318D01*
X0539825Y0336159D01*
X0539839Y0335000D01*
X0539825Y0333841D01*
X0539782Y0332682D01*
X0539711Y0331525D01*
X0539612Y0330369D01*
X0539484Y0329217D01*
X0539328Y0328068D01*
X0539143Y0326923D01*
X0538931Y0325783D01*
X0538691Y0324649D01*
X0538423Y0323521D01*
X0538128Y0322399D01*
X0537805Y0321286D01*
X0537455Y0320180D01*
X0537077Y0319084D01*
X0536673Y0317997D01*
X0536243Y0316921D01*
X0535786Y0315855D01*
X0535303Y0314801D01*
X0534794Y0313759D01*
X0534260Y0312729D01*
X0533701Y0311714D01*
X0533118Y0310712D01*
X0532509Y0309725D01*
X0531877Y0308753D01*
X0531221Y0307797D01*
X0530542Y0306857D01*
X0529840Y0305934D01*
X0529115Y0305029D01*
X0528369Y0304142D01*
X0527600Y0303273D01*
X0526811Y0302423D01*
X0526002Y0301593D01*
X0525172Y0300784D01*
X0524322Y0299995D01*
X0523453Y0299226D01*
X0522566Y0298480D01*
X0521661Y0297755D01*
X0520738Y0297053D01*
X0519798Y0296374D01*
X0518842Y0295718D01*
X0517870Y0295086D01*
X0516883Y0294477D01*
X0515881Y0293894D01*
X0514866Y0293335D01*
X0513836Y0292801D01*
X0512794Y0292292D01*
X0511740Y0291809D01*
X0510674Y0291352D01*
X0509598Y0290922D01*
X0508511Y0290518D01*
X0507415Y0290140D01*
X0506309Y0289790D01*
X0505196Y0289467D01*
X0504074Y0289172D01*
X0502946Y0288904D01*
X0501812Y0288664D01*
X0500672Y0288452D01*
X0499527Y0288267D01*
X0498378Y0288111D01*
X0497226Y0287983D01*
X0496070Y0287884D01*
X0494913Y0287813D01*
X0493754Y0287770D01*
X0492595Y0287756D01*
X0491436Y0287770D01*
X0490277Y0287813D01*
X0489120Y0287884D01*
X0487964Y0287983D01*
X0486812Y0288111D01*
X0485663Y0288267D01*
X0484518Y0288452D01*
X0483378Y0288664D01*
X0482244Y0288904D01*
X0481116Y0289172D01*
X0479994Y0289467D01*
X0478881Y0289790D01*
X0477775Y0290140D01*
X0476679Y0290518D01*
X0475592Y0290922D01*
X0474516Y0291352D01*
X0473450Y0291809D01*
X0472396Y0292292D01*
X0471354Y0292801D01*
X0470324Y0293335D01*
X0469309Y0293894D01*
X0468307Y0294477D01*
X0467320Y0295086D01*
X0466348Y0295718D01*
X0465392Y0296374D01*
X0464452Y0297053D01*
X0463529Y0297755D01*
X0462624Y0298480D01*
X0461737Y0299226D01*
X0460868Y0299995D01*
X0460018Y0300784D01*
X0459188Y0301593D01*
X0458379Y0302423D01*
X0457590Y0303273D01*
X0456821Y0304142D01*
X0456075Y0305029D01*
X0455350Y0305934D01*
X0454648Y0306857D01*
X0453969Y0307797D01*
X0453313Y0308753D01*
X0452681Y0309725D01*
X0452072Y0310712D01*
X0451489Y0311714D01*
X0450930Y0312729D01*
X0450396Y0313759D01*
X0449887Y0314801D01*
X0449404Y0315855D01*
X0448947Y0316921D01*
X0448517Y0317997D01*
X0448113Y0319084D01*
X0447735Y0320180D01*
X0447385Y0321286D01*
X0447062Y0322399D01*
X0446767Y0323521D01*
X0446499Y0324649D01*
X0446259Y0325783D01*
X0446047Y0326923D01*
X0445862Y0328068D01*
X0445706Y0329217D01*
X0445578Y0330369D01*
X0445479Y0331525D01*
X0445408Y0332682D01*
X0445365Y0333841D01*
X0445351Y0335000D01*
X0524091Y0299567D02*
X0563461Y0299567D01*
X0563461Y0370433D01*
X0524091Y0370433D01*
X0524091Y0399567D02*
X0563461Y0399567D01*
X0605095Y0335000D02*
X0605106Y0335920D01*
X0605140Y0336840D01*
X0605197Y0337759D01*
X0605276Y0338676D01*
X0605377Y0339590D01*
X0605501Y0340502D01*
X0605647Y0341411D01*
X0605816Y0342316D01*
X0606006Y0343216D01*
X0606219Y0344112D01*
X0606453Y0345002D01*
X0606710Y0345886D01*
X0606988Y0346763D01*
X0607287Y0347633D01*
X0607608Y0348496D01*
X0607950Y0349351D01*
X0608312Y0350197D01*
X0608695Y0351033D01*
X0609099Y0351860D01*
X0609523Y0352677D01*
X0609967Y0353484D01*
X0610430Y0354279D01*
X0610913Y0355062D01*
X0611415Y0355834D01*
X0611936Y0356593D01*
X0612475Y0357339D01*
X0613032Y0358071D01*
X0613607Y0358790D01*
X0614200Y0359494D01*
X0614809Y0360183D01*
X0615436Y0360858D01*
X0616078Y0361517D01*
X0616737Y0362159D01*
X0617412Y0362786D01*
X0618101Y0363395D01*
X0618805Y0363988D01*
X0619524Y0364563D01*
X0620256Y0365120D01*
X0621002Y0365659D01*
X0621761Y0366180D01*
X0622533Y0366682D01*
X0623316Y0367165D01*
X0624111Y0367628D01*
X0624918Y0368072D01*
X0625735Y0368496D01*
X0626562Y0368900D01*
X0627398Y0369283D01*
X0628244Y0369645D01*
X0629099Y0369987D01*
X0629962Y0370308D01*
X0630832Y0370607D01*
X0631709Y0370885D01*
X0632593Y0371142D01*
X0633483Y0371376D01*
X0634379Y0371589D01*
X0635279Y0371779D01*
X0636184Y0371948D01*
X0637093Y0372094D01*
X0638005Y0372218D01*
X0638919Y0372319D01*
X0639836Y0372398D01*
X0640755Y0372455D01*
X0641675Y0372489D01*
X0642595Y0372500D01*
X0643515Y0372489D01*
X0644435Y0372455D01*
X0645354Y0372398D01*
X0646271Y0372319D01*
X0647185Y0372218D01*
X0648097Y0372094D01*
X0649006Y0371948D01*
X0649911Y0371779D01*
X0650811Y0371589D01*
X0651707Y0371376D01*
X0652597Y0371142D01*
X0653481Y0370885D01*
X0654358Y0370607D01*
X0655228Y0370308D01*
X0656091Y0369987D01*
X0656946Y0369645D01*
X0657792Y0369283D01*
X0658628Y0368900D01*
X0659455Y0368496D01*
X0660272Y0368072D01*
X0661079Y0367628D01*
X0661874Y0367165D01*
X0662657Y0366682D01*
X0663429Y0366180D01*
X0664188Y0365659D01*
X0664934Y0365120D01*
X0665666Y0364563D01*
X0666385Y0363988D01*
X0667089Y0363395D01*
X0667778Y0362786D01*
X0668453Y0362159D01*
X0669112Y0361517D01*
X0669754Y0360858D01*
X0670381Y0360183D01*
X0670990Y0359494D01*
X0671583Y0358790D01*
X0672158Y0358071D01*
X0672715Y0357339D01*
X0673254Y0356593D01*
X0673775Y0355834D01*
X0674277Y0355062D01*
X0674760Y0354279D01*
X0675223Y0353484D01*
X0675667Y0352677D01*
X0676091Y0351860D01*
X0676495Y0351033D01*
X0676878Y0350197D01*
X0677240Y0349351D01*
X0677582Y0348496D01*
X0677903Y0347633D01*
X0678202Y0346763D01*
X0678480Y0345886D01*
X0678737Y0345002D01*
X0678971Y0344112D01*
X0679184Y0343216D01*
X0679374Y0342316D01*
X0679543Y0341411D01*
X0679689Y0340502D01*
X0679813Y0339590D01*
X0679914Y0338676D01*
X0679993Y0337759D01*
X0680050Y0336840D01*
X0680084Y0335920D01*
X0680095Y0335000D01*
X0680084Y0334080D01*
X0680050Y0333160D01*
X0679993Y0332241D01*
X0679914Y0331324D01*
X0679813Y0330410D01*
X0679689Y0329498D01*
X0679543Y0328589D01*
X0679374Y0327684D01*
X0679184Y0326784D01*
X0678971Y0325888D01*
X0678737Y0324998D01*
X0678480Y0324114D01*
X0678202Y0323237D01*
X0677903Y0322367D01*
X0677582Y0321504D01*
X0677240Y0320649D01*
X0676878Y0319803D01*
X0676495Y0318967D01*
X0676091Y0318140D01*
X0675667Y0317323D01*
X0675223Y0316516D01*
X0674760Y0315721D01*
X0674277Y0314938D01*
X0673775Y0314166D01*
X0673254Y0313407D01*
X0672715Y0312661D01*
X0672158Y0311929D01*
X0671583Y0311210D01*
X0670990Y0310506D01*
X0670381Y0309817D01*
X0669754Y0309142D01*
X0669112Y0308483D01*
X0668453Y0307841D01*
X0667778Y0307214D01*
X0667089Y0306605D01*
X0666385Y0306012D01*
X0665666Y0305437D01*
X0664934Y0304880D01*
X0664188Y0304341D01*
X0663429Y0303820D01*
X0662657Y0303318D01*
X0661874Y0302835D01*
X0661079Y0302372D01*
X0660272Y0301928D01*
X0659455Y0301504D01*
X0658628Y0301100D01*
X0657792Y0300717D01*
X0656946Y0300355D01*
X0656091Y0300013D01*
X0655228Y0299692D01*
X0654358Y0299393D01*
X0653481Y0299115D01*
X0652597Y0298858D01*
X0651707Y0298624D01*
X0650811Y0298411D01*
X0649911Y0298221D01*
X0649006Y0298052D01*
X0648097Y0297906D01*
X0647185Y0297782D01*
X0646271Y0297681D01*
X0645354Y0297602D01*
X0644435Y0297545D01*
X0643515Y0297511D01*
X0642595Y0297500D01*
X0641675Y0297511D01*
X0640755Y0297545D01*
X0639836Y0297602D01*
X0638919Y0297681D01*
X0638005Y0297782D01*
X0637093Y0297906D01*
X0636184Y0298052D01*
X0635279Y0298221D01*
X0634379Y0298411D01*
X0633483Y0298624D01*
X0632593Y0298858D01*
X0631709Y0299115D01*
X0630832Y0299393D01*
X0629962Y0299692D01*
X0629099Y0300013D01*
X0628244Y0300355D01*
X0627398Y0300717D01*
X0626562Y0301100D01*
X0625735Y0301504D01*
X0624918Y0301928D01*
X0624111Y0302372D01*
X0623316Y0302835D01*
X0622533Y0303318D01*
X0621761Y0303820D01*
X0621002Y0304341D01*
X0620256Y0304880D01*
X0619524Y0305437D01*
X0618805Y0306012D01*
X0618101Y0306605D01*
X0617412Y0307214D01*
X0616737Y0307841D01*
X0616078Y0308483D01*
X0615436Y0309142D01*
X0614809Y0309817D01*
X0614200Y0310506D01*
X0613607Y0311210D01*
X0613032Y0311929D01*
X0612475Y0312661D01*
X0611936Y0313407D01*
X0611415Y0314166D01*
X0610913Y0314938D01*
X0610430Y0315721D01*
X0609967Y0316516D01*
X0609523Y0317323D01*
X0609099Y0318140D01*
X0608695Y0318967D01*
X0608312Y0319803D01*
X0607950Y0320649D01*
X0607608Y0321504D01*
X0607287Y0322367D01*
X0606988Y0323237D01*
X0606710Y0324114D01*
X0606453Y0324998D01*
X0606219Y0325888D01*
X0606006Y0326784D01*
X0605816Y0327684D01*
X0605647Y0328589D01*
X0605501Y0329498D01*
X0605377Y0330410D01*
X0605276Y0331324D01*
X0605197Y0332241D01*
X0605140Y0333160D01*
X0605106Y0334080D01*
X0605095Y0335000D01*
X0595351Y0335000D02*
X0595365Y0336159D01*
X0595408Y0337318D01*
X0595479Y0338475D01*
X0595578Y0339631D01*
X0595706Y0340783D01*
X0595862Y0341932D01*
X0596047Y0343077D01*
X0596259Y0344217D01*
X0596499Y0345351D01*
X0596767Y0346479D01*
X0597062Y0347601D01*
X0597385Y0348714D01*
X0597735Y0349820D01*
X0598113Y0350916D01*
X0598517Y0352003D01*
X0598947Y0353079D01*
X0599404Y0354145D01*
X0599887Y0355199D01*
X0600396Y0356241D01*
X0600930Y0357271D01*
X0601489Y0358286D01*
X0602072Y0359288D01*
X0602681Y0360275D01*
X0603313Y0361247D01*
X0603969Y0362203D01*
X0604648Y0363143D01*
X0605350Y0364066D01*
X0606075Y0364971D01*
X0606821Y0365858D01*
X0607590Y0366727D01*
X0608379Y0367577D01*
X0609188Y0368407D01*
X0610018Y0369216D01*
X0610868Y0370005D01*
X0611737Y0370774D01*
X0612624Y0371520D01*
X0613529Y0372245D01*
X0614452Y0372947D01*
X0615392Y0373626D01*
X0616348Y0374282D01*
X0617320Y0374914D01*
X0618307Y0375523D01*
X0619309Y0376106D01*
X0620324Y0376665D01*
X0621354Y0377199D01*
X0622396Y0377708D01*
X0623450Y0378191D01*
X0624516Y0378648D01*
X0625592Y0379078D01*
X0626679Y0379482D01*
X0627775Y0379860D01*
X0628881Y0380210D01*
X0629994Y0380533D01*
X0631116Y0380828D01*
X0632244Y0381096D01*
X0633378Y0381336D01*
X0634518Y0381548D01*
X0635663Y0381733D01*
X0636812Y0381889D01*
X0637964Y0382017D01*
X0639120Y0382116D01*
X0640277Y0382187D01*
X0641436Y0382230D01*
X0642595Y0382244D01*
X0643754Y0382230D01*
X0644913Y0382187D01*
X0646070Y0382116D01*
X0647226Y0382017D01*
X0648378Y0381889D01*
X0649527Y0381733D01*
X0650672Y0381548D01*
X0651812Y0381336D01*
X0652946Y0381096D01*
X0654074Y0380828D01*
X0655196Y0380533D01*
X0656309Y0380210D01*
X0657415Y0379860D01*
X0658511Y0379482D01*
X0659598Y0379078D01*
X0660674Y0378648D01*
X0661740Y0378191D01*
X0662794Y0377708D01*
X0663836Y0377199D01*
X0664866Y0376665D01*
X0665881Y0376106D01*
X0666883Y0375523D01*
X0667870Y0374914D01*
X0668842Y0374282D01*
X0669798Y0373626D01*
X0670738Y0372947D01*
X0671661Y0372245D01*
X0672566Y0371520D01*
X0673453Y0370774D01*
X0674322Y0370005D01*
X0675172Y0369216D01*
X0676002Y0368407D01*
X0676811Y0367577D01*
X0677600Y0366727D01*
X0678369Y0365858D01*
X0679115Y0364971D01*
X0679840Y0364066D01*
X0680542Y0363143D01*
X0681221Y0362203D01*
X0681877Y0361247D01*
X0682509Y0360275D01*
X0683118Y0359288D01*
X0683701Y0358286D01*
X0684260Y0357271D01*
X0684794Y0356241D01*
X0685303Y0355199D01*
X0685786Y0354145D01*
X0686243Y0353079D01*
X0686673Y0352003D01*
X0687077Y0350916D01*
X0687455Y0349820D01*
X0687805Y0348714D01*
X0688128Y0347601D01*
X0688423Y0346479D01*
X0688691Y0345351D01*
X0688931Y0344217D01*
X0689143Y0343077D01*
X0689328Y0341932D01*
X0689484Y0340783D01*
X0689612Y0339631D01*
X0689711Y0338475D01*
X0689782Y0337318D01*
X0689825Y0336159D01*
X0689839Y0335000D01*
X0689825Y0333841D01*
X0689782Y0332682D01*
X0689711Y0331525D01*
X0689612Y0330369D01*
X0689484Y0329217D01*
X0689328Y0328068D01*
X0689143Y0326923D01*
X0688931Y0325783D01*
X0688691Y0324649D01*
X0688423Y0323521D01*
X0688128Y0322399D01*
X0687805Y0321286D01*
X0687455Y0320180D01*
X0687077Y0319084D01*
X0686673Y0317997D01*
X0686243Y0316921D01*
X0685786Y0315855D01*
X0685303Y0314801D01*
X0684794Y0313759D01*
X0684260Y0312729D01*
X0683701Y0311714D01*
X0683118Y0310712D01*
X0682509Y0309725D01*
X0681877Y0308753D01*
X0681221Y0307797D01*
X0680542Y0306857D01*
X0679840Y0305934D01*
X0679115Y0305029D01*
X0678369Y0304142D01*
X0677600Y0303273D01*
X0676811Y0302423D01*
X0676002Y0301593D01*
X0675172Y0300784D01*
X0674322Y0299995D01*
X0673453Y0299226D01*
X0672566Y0298480D01*
X0671661Y0297755D01*
X0670738Y0297053D01*
X0669798Y0296374D01*
X0668842Y0295718D01*
X0667870Y0295086D01*
X0666883Y0294477D01*
X0665881Y0293894D01*
X0664866Y0293335D01*
X0663836Y0292801D01*
X0662794Y0292292D01*
X0661740Y0291809D01*
X0660674Y0291352D01*
X0659598Y0290922D01*
X0658511Y0290518D01*
X0657415Y0290140D01*
X0656309Y0289790D01*
X0655196Y0289467D01*
X0654074Y0289172D01*
X0652946Y0288904D01*
X0651812Y0288664D01*
X0650672Y0288452D01*
X0649527Y0288267D01*
X0648378Y0288111D01*
X0647226Y0287983D01*
X0646070Y0287884D01*
X0644913Y0287813D01*
X0643754Y0287770D01*
X0642595Y0287756D01*
X0641436Y0287770D01*
X0640277Y0287813D01*
X0639120Y0287884D01*
X0637964Y0287983D01*
X0636812Y0288111D01*
X0635663Y0288267D01*
X0634518Y0288452D01*
X0633378Y0288664D01*
X0632244Y0288904D01*
X0631116Y0289172D01*
X0629994Y0289467D01*
X0628881Y0289790D01*
X0627775Y0290140D01*
X0626679Y0290518D01*
X0625592Y0290922D01*
X0624516Y0291352D01*
X0623450Y0291809D01*
X0622396Y0292292D01*
X0621354Y0292801D01*
X0620324Y0293335D01*
X0619309Y0293894D01*
X0618307Y0294477D01*
X0617320Y0295086D01*
X0616348Y0295718D01*
X0615392Y0296374D01*
X0614452Y0297053D01*
X0613529Y0297755D01*
X0612624Y0298480D01*
X0611737Y0299226D01*
X0610868Y0299995D01*
X0610018Y0300784D01*
X0609188Y0301593D01*
X0608379Y0302423D01*
X0607590Y0303273D01*
X0606821Y0304142D01*
X0606075Y0305029D01*
X0605350Y0305934D01*
X0604648Y0306857D01*
X0603969Y0307797D01*
X0603313Y0308753D01*
X0602681Y0309725D01*
X0602072Y0310712D01*
X0601489Y0311714D01*
X0600930Y0312729D01*
X0600396Y0313759D01*
X0599887Y0314801D01*
X0599404Y0315855D01*
X0598947Y0316921D01*
X0598517Y0317997D01*
X0598113Y0319084D01*
X0597735Y0320180D01*
X0597385Y0321286D01*
X0597062Y0322399D01*
X0596767Y0323521D01*
X0596499Y0324649D01*
X0596259Y0325783D01*
X0596047Y0326923D01*
X0595862Y0328068D01*
X0595706Y0329217D01*
X0595578Y0330369D01*
X0595479Y0331525D01*
X0595408Y0332682D01*
X0595365Y0333841D01*
X0595351Y0335000D01*
X0674091Y0299567D02*
X0713461Y0299567D01*
X0713461Y0370433D01*
X0674091Y0370433D01*
X0674091Y0399567D02*
X0713461Y0399567D01*
X0755095Y0335000D02*
X0755106Y0335920D01*
X0755140Y0336840D01*
X0755197Y0337759D01*
X0755276Y0338676D01*
X0755377Y0339590D01*
X0755501Y0340502D01*
X0755647Y0341411D01*
X0755816Y0342316D01*
X0756006Y0343216D01*
X0756219Y0344112D01*
X0756453Y0345002D01*
X0756710Y0345886D01*
X0756988Y0346763D01*
X0757287Y0347633D01*
X0757608Y0348496D01*
X0757950Y0349351D01*
X0758312Y0350197D01*
X0758695Y0351033D01*
X0759099Y0351860D01*
X0759523Y0352677D01*
X0759967Y0353484D01*
X0760430Y0354279D01*
X0760913Y0355062D01*
X0761415Y0355834D01*
X0761936Y0356593D01*
X0762475Y0357339D01*
X0763032Y0358071D01*
X0763607Y0358790D01*
X0764200Y0359494D01*
X0764809Y0360183D01*
X0765436Y0360858D01*
X0766078Y0361517D01*
X0766737Y0362159D01*
X0767412Y0362786D01*
X0768101Y0363395D01*
X0768805Y0363988D01*
X0769524Y0364563D01*
X0770256Y0365120D01*
X0771002Y0365659D01*
X0771761Y0366180D01*
X0772533Y0366682D01*
X0773316Y0367165D01*
X0774111Y0367628D01*
X0774918Y0368072D01*
X0775735Y0368496D01*
X0776562Y0368900D01*
X0777398Y0369283D01*
X0778244Y0369645D01*
X0779099Y0369987D01*
X0779962Y0370308D01*
X0780832Y0370607D01*
X0781709Y0370885D01*
X0782593Y0371142D01*
X0783483Y0371376D01*
X0784379Y0371589D01*
X0785279Y0371779D01*
X0786184Y0371948D01*
X0787093Y0372094D01*
X0788005Y0372218D01*
X0788919Y0372319D01*
X0789836Y0372398D01*
X0790755Y0372455D01*
X0791675Y0372489D01*
X0792595Y0372500D01*
X0793515Y0372489D01*
X0794435Y0372455D01*
X0795354Y0372398D01*
X0796271Y0372319D01*
X0797185Y0372218D01*
X0798097Y0372094D01*
X0799006Y0371948D01*
X0799911Y0371779D01*
X0800811Y0371589D01*
X0801707Y0371376D01*
X0802597Y0371142D01*
X0803481Y0370885D01*
X0804358Y0370607D01*
X0805228Y0370308D01*
X0806091Y0369987D01*
X0806946Y0369645D01*
X0807792Y0369283D01*
X0808628Y0368900D01*
X0809455Y0368496D01*
X0810272Y0368072D01*
X0811079Y0367628D01*
X0811874Y0367165D01*
X0812657Y0366682D01*
X0813429Y0366180D01*
X0814188Y0365659D01*
X0814934Y0365120D01*
X0815666Y0364563D01*
X0816385Y0363988D01*
X0817089Y0363395D01*
X0817778Y0362786D01*
X0818453Y0362159D01*
X0819112Y0361517D01*
X0819754Y0360858D01*
X0820381Y0360183D01*
X0820990Y0359494D01*
X0821583Y0358790D01*
X0822158Y0358071D01*
X0822715Y0357339D01*
X0823254Y0356593D01*
X0823775Y0355834D01*
X0824277Y0355062D01*
X0824760Y0354279D01*
X0825223Y0353484D01*
X0825667Y0352677D01*
X0826091Y0351860D01*
X0826495Y0351033D01*
X0826878Y0350197D01*
X0827240Y0349351D01*
X0827582Y0348496D01*
X0827903Y0347633D01*
X0828202Y0346763D01*
X0828480Y0345886D01*
X0828737Y0345002D01*
X0828971Y0344112D01*
X0829184Y0343216D01*
X0829374Y0342316D01*
X0829543Y0341411D01*
X0829689Y0340502D01*
X0829813Y0339590D01*
X0829914Y0338676D01*
X0829993Y0337759D01*
X0830050Y0336840D01*
X0830084Y0335920D01*
X0830095Y0335000D01*
X0830084Y0334080D01*
X0830050Y0333160D01*
X0829993Y0332241D01*
X0829914Y0331324D01*
X0829813Y0330410D01*
X0829689Y0329498D01*
X0829543Y0328589D01*
X0829374Y0327684D01*
X0829184Y0326784D01*
X0828971Y0325888D01*
X0828737Y0324998D01*
X0828480Y0324114D01*
X0828202Y0323237D01*
X0827903Y0322367D01*
X0827582Y0321504D01*
X0827240Y0320649D01*
X0826878Y0319803D01*
X0826495Y0318967D01*
X0826091Y0318140D01*
X0825667Y0317323D01*
X0825223Y0316516D01*
X0824760Y0315721D01*
X0824277Y0314938D01*
X0823775Y0314166D01*
X0823254Y0313407D01*
X0822715Y0312661D01*
X0822158Y0311929D01*
X0821583Y0311210D01*
X0820990Y0310506D01*
X0820381Y0309817D01*
X0819754Y0309142D01*
X0819112Y0308483D01*
X0818453Y0307841D01*
X0817778Y0307214D01*
X0817089Y0306605D01*
X0816385Y0306012D01*
X0815666Y0305437D01*
X0814934Y0304880D01*
X0814188Y0304341D01*
X0813429Y0303820D01*
X0812657Y0303318D01*
X0811874Y0302835D01*
X0811079Y0302372D01*
X0810272Y0301928D01*
X0809455Y0301504D01*
X0808628Y0301100D01*
X0807792Y0300717D01*
X0806946Y0300355D01*
X0806091Y0300013D01*
X0805228Y0299692D01*
X0804358Y0299393D01*
X0803481Y0299115D01*
X0802597Y0298858D01*
X0801707Y0298624D01*
X0800811Y0298411D01*
X0799911Y0298221D01*
X0799006Y0298052D01*
X0798097Y0297906D01*
X0797185Y0297782D01*
X0796271Y0297681D01*
X0795354Y0297602D01*
X0794435Y0297545D01*
X0793515Y0297511D01*
X0792595Y0297500D01*
X0791675Y0297511D01*
X0790755Y0297545D01*
X0789836Y0297602D01*
X0788919Y0297681D01*
X0788005Y0297782D01*
X0787093Y0297906D01*
X0786184Y0298052D01*
X0785279Y0298221D01*
X0784379Y0298411D01*
X0783483Y0298624D01*
X0782593Y0298858D01*
X0781709Y0299115D01*
X0780832Y0299393D01*
X0779962Y0299692D01*
X0779099Y0300013D01*
X0778244Y0300355D01*
X0777398Y0300717D01*
X0776562Y0301100D01*
X0775735Y0301504D01*
X0774918Y0301928D01*
X0774111Y0302372D01*
X0773316Y0302835D01*
X0772533Y0303318D01*
X0771761Y0303820D01*
X0771002Y0304341D01*
X0770256Y0304880D01*
X0769524Y0305437D01*
X0768805Y0306012D01*
X0768101Y0306605D01*
X0767412Y0307214D01*
X0766737Y0307841D01*
X0766078Y0308483D01*
X0765436Y0309142D01*
X0764809Y0309817D01*
X0764200Y0310506D01*
X0763607Y0311210D01*
X0763032Y0311929D01*
X0762475Y0312661D01*
X0761936Y0313407D01*
X0761415Y0314166D01*
X0760913Y0314938D01*
X0760430Y0315721D01*
X0759967Y0316516D01*
X0759523Y0317323D01*
X0759099Y0318140D01*
X0758695Y0318967D01*
X0758312Y0319803D01*
X0757950Y0320649D01*
X0757608Y0321504D01*
X0757287Y0322367D01*
X0756988Y0323237D01*
X0756710Y0324114D01*
X0756453Y0324998D01*
X0756219Y0325888D01*
X0756006Y0326784D01*
X0755816Y0327684D01*
X0755647Y0328589D01*
X0755501Y0329498D01*
X0755377Y0330410D01*
X0755276Y0331324D01*
X0755197Y0332241D01*
X0755140Y0333160D01*
X0755106Y0334080D01*
X0755095Y0335000D01*
X0745351Y0335000D02*
X0745365Y0336159D01*
X0745408Y0337318D01*
X0745479Y0338475D01*
X0745578Y0339631D01*
X0745706Y0340783D01*
X0745862Y0341932D01*
X0746047Y0343077D01*
X0746259Y0344217D01*
X0746499Y0345351D01*
X0746767Y0346479D01*
X0747062Y0347601D01*
X0747385Y0348714D01*
X0747735Y0349820D01*
X0748113Y0350916D01*
X0748517Y0352003D01*
X0748947Y0353079D01*
X0749404Y0354145D01*
X0749887Y0355199D01*
X0750396Y0356241D01*
X0750930Y0357271D01*
X0751489Y0358286D01*
X0752072Y0359288D01*
X0752681Y0360275D01*
X0753313Y0361247D01*
X0753969Y0362203D01*
X0754648Y0363143D01*
X0755350Y0364066D01*
X0756075Y0364971D01*
X0756821Y0365858D01*
X0757590Y0366727D01*
X0758379Y0367577D01*
X0759188Y0368407D01*
X0760018Y0369216D01*
X0760868Y0370005D01*
X0761737Y0370774D01*
X0762624Y0371520D01*
X0763529Y0372245D01*
X0764452Y0372947D01*
X0765392Y0373626D01*
X0766348Y0374282D01*
X0767320Y0374914D01*
X0768307Y0375523D01*
X0769309Y0376106D01*
X0770324Y0376665D01*
X0771354Y0377199D01*
X0772396Y0377708D01*
X0773450Y0378191D01*
X0774516Y0378648D01*
X0775592Y0379078D01*
X0776679Y0379482D01*
X0777775Y0379860D01*
X0778881Y0380210D01*
X0779994Y0380533D01*
X0781116Y0380828D01*
X0782244Y0381096D01*
X0783378Y0381336D01*
X0784518Y0381548D01*
X0785663Y0381733D01*
X0786812Y0381889D01*
X0787964Y0382017D01*
X0789120Y0382116D01*
X0790277Y0382187D01*
X0791436Y0382230D01*
X0792595Y0382244D01*
X0793754Y0382230D01*
X0794913Y0382187D01*
X0796070Y0382116D01*
X0797226Y0382017D01*
X0798378Y0381889D01*
X0799527Y0381733D01*
X0800672Y0381548D01*
X0801812Y0381336D01*
X0802946Y0381096D01*
X0804074Y0380828D01*
X0805196Y0380533D01*
X0806309Y0380210D01*
X0807415Y0379860D01*
X0808511Y0379482D01*
X0809598Y0379078D01*
X0810674Y0378648D01*
X0811740Y0378191D01*
X0812794Y0377708D01*
X0813836Y0377199D01*
X0814866Y0376665D01*
X0815881Y0376106D01*
X0816883Y0375523D01*
X0817870Y0374914D01*
X0818842Y0374282D01*
X0819798Y0373626D01*
X0820738Y0372947D01*
X0821661Y0372245D01*
X0822566Y0371520D01*
X0823453Y0370774D01*
X0824322Y0370005D01*
X0825172Y0369216D01*
X0826002Y0368407D01*
X0826811Y0367577D01*
X0827600Y0366727D01*
X0828369Y0365858D01*
X0829115Y0364971D01*
X0829840Y0364066D01*
X0830542Y0363143D01*
X0831221Y0362203D01*
X0831877Y0361247D01*
X0832509Y0360275D01*
X0833118Y0359288D01*
X0833701Y0358286D01*
X0834260Y0357271D01*
X0834794Y0356241D01*
X0835303Y0355199D01*
X0835786Y0354145D01*
X0836243Y0353079D01*
X0836673Y0352003D01*
X0837077Y0350916D01*
X0837455Y0349820D01*
X0837805Y0348714D01*
X0838128Y0347601D01*
X0838423Y0346479D01*
X0838691Y0345351D01*
X0838931Y0344217D01*
X0839143Y0343077D01*
X0839328Y0341932D01*
X0839484Y0340783D01*
X0839612Y0339631D01*
X0839711Y0338475D01*
X0839782Y0337318D01*
X0839825Y0336159D01*
X0839839Y0335000D01*
X0839825Y0333841D01*
X0839782Y0332682D01*
X0839711Y0331525D01*
X0839612Y0330369D01*
X0839484Y0329217D01*
X0839328Y0328068D01*
X0839143Y0326923D01*
X0838931Y0325783D01*
X0838691Y0324649D01*
X0838423Y0323521D01*
X0838128Y0322399D01*
X0837805Y0321286D01*
X0837455Y0320180D01*
X0837077Y0319084D01*
X0836673Y0317997D01*
X0836243Y0316921D01*
X0835786Y0315855D01*
X0835303Y0314801D01*
X0834794Y0313759D01*
X0834260Y0312729D01*
X0833701Y0311714D01*
X0833118Y0310712D01*
X0832509Y0309725D01*
X0831877Y0308753D01*
X0831221Y0307797D01*
X0830542Y0306857D01*
X0829840Y0305934D01*
X0829115Y0305029D01*
X0828369Y0304142D01*
X0827600Y0303273D01*
X0826811Y0302423D01*
X0826002Y0301593D01*
X0825172Y0300784D01*
X0824322Y0299995D01*
X0823453Y0299226D01*
X0822566Y0298480D01*
X0821661Y0297755D01*
X0820738Y0297053D01*
X0819798Y0296374D01*
X0818842Y0295718D01*
X0817870Y0295086D01*
X0816883Y0294477D01*
X0815881Y0293894D01*
X0814866Y0293335D01*
X0813836Y0292801D01*
X0812794Y0292292D01*
X0811740Y0291809D01*
X0810674Y0291352D01*
X0809598Y0290922D01*
X0808511Y0290518D01*
X0807415Y0290140D01*
X0806309Y0289790D01*
X0805196Y0289467D01*
X0804074Y0289172D01*
X0802946Y0288904D01*
X0801812Y0288664D01*
X0800672Y0288452D01*
X0799527Y0288267D01*
X0798378Y0288111D01*
X0797226Y0287983D01*
X0796070Y0287884D01*
X0794913Y0287813D01*
X0793754Y0287770D01*
X0792595Y0287756D01*
X0791436Y0287770D01*
X0790277Y0287813D01*
X0789120Y0287884D01*
X0787964Y0287983D01*
X0786812Y0288111D01*
X0785663Y0288267D01*
X0784518Y0288452D01*
X0783378Y0288664D01*
X0782244Y0288904D01*
X0781116Y0289172D01*
X0779994Y0289467D01*
X0778881Y0289790D01*
X0777775Y0290140D01*
X0776679Y0290518D01*
X0775592Y0290922D01*
X0774516Y0291352D01*
X0773450Y0291809D01*
X0772396Y0292292D01*
X0771354Y0292801D01*
X0770324Y0293335D01*
X0769309Y0293894D01*
X0768307Y0294477D01*
X0767320Y0295086D01*
X0766348Y0295718D01*
X0765392Y0296374D01*
X0764452Y0297053D01*
X0763529Y0297755D01*
X0762624Y0298480D01*
X0761737Y0299226D01*
X0760868Y0299995D01*
X0760018Y0300784D01*
X0759188Y0301593D01*
X0758379Y0302423D01*
X0757590Y0303273D01*
X0756821Y0304142D01*
X0756075Y0305029D01*
X0755350Y0305934D01*
X0754648Y0306857D01*
X0753969Y0307797D01*
X0753313Y0308753D01*
X0752681Y0309725D01*
X0752072Y0310712D01*
X0751489Y0311714D01*
X0750930Y0312729D01*
X0750396Y0313759D01*
X0749887Y0314801D01*
X0749404Y0315855D01*
X0748947Y0316921D01*
X0748517Y0317997D01*
X0748113Y0319084D01*
X0747735Y0320180D01*
X0747385Y0321286D01*
X0747062Y0322399D01*
X0746767Y0323521D01*
X0746499Y0324649D01*
X0746259Y0325783D01*
X0746047Y0326923D01*
X0745862Y0328068D01*
X0745706Y0329217D01*
X0745578Y0330369D01*
X0745479Y0331525D01*
X0745408Y0332682D01*
X0745365Y0333841D01*
X0745351Y0335000D01*
X0792595Y0547500D02*
X0792595Y0582500D01*
X0775095Y0565000D02*
X0775100Y0565429D01*
X0775116Y0565859D01*
X0775142Y0566287D01*
X0775179Y0566715D01*
X0775227Y0567142D01*
X0775284Y0567568D01*
X0775353Y0567992D01*
X0775431Y0568414D01*
X0775520Y0568834D01*
X0775619Y0569252D01*
X0775729Y0569667D01*
X0775849Y0570080D01*
X0775978Y0570489D01*
X0776118Y0570896D01*
X0776268Y0571298D01*
X0776427Y0571697D01*
X0776596Y0572092D01*
X0776775Y0572482D01*
X0776964Y0572868D01*
X0777161Y0573249D01*
X0777368Y0573626D01*
X0777585Y0573997D01*
X0777810Y0574362D01*
X0778044Y0574722D01*
X0778287Y0575077D01*
X0778539Y0575425D01*
X0778799Y0575767D01*
X0779067Y0576102D01*
X0779344Y0576431D01*
X0779628Y0576752D01*
X0779921Y0577067D01*
X0780221Y0577374D01*
X0780528Y0577674D01*
X0780843Y0577967D01*
X0781164Y0578251D01*
X0781493Y0578528D01*
X0781828Y0578796D01*
X0782170Y0579056D01*
X0782518Y0579308D01*
X0782873Y0579551D01*
X0783233Y0579785D01*
X0783598Y0580010D01*
X0783969Y0580227D01*
X0784346Y0580434D01*
X0784727Y0580631D01*
X0785113Y0580820D01*
X0785503Y0580999D01*
X0785898Y0581168D01*
X0786297Y0581327D01*
X0786699Y0581477D01*
X0787106Y0581617D01*
X0787515Y0581746D01*
X0787928Y0581866D01*
X0788343Y0581976D01*
X0788761Y0582075D01*
X0789181Y0582164D01*
X0789603Y0582242D01*
X0790027Y0582311D01*
X0790453Y0582368D01*
X0790880Y0582416D01*
X0791308Y0582453D01*
X0791736Y0582479D01*
X0792166Y0582495D01*
X0792595Y0582500D01*
X0793024Y0582495D01*
X0793454Y0582479D01*
X0793882Y0582453D01*
X0794310Y0582416D01*
X0794737Y0582368D01*
X0795163Y0582311D01*
X0795587Y0582242D01*
X0796009Y0582164D01*
X0796429Y0582075D01*
X0796847Y0581976D01*
X0797262Y0581866D01*
X0797675Y0581746D01*
X0798084Y0581617D01*
X0798491Y0581477D01*
X0798893Y0581327D01*
X0799292Y0581168D01*
X0799687Y0580999D01*
X0800077Y0580820D01*
X0800463Y0580631D01*
X0800844Y0580434D01*
X0801221Y0580227D01*
X0801592Y0580010D01*
X0801957Y0579785D01*
X0802317Y0579551D01*
X0802672Y0579308D01*
X0803020Y0579056D01*
X0803362Y0578796D01*
X0803697Y0578528D01*
X0804026Y0578251D01*
X0804347Y0577967D01*
X0804662Y0577674D01*
X0804969Y0577374D01*
X0805269Y0577067D01*
X0805562Y0576752D01*
X0805846Y0576431D01*
X0806123Y0576102D01*
X0806391Y0575767D01*
X0806651Y0575425D01*
X0806903Y0575077D01*
X0807146Y0574722D01*
X0807380Y0574362D01*
X0807605Y0573997D01*
X0807822Y0573626D01*
X0808029Y0573249D01*
X0808226Y0572868D01*
X0808415Y0572482D01*
X0808594Y0572092D01*
X0808763Y0571697D01*
X0808922Y0571298D01*
X0809072Y0570896D01*
X0809212Y0570489D01*
X0809341Y0570080D01*
X0809461Y0569667D01*
X0809571Y0569252D01*
X0809670Y0568834D01*
X0809759Y0568414D01*
X0809837Y0567992D01*
X0809906Y0567568D01*
X0809963Y0567142D01*
X0810011Y0566715D01*
X0810048Y0566287D01*
X0810074Y0565859D01*
X0810090Y0565429D01*
X0810095Y0565000D01*
X0810090Y0564571D01*
X0810074Y0564141D01*
X0810048Y0563713D01*
X0810011Y0563285D01*
X0809963Y0562858D01*
X0809906Y0562432D01*
X0809837Y0562008D01*
X0809759Y0561586D01*
X0809670Y0561166D01*
X0809571Y0560748D01*
X0809461Y0560333D01*
X0809341Y0559920D01*
X0809212Y0559511D01*
X0809072Y0559104D01*
X0808922Y0558702D01*
X0808763Y0558303D01*
X0808594Y0557908D01*
X0808415Y0557518D01*
X0808226Y0557132D01*
X0808029Y0556751D01*
X0807822Y0556374D01*
X0807605Y0556003D01*
X0807380Y0555638D01*
X0807146Y0555278D01*
X0806903Y0554923D01*
X0806651Y0554575D01*
X0806391Y0554233D01*
X0806123Y0553898D01*
X0805846Y0553569D01*
X0805562Y0553248D01*
X0805269Y0552933D01*
X0804969Y0552626D01*
X0804662Y0552326D01*
X0804347Y0552033D01*
X0804026Y0551749D01*
X0803697Y0551472D01*
X0803362Y0551204D01*
X0803020Y0550944D01*
X0802672Y0550692D01*
X0802317Y0550449D01*
X0801957Y0550215D01*
X0801592Y0549990D01*
X0801221Y0549773D01*
X0800844Y0549566D01*
X0800463Y0549369D01*
X0800077Y0549180D01*
X0799687Y0549001D01*
X0799292Y0548832D01*
X0798893Y0548673D01*
X0798491Y0548523D01*
X0798084Y0548383D01*
X0797675Y0548254D01*
X0797262Y0548134D01*
X0796847Y0548024D01*
X0796429Y0547925D01*
X0796009Y0547836D01*
X0795587Y0547758D01*
X0795163Y0547689D01*
X0794737Y0547632D01*
X0794310Y0547584D01*
X0793882Y0547547D01*
X0793454Y0547521D01*
X0793024Y0547505D01*
X0792595Y0547500D01*
X0792166Y0547505D01*
X0791736Y0547521D01*
X0791308Y0547547D01*
X0790880Y0547584D01*
X0790453Y0547632D01*
X0790027Y0547689D01*
X0789603Y0547758D01*
X0789181Y0547836D01*
X0788761Y0547925D01*
X0788343Y0548024D01*
X0787928Y0548134D01*
X0787515Y0548254D01*
X0787106Y0548383D01*
X0786699Y0548523D01*
X0786297Y0548673D01*
X0785898Y0548832D01*
X0785503Y0549001D01*
X0785113Y0549180D01*
X0784727Y0549369D01*
X0784346Y0549566D01*
X0783969Y0549773D01*
X0783598Y0549990D01*
X0783233Y0550215D01*
X0782873Y0550449D01*
X0782518Y0550692D01*
X0782170Y0550944D01*
X0781828Y0551204D01*
X0781493Y0551472D01*
X0781164Y0551749D01*
X0780843Y0552033D01*
X0780528Y0552326D01*
X0780221Y0552626D01*
X0779921Y0552933D01*
X0779628Y0553248D01*
X0779344Y0553569D01*
X0779067Y0553898D01*
X0778799Y0554233D01*
X0778539Y0554575D01*
X0778287Y0554923D01*
X0778044Y0555278D01*
X0777810Y0555638D01*
X0777585Y0556003D01*
X0777368Y0556374D01*
X0777161Y0556751D01*
X0776964Y0557132D01*
X0776775Y0557518D01*
X0776596Y0557908D01*
X0776427Y0558303D01*
X0776268Y0558702D01*
X0776118Y0559104D01*
X0775978Y0559511D01*
X0775849Y0559920D01*
X0775729Y0560333D01*
X0775619Y0560748D01*
X0775520Y0561166D01*
X0775431Y0561586D01*
X0775353Y0562008D01*
X0775284Y0562432D01*
X0775227Y0562858D01*
X0775179Y0563285D01*
X0775142Y0563713D01*
X0775116Y0564141D01*
X0775100Y0564571D01*
X0775095Y0565000D01*
X0810095Y0565000D01*
X0660095Y0565000D02*
X0625095Y0565000D01*
X0625100Y0565429D01*
X0625116Y0565859D01*
X0625142Y0566287D01*
X0625179Y0566715D01*
X0625227Y0567142D01*
X0625284Y0567568D01*
X0625353Y0567992D01*
X0625431Y0568414D01*
X0625520Y0568834D01*
X0625619Y0569252D01*
X0625729Y0569667D01*
X0625849Y0570080D01*
X0625978Y0570489D01*
X0626118Y0570896D01*
X0626268Y0571298D01*
X0626427Y0571697D01*
X0626596Y0572092D01*
X0626775Y0572482D01*
X0626964Y0572868D01*
X0627161Y0573249D01*
X0627368Y0573626D01*
X0627585Y0573997D01*
X0627810Y0574362D01*
X0628044Y0574722D01*
X0628287Y0575077D01*
X0628539Y0575425D01*
X0628799Y0575767D01*
X0629067Y0576102D01*
X0629344Y0576431D01*
X0629628Y0576752D01*
X0629921Y0577067D01*
X0630221Y0577374D01*
X0630528Y0577674D01*
X0630843Y0577967D01*
X0631164Y0578251D01*
X0631493Y0578528D01*
X0631828Y0578796D01*
X0632170Y0579056D01*
X0632518Y0579308D01*
X0632873Y0579551D01*
X0633233Y0579785D01*
X0633598Y0580010D01*
X0633969Y0580227D01*
X0634346Y0580434D01*
X0634727Y0580631D01*
X0635113Y0580820D01*
X0635503Y0580999D01*
X0635898Y0581168D01*
X0636297Y0581327D01*
X0636699Y0581477D01*
X0637106Y0581617D01*
X0637515Y0581746D01*
X0637928Y0581866D01*
X0638343Y0581976D01*
X0638761Y0582075D01*
X0639181Y0582164D01*
X0639603Y0582242D01*
X0640027Y0582311D01*
X0640453Y0582368D01*
X0640880Y0582416D01*
X0641308Y0582453D01*
X0641736Y0582479D01*
X0642166Y0582495D01*
X0642595Y0582500D01*
X0643024Y0582495D01*
X0643454Y0582479D01*
X0643882Y0582453D01*
X0644310Y0582416D01*
X0644737Y0582368D01*
X0645163Y0582311D01*
X0645587Y0582242D01*
X0646009Y0582164D01*
X0646429Y0582075D01*
X0646847Y0581976D01*
X0647262Y0581866D01*
X0647675Y0581746D01*
X0648084Y0581617D01*
X0648491Y0581477D01*
X0648893Y0581327D01*
X0649292Y0581168D01*
X0649687Y0580999D01*
X0650077Y0580820D01*
X0650463Y0580631D01*
X0650844Y0580434D01*
X0651221Y0580227D01*
X0651592Y0580010D01*
X0651957Y0579785D01*
X0652317Y0579551D01*
X0652672Y0579308D01*
X0653020Y0579056D01*
X0653362Y0578796D01*
X0653697Y0578528D01*
X0654026Y0578251D01*
X0654347Y0577967D01*
X0654662Y0577674D01*
X0654969Y0577374D01*
X0655269Y0577067D01*
X0655562Y0576752D01*
X0655846Y0576431D01*
X0656123Y0576102D01*
X0656391Y0575767D01*
X0656651Y0575425D01*
X0656903Y0575077D01*
X0657146Y0574722D01*
X0657380Y0574362D01*
X0657605Y0573997D01*
X0657822Y0573626D01*
X0658029Y0573249D01*
X0658226Y0572868D01*
X0658415Y0572482D01*
X0658594Y0572092D01*
X0658763Y0571697D01*
X0658922Y0571298D01*
X0659072Y0570896D01*
X0659212Y0570489D01*
X0659341Y0570080D01*
X0659461Y0569667D01*
X0659571Y0569252D01*
X0659670Y0568834D01*
X0659759Y0568414D01*
X0659837Y0567992D01*
X0659906Y0567568D01*
X0659963Y0567142D01*
X0660011Y0566715D01*
X0660048Y0566287D01*
X0660074Y0565859D01*
X0660090Y0565429D01*
X0660095Y0565000D01*
X0660090Y0564571D01*
X0660074Y0564141D01*
X0660048Y0563713D01*
X0660011Y0563285D01*
X0659963Y0562858D01*
X0659906Y0562432D01*
X0659837Y0562008D01*
X0659759Y0561586D01*
X0659670Y0561166D01*
X0659571Y0560748D01*
X0659461Y0560333D01*
X0659341Y0559920D01*
X0659212Y0559511D01*
X0659072Y0559104D01*
X0658922Y0558702D01*
X0658763Y0558303D01*
X0658594Y0557908D01*
X0658415Y0557518D01*
X0658226Y0557132D01*
X0658029Y0556751D01*
X0657822Y0556374D01*
X0657605Y0556003D01*
X0657380Y0555638D01*
X0657146Y0555278D01*
X0656903Y0554923D01*
X0656651Y0554575D01*
X0656391Y0554233D01*
X0656123Y0553898D01*
X0655846Y0553569D01*
X0655562Y0553248D01*
X0655269Y0552933D01*
X0654969Y0552626D01*
X0654662Y0552326D01*
X0654347Y0552033D01*
X0654026Y0551749D01*
X0653697Y0551472D01*
X0653362Y0551204D01*
X0653020Y0550944D01*
X0652672Y0550692D01*
X0652317Y0550449D01*
X0651957Y0550215D01*
X0651592Y0549990D01*
X0651221Y0549773D01*
X0650844Y0549566D01*
X0650463Y0549369D01*
X0650077Y0549180D01*
X0649687Y0549001D01*
X0649292Y0548832D01*
X0648893Y0548673D01*
X0648491Y0548523D01*
X0648084Y0548383D01*
X0647675Y0548254D01*
X0647262Y0548134D01*
X0646847Y0548024D01*
X0646429Y0547925D01*
X0646009Y0547836D01*
X0645587Y0547758D01*
X0645163Y0547689D01*
X0644737Y0547632D01*
X0644310Y0547584D01*
X0643882Y0547547D01*
X0643454Y0547521D01*
X0643024Y0547505D01*
X0642595Y0547500D01*
X0642166Y0547505D01*
X0641736Y0547521D01*
X0641308Y0547547D01*
X0640880Y0547584D01*
X0640453Y0547632D01*
X0640027Y0547689D01*
X0639603Y0547758D01*
X0639181Y0547836D01*
X0638761Y0547925D01*
X0638343Y0548024D01*
X0637928Y0548134D01*
X0637515Y0548254D01*
X0637106Y0548383D01*
X0636699Y0548523D01*
X0636297Y0548673D01*
X0635898Y0548832D01*
X0635503Y0549001D01*
X0635113Y0549180D01*
X0634727Y0549369D01*
X0634346Y0549566D01*
X0633969Y0549773D01*
X0633598Y0549990D01*
X0633233Y0550215D01*
X0632873Y0550449D01*
X0632518Y0550692D01*
X0632170Y0550944D01*
X0631828Y0551204D01*
X0631493Y0551472D01*
X0631164Y0551749D01*
X0630843Y0552033D01*
X0630528Y0552326D01*
X0630221Y0552626D01*
X0629921Y0552933D01*
X0629628Y0553248D01*
X0629344Y0553569D01*
X0629067Y0553898D01*
X0628799Y0554233D01*
X0628539Y0554575D01*
X0628287Y0554923D01*
X0628044Y0555278D01*
X0627810Y0555638D01*
X0627585Y0556003D01*
X0627368Y0556374D01*
X0627161Y0556751D01*
X0626964Y0557132D01*
X0626775Y0557518D01*
X0626596Y0557908D01*
X0626427Y0558303D01*
X0626268Y0558702D01*
X0626118Y0559104D01*
X0625978Y0559511D01*
X0625849Y0559920D01*
X0625729Y0560333D01*
X0625619Y0560748D01*
X0625520Y0561166D01*
X0625431Y0561586D01*
X0625353Y0562008D01*
X0625284Y0562432D01*
X0625227Y0562858D01*
X0625179Y0563285D01*
X0625142Y0563713D01*
X0625116Y0564141D01*
X0625100Y0564571D01*
X0625095Y0565000D01*
X0642595Y0582500D02*
X0642595Y0547500D01*
X0510095Y0565000D02*
X0475095Y0565000D01*
X0475100Y0565429D01*
X0475116Y0565859D01*
X0475142Y0566287D01*
X0475179Y0566715D01*
X0475227Y0567142D01*
X0475284Y0567568D01*
X0475353Y0567992D01*
X0475431Y0568414D01*
X0475520Y0568834D01*
X0475619Y0569252D01*
X0475729Y0569667D01*
X0475849Y0570080D01*
X0475978Y0570489D01*
X0476118Y0570896D01*
X0476268Y0571298D01*
X0476427Y0571697D01*
X0476596Y0572092D01*
X0476775Y0572482D01*
X0476964Y0572868D01*
X0477161Y0573249D01*
X0477368Y0573626D01*
X0477585Y0573997D01*
X0477810Y0574362D01*
X0478044Y0574722D01*
X0478287Y0575077D01*
X0478539Y0575425D01*
X0478799Y0575767D01*
X0479067Y0576102D01*
X0479344Y0576431D01*
X0479628Y0576752D01*
X0479921Y0577067D01*
X0480221Y0577374D01*
X0480528Y0577674D01*
X0480843Y0577967D01*
X0481164Y0578251D01*
X0481493Y0578528D01*
X0481828Y0578796D01*
X0482170Y0579056D01*
X0482518Y0579308D01*
X0482873Y0579551D01*
X0483233Y0579785D01*
X0483598Y0580010D01*
X0483969Y0580227D01*
X0484346Y0580434D01*
X0484727Y0580631D01*
X0485113Y0580820D01*
X0485503Y0580999D01*
X0485898Y0581168D01*
X0486297Y0581327D01*
X0486699Y0581477D01*
X0487106Y0581617D01*
X0487515Y0581746D01*
X0487928Y0581866D01*
X0488343Y0581976D01*
X0488761Y0582075D01*
X0489181Y0582164D01*
X0489603Y0582242D01*
X0490027Y0582311D01*
X0490453Y0582368D01*
X0490880Y0582416D01*
X0491308Y0582453D01*
X0491736Y0582479D01*
X0492166Y0582495D01*
X0492595Y0582500D01*
X0493024Y0582495D01*
X0493454Y0582479D01*
X0493882Y0582453D01*
X0494310Y0582416D01*
X0494737Y0582368D01*
X0495163Y0582311D01*
X0495587Y0582242D01*
X0496009Y0582164D01*
X0496429Y0582075D01*
X0496847Y0581976D01*
X0497262Y0581866D01*
X0497675Y0581746D01*
X0498084Y0581617D01*
X0498491Y0581477D01*
X0498893Y0581327D01*
X0499292Y0581168D01*
X0499687Y0580999D01*
X0500077Y0580820D01*
X0500463Y0580631D01*
X0500844Y0580434D01*
X0501221Y0580227D01*
X0501592Y0580010D01*
X0501957Y0579785D01*
X0502317Y0579551D01*
X0502672Y0579308D01*
X0503020Y0579056D01*
X0503362Y0578796D01*
X0503697Y0578528D01*
X0504026Y0578251D01*
X0504347Y0577967D01*
X0504662Y0577674D01*
X0504969Y0577374D01*
X0505269Y0577067D01*
X0505562Y0576752D01*
X0505846Y0576431D01*
X0506123Y0576102D01*
X0506391Y0575767D01*
X0506651Y0575425D01*
X0506903Y0575077D01*
X0507146Y0574722D01*
X0507380Y0574362D01*
X0507605Y0573997D01*
X0507822Y0573626D01*
X0508029Y0573249D01*
X0508226Y0572868D01*
X0508415Y0572482D01*
X0508594Y0572092D01*
X0508763Y0571697D01*
X0508922Y0571298D01*
X0509072Y0570896D01*
X0509212Y0570489D01*
X0509341Y0570080D01*
X0509461Y0569667D01*
X0509571Y0569252D01*
X0509670Y0568834D01*
X0509759Y0568414D01*
X0509837Y0567992D01*
X0509906Y0567568D01*
X0509963Y0567142D01*
X0510011Y0566715D01*
X0510048Y0566287D01*
X0510074Y0565859D01*
X0510090Y0565429D01*
X0510095Y0565000D01*
X0510090Y0564571D01*
X0510074Y0564141D01*
X0510048Y0563713D01*
X0510011Y0563285D01*
X0509963Y0562858D01*
X0509906Y0562432D01*
X0509837Y0562008D01*
X0509759Y0561586D01*
X0509670Y0561166D01*
X0509571Y0560748D01*
X0509461Y0560333D01*
X0509341Y0559920D01*
X0509212Y0559511D01*
X0509072Y0559104D01*
X0508922Y0558702D01*
X0508763Y0558303D01*
X0508594Y0557908D01*
X0508415Y0557518D01*
X0508226Y0557132D01*
X0508029Y0556751D01*
X0507822Y0556374D01*
X0507605Y0556003D01*
X0507380Y0555638D01*
X0507146Y0555278D01*
X0506903Y0554923D01*
X0506651Y0554575D01*
X0506391Y0554233D01*
X0506123Y0553898D01*
X0505846Y0553569D01*
X0505562Y0553248D01*
X0505269Y0552933D01*
X0504969Y0552626D01*
X0504662Y0552326D01*
X0504347Y0552033D01*
X0504026Y0551749D01*
X0503697Y0551472D01*
X0503362Y0551204D01*
X0503020Y0550944D01*
X0502672Y0550692D01*
X0502317Y0550449D01*
X0501957Y0550215D01*
X0501592Y0549990D01*
X0501221Y0549773D01*
X0500844Y0549566D01*
X0500463Y0549369D01*
X0500077Y0549180D01*
X0499687Y0549001D01*
X0499292Y0548832D01*
X0498893Y0548673D01*
X0498491Y0548523D01*
X0498084Y0548383D01*
X0497675Y0548254D01*
X0497262Y0548134D01*
X0496847Y0548024D01*
X0496429Y0547925D01*
X0496009Y0547836D01*
X0495587Y0547758D01*
X0495163Y0547689D01*
X0494737Y0547632D01*
X0494310Y0547584D01*
X0493882Y0547547D01*
X0493454Y0547521D01*
X0493024Y0547505D01*
X0492595Y0547500D01*
X0492166Y0547505D01*
X0491736Y0547521D01*
X0491308Y0547547D01*
X0490880Y0547584D01*
X0490453Y0547632D01*
X0490027Y0547689D01*
X0489603Y0547758D01*
X0489181Y0547836D01*
X0488761Y0547925D01*
X0488343Y0548024D01*
X0487928Y0548134D01*
X0487515Y0548254D01*
X0487106Y0548383D01*
X0486699Y0548523D01*
X0486297Y0548673D01*
X0485898Y0548832D01*
X0485503Y0549001D01*
X0485113Y0549180D01*
X0484727Y0549369D01*
X0484346Y0549566D01*
X0483969Y0549773D01*
X0483598Y0549990D01*
X0483233Y0550215D01*
X0482873Y0550449D01*
X0482518Y0550692D01*
X0482170Y0550944D01*
X0481828Y0551204D01*
X0481493Y0551472D01*
X0481164Y0551749D01*
X0480843Y0552033D01*
X0480528Y0552326D01*
X0480221Y0552626D01*
X0479921Y0552933D01*
X0479628Y0553248D01*
X0479344Y0553569D01*
X0479067Y0553898D01*
X0478799Y0554233D01*
X0478539Y0554575D01*
X0478287Y0554923D01*
X0478044Y0555278D01*
X0477810Y0555638D01*
X0477585Y0556003D01*
X0477368Y0556374D01*
X0477161Y0556751D01*
X0476964Y0557132D01*
X0476775Y0557518D01*
X0476596Y0557908D01*
X0476427Y0558303D01*
X0476268Y0558702D01*
X0476118Y0559104D01*
X0475978Y0559511D01*
X0475849Y0559920D01*
X0475729Y0560333D01*
X0475619Y0560748D01*
X0475520Y0561166D01*
X0475431Y0561586D01*
X0475353Y0562008D01*
X0475284Y0562432D01*
X0475227Y0562858D01*
X0475179Y0563285D01*
X0475142Y0563713D01*
X0475116Y0564141D01*
X0475100Y0564571D01*
X0475095Y0565000D01*
X0492595Y0582500D02*
X0492595Y0547500D01*
X0360095Y0565000D02*
X0325095Y0565000D01*
X0325100Y0565429D01*
X0325116Y0565859D01*
X0325142Y0566287D01*
X0325179Y0566715D01*
X0325227Y0567142D01*
X0325284Y0567568D01*
X0325353Y0567992D01*
X0325431Y0568414D01*
X0325520Y0568834D01*
X0325619Y0569252D01*
X0325729Y0569667D01*
X0325849Y0570080D01*
X0325978Y0570489D01*
X0326118Y0570896D01*
X0326268Y0571298D01*
X0326427Y0571697D01*
X0326596Y0572092D01*
X0326775Y0572482D01*
X0326964Y0572868D01*
X0327161Y0573249D01*
X0327368Y0573626D01*
X0327585Y0573997D01*
X0327810Y0574362D01*
X0328044Y0574722D01*
X0328287Y0575077D01*
X0328539Y0575425D01*
X0328799Y0575767D01*
X0329067Y0576102D01*
X0329344Y0576431D01*
X0329628Y0576752D01*
X0329921Y0577067D01*
X0330221Y0577374D01*
X0330528Y0577674D01*
X0330843Y0577967D01*
X0331164Y0578251D01*
X0331493Y0578528D01*
X0331828Y0578796D01*
X0332170Y0579056D01*
X0332518Y0579308D01*
X0332873Y0579551D01*
X0333233Y0579785D01*
X0333598Y0580010D01*
X0333969Y0580227D01*
X0334346Y0580434D01*
X0334727Y0580631D01*
X0335113Y0580820D01*
X0335503Y0580999D01*
X0335898Y0581168D01*
X0336297Y0581327D01*
X0336699Y0581477D01*
X0337106Y0581617D01*
X0337515Y0581746D01*
X0337928Y0581866D01*
X0338343Y0581976D01*
X0338761Y0582075D01*
X0339181Y0582164D01*
X0339603Y0582242D01*
X0340027Y0582311D01*
X0340453Y0582368D01*
X0340880Y0582416D01*
X0341308Y0582453D01*
X0341736Y0582479D01*
X0342166Y0582495D01*
X0342595Y0582500D01*
X0343024Y0582495D01*
X0343454Y0582479D01*
X0343882Y0582453D01*
X0344310Y0582416D01*
X0344737Y0582368D01*
X0345163Y0582311D01*
X0345587Y0582242D01*
X0346009Y0582164D01*
X0346429Y0582075D01*
X0346847Y0581976D01*
X0347262Y0581866D01*
X0347675Y0581746D01*
X0348084Y0581617D01*
X0348491Y0581477D01*
X0348893Y0581327D01*
X0349292Y0581168D01*
X0349687Y0580999D01*
X0350077Y0580820D01*
X0350463Y0580631D01*
X0350844Y0580434D01*
X0351221Y0580227D01*
X0351592Y0580010D01*
X0351957Y0579785D01*
X0352317Y0579551D01*
X0352672Y0579308D01*
X0353020Y0579056D01*
X0353362Y0578796D01*
X0353697Y0578528D01*
X0354026Y0578251D01*
X0354347Y0577967D01*
X0354662Y0577674D01*
X0354969Y0577374D01*
X0355269Y0577067D01*
X0355562Y0576752D01*
X0355846Y0576431D01*
X0356123Y0576102D01*
X0356391Y0575767D01*
X0356651Y0575425D01*
X0356903Y0575077D01*
X0357146Y0574722D01*
X0357380Y0574362D01*
X0357605Y0573997D01*
X0357822Y0573626D01*
X0358029Y0573249D01*
X0358226Y0572868D01*
X0358415Y0572482D01*
X0358594Y0572092D01*
X0358763Y0571697D01*
X0358922Y0571298D01*
X0359072Y0570896D01*
X0359212Y0570489D01*
X0359341Y0570080D01*
X0359461Y0569667D01*
X0359571Y0569252D01*
X0359670Y0568834D01*
X0359759Y0568414D01*
X0359837Y0567992D01*
X0359906Y0567568D01*
X0359963Y0567142D01*
X0360011Y0566715D01*
X0360048Y0566287D01*
X0360074Y0565859D01*
X0360090Y0565429D01*
X0360095Y0565000D01*
X0360090Y0564571D01*
X0360074Y0564141D01*
X0360048Y0563713D01*
X0360011Y0563285D01*
X0359963Y0562858D01*
X0359906Y0562432D01*
X0359837Y0562008D01*
X0359759Y0561586D01*
X0359670Y0561166D01*
X0359571Y0560748D01*
X0359461Y0560333D01*
X0359341Y0559920D01*
X0359212Y0559511D01*
X0359072Y0559104D01*
X0358922Y0558702D01*
X0358763Y0558303D01*
X0358594Y0557908D01*
X0358415Y0557518D01*
X0358226Y0557132D01*
X0358029Y0556751D01*
X0357822Y0556374D01*
X0357605Y0556003D01*
X0357380Y0555638D01*
X0357146Y0555278D01*
X0356903Y0554923D01*
X0356651Y0554575D01*
X0356391Y0554233D01*
X0356123Y0553898D01*
X0355846Y0553569D01*
X0355562Y0553248D01*
X0355269Y0552933D01*
X0354969Y0552626D01*
X0354662Y0552326D01*
X0354347Y0552033D01*
X0354026Y0551749D01*
X0353697Y0551472D01*
X0353362Y0551204D01*
X0353020Y0550944D01*
X0352672Y0550692D01*
X0352317Y0550449D01*
X0351957Y0550215D01*
X0351592Y0549990D01*
X0351221Y0549773D01*
X0350844Y0549566D01*
X0350463Y0549369D01*
X0350077Y0549180D01*
X0349687Y0549001D01*
X0349292Y0548832D01*
X0348893Y0548673D01*
X0348491Y0548523D01*
X0348084Y0548383D01*
X0347675Y0548254D01*
X0347262Y0548134D01*
X0346847Y0548024D01*
X0346429Y0547925D01*
X0346009Y0547836D01*
X0345587Y0547758D01*
X0345163Y0547689D01*
X0344737Y0547632D01*
X0344310Y0547584D01*
X0343882Y0547547D01*
X0343454Y0547521D01*
X0343024Y0547505D01*
X0342595Y0547500D01*
X0342166Y0547505D01*
X0341736Y0547521D01*
X0341308Y0547547D01*
X0340880Y0547584D01*
X0340453Y0547632D01*
X0340027Y0547689D01*
X0339603Y0547758D01*
X0339181Y0547836D01*
X0338761Y0547925D01*
X0338343Y0548024D01*
X0337928Y0548134D01*
X0337515Y0548254D01*
X0337106Y0548383D01*
X0336699Y0548523D01*
X0336297Y0548673D01*
X0335898Y0548832D01*
X0335503Y0549001D01*
X0335113Y0549180D01*
X0334727Y0549369D01*
X0334346Y0549566D01*
X0333969Y0549773D01*
X0333598Y0549990D01*
X0333233Y0550215D01*
X0332873Y0550449D01*
X0332518Y0550692D01*
X0332170Y0550944D01*
X0331828Y0551204D01*
X0331493Y0551472D01*
X0331164Y0551749D01*
X0330843Y0552033D01*
X0330528Y0552326D01*
X0330221Y0552626D01*
X0329921Y0552933D01*
X0329628Y0553248D01*
X0329344Y0553569D01*
X0329067Y0553898D01*
X0328799Y0554233D01*
X0328539Y0554575D01*
X0328287Y0554923D01*
X0328044Y0555278D01*
X0327810Y0555638D01*
X0327585Y0556003D01*
X0327368Y0556374D01*
X0327161Y0556751D01*
X0326964Y0557132D01*
X0326775Y0557518D01*
X0326596Y0557908D01*
X0326427Y0558303D01*
X0326268Y0558702D01*
X0326118Y0559104D01*
X0325978Y0559511D01*
X0325849Y0559920D01*
X0325729Y0560333D01*
X0325619Y0560748D01*
X0325520Y0561166D01*
X0325431Y0561586D01*
X0325353Y0562008D01*
X0325284Y0562432D01*
X0325227Y0562858D01*
X0325179Y0563285D01*
X0325142Y0563713D01*
X0325116Y0564141D01*
X0325100Y0564571D01*
X0325095Y0565000D01*
X0342595Y0582500D02*
X0342595Y0547500D01*
X0208845Y0597500D02*
X0205095Y0600000D01*
X0208845Y0602500D01*
X0208845Y0597500D01*
X0208845Y0597567D02*
X0208745Y0597567D01*
X0208845Y0598065D02*
X0207997Y0598065D01*
X0207250Y0598564D02*
X0208845Y0598564D01*
X0208845Y0599062D02*
X0206502Y0599062D01*
X0205754Y0599561D02*
X0208845Y0599561D01*
X0208845Y0600059D02*
X0205184Y0600059D01*
X0205932Y0600558D02*
X0208845Y0600558D01*
X0208845Y0601056D02*
X0206679Y0601056D01*
X0207427Y0601555D02*
X0208845Y0601555D01*
X0208845Y0602053D02*
X0208175Y0602053D01*
X0185095Y0650000D02*
X0185095Y0550000D01*
X0108845Y0597500D02*
X0108845Y0602500D01*
X0105095Y0600000D01*
X0108845Y0597500D01*
X0108845Y0597567D02*
X0108745Y0597567D01*
X0108845Y0598065D02*
X0107997Y0598065D01*
X0107250Y0598564D02*
X0108845Y0598564D01*
X0108845Y0599062D02*
X0106502Y0599062D01*
X0105754Y0599561D02*
X0108845Y0599561D01*
X0108845Y0600059D02*
X0105184Y0600059D01*
X0105932Y0600558D02*
X0108845Y0600558D01*
X0108845Y0601056D02*
X0106679Y0601056D01*
X0107427Y0601555D02*
X0108845Y0601555D01*
X0108845Y0602053D02*
X0108175Y0602053D01*
X0085095Y0650000D02*
X0085095Y0550000D01*
D14*
X0086345Y0550000D02*
X0128845Y0550000D01*
X0128845Y0640000D01*
X0117595Y0650000D01*
X0086345Y0650000D01*
X0086345Y0550000D01*
X0105095Y0597500D02*
X0105095Y0602500D01*
X0098845Y0600000D02*
X0116345Y0600000D01*
X0186345Y0550000D02*
X0228845Y0550000D01*
X0228845Y0640000D01*
X0217595Y0650000D01*
X0186345Y0650000D01*
X0186345Y0550000D01*
X0205095Y0597500D02*
X0205095Y0602500D01*
X0198845Y0600000D02*
X0216345Y0600000D01*
X0135095Y0455000D02*
X0120095Y0455000D01*
D15*
X0117595Y0652500D03*
X0217595Y0652500D03*
D16*
X0135404Y0454671D02*
X0134864Y0455391D01*
X0134865Y0455390D02*
X0135098Y0455571D01*
X0135326Y0455757D01*
X0135550Y0455949D01*
X0135769Y0456146D01*
X0135983Y0456348D01*
X0136192Y0456556D01*
X0136395Y0456769D01*
X0136594Y0456986D01*
X0136787Y0457209D01*
X0136975Y0457436D01*
X0137157Y0457667D01*
X0137334Y0457903D01*
X0137504Y0458144D01*
X0137669Y0458388D01*
X0137827Y0458636D01*
X0137980Y0458888D01*
X0138126Y0459144D01*
X0138266Y0459403D01*
X0138400Y0459666D01*
X0138527Y0459931D01*
X0138648Y0460200D01*
X0138762Y0460472D01*
X0138869Y0460746D01*
X0138970Y0461023D01*
X0139064Y0461302D01*
X0139151Y0461584D01*
X0139231Y0461867D01*
X0139304Y0462153D01*
X0139370Y0462440D01*
X0139429Y0462729D01*
X0139481Y0463019D01*
X0139526Y0463310D01*
X0139564Y0463602D01*
X0139594Y0463895D01*
X0139618Y0464189D01*
X0139634Y0464483D01*
X0139643Y0464777D01*
X0139645Y0465072D01*
X0139639Y0465367D01*
X0139627Y0465661D01*
X0139607Y0465955D01*
X0139580Y0466248D01*
X0139546Y0466541D01*
X0139505Y0466833D01*
X0139456Y0467123D01*
X0139401Y0467413D01*
X0139339Y0467700D01*
X0139269Y0467987D01*
X0139192Y0468271D01*
X0139109Y0468554D01*
X0139019Y0468834D01*
X0138922Y0469112D01*
X0138818Y0469388D01*
X0138707Y0469661D01*
X0138590Y0469931D01*
X0138466Y0470199D01*
X0138336Y0470463D01*
X0138199Y0470724D01*
X0138056Y0470981D01*
X0137906Y0471235D01*
X0137751Y0471486D01*
X0137589Y0471732D01*
X0137422Y0471974D01*
X0137248Y0472212D01*
X0137069Y0472446D01*
X0136884Y0472676D01*
X0136694Y0472900D01*
X0136498Y0473121D01*
X0136297Y0473336D01*
X0136090Y0473546D01*
X0135879Y0473751D01*
X0135662Y0473951D01*
X0135441Y0474146D01*
X0135215Y0474335D01*
X0134985Y0474518D01*
X0134750Y0474696D01*
X0134510Y0474868D01*
X0134267Y0475034D01*
X0134020Y0475194D01*
X0133769Y0475348D01*
X0133514Y0475496D01*
X0133255Y0475638D01*
X0132994Y0475773D01*
X0132729Y0475902D01*
X0132461Y0476024D01*
X0132190Y0476140D01*
X0131916Y0476249D01*
X0131640Y0476351D01*
X0131361Y0476446D01*
X0131080Y0476535D01*
X0130797Y0476617D01*
X0130512Y0476692D01*
X0130225Y0476759D01*
X0129937Y0476820D01*
X0129647Y0476874D01*
X0129356Y0476921D01*
X0129064Y0476960D01*
X0128772Y0476992D01*
X0128478Y0477018D01*
X0128184Y0477036D01*
X0127890Y0477046D01*
X0127595Y0477050D01*
X0127300Y0477046D01*
X0127006Y0477036D01*
X0126712Y0477018D01*
X0126418Y0476992D01*
X0126126Y0476960D01*
X0125834Y0476921D01*
X0125543Y0476874D01*
X0125253Y0476820D01*
X0124965Y0476759D01*
X0124678Y0476692D01*
X0124393Y0476617D01*
X0124110Y0476535D01*
X0123829Y0476446D01*
X0123550Y0476351D01*
X0123274Y0476249D01*
X0123000Y0476140D01*
X0122729Y0476024D01*
X0122461Y0475902D01*
X0122196Y0475773D01*
X0121935Y0475638D01*
X0121676Y0475496D01*
X0121421Y0475348D01*
X0121170Y0475194D01*
X0120923Y0475034D01*
X0120680Y0474868D01*
X0120440Y0474696D01*
X0120205Y0474518D01*
X0119975Y0474335D01*
X0119749Y0474146D01*
X0119528Y0473951D01*
X0119311Y0473751D01*
X0119100Y0473546D01*
X0118893Y0473336D01*
X0118692Y0473121D01*
X0118496Y0472900D01*
X0118306Y0472676D01*
X0118121Y0472446D01*
X0117942Y0472212D01*
X0117768Y0471974D01*
X0117601Y0471732D01*
X0117439Y0471486D01*
X0117284Y0471235D01*
X0117134Y0470981D01*
X0116991Y0470724D01*
X0116854Y0470463D01*
X0116724Y0470199D01*
X0116600Y0469931D01*
X0116483Y0469661D01*
X0116372Y0469388D01*
X0116268Y0469112D01*
X0116171Y0468834D01*
X0116081Y0468554D01*
X0115998Y0468271D01*
X0115921Y0467987D01*
X0115851Y0467700D01*
X0115789Y0467413D01*
X0115734Y0467123D01*
X0115685Y0466833D01*
X0115644Y0466541D01*
X0115610Y0466248D01*
X0115583Y0465955D01*
X0115563Y0465661D01*
X0115551Y0465367D01*
X0115545Y0465072D01*
X0115547Y0464777D01*
X0115556Y0464483D01*
X0115572Y0464189D01*
X0115596Y0463895D01*
X0115626Y0463602D01*
X0115664Y0463310D01*
X0115709Y0463019D01*
X0115761Y0462729D01*
X0115820Y0462440D01*
X0115886Y0462153D01*
X0115959Y0461867D01*
X0116039Y0461584D01*
X0116126Y0461302D01*
X0116220Y0461023D01*
X0116321Y0460746D01*
X0116428Y0460472D01*
X0116542Y0460200D01*
X0116663Y0459931D01*
X0116790Y0459666D01*
X0116924Y0459403D01*
X0117064Y0459144D01*
X0117210Y0458888D01*
X0117363Y0458636D01*
X0117521Y0458388D01*
X0117686Y0458144D01*
X0117856Y0457903D01*
X0118033Y0457667D01*
X0118215Y0457436D01*
X0118403Y0457209D01*
X0118596Y0456986D01*
X0118795Y0456769D01*
X0118998Y0456556D01*
X0119207Y0456348D01*
X0119421Y0456146D01*
X0119640Y0455949D01*
X0119864Y0455757D01*
X0120092Y0455571D01*
X0120325Y0455390D01*
X0119786Y0454671D01*
X0119785Y0454670D01*
X0119535Y0454864D01*
X0119289Y0455064D01*
X0119049Y0455270D01*
X0118814Y0455482D01*
X0118584Y0455700D01*
X0118359Y0455923D01*
X0118140Y0456151D01*
X0117926Y0456385D01*
X0117718Y0456624D01*
X0117516Y0456868D01*
X0117321Y0457117D01*
X0117131Y0457371D01*
X0116948Y0457629D01*
X0116771Y0457891D01*
X0116600Y0458158D01*
X0116436Y0458429D01*
X0116279Y0458704D01*
X0116128Y0458982D01*
X0115984Y0459265D01*
X0115848Y0459550D01*
X0115718Y0459839D01*
X0115595Y0460131D01*
X0115480Y0460426D01*
X0115372Y0460723D01*
X0115271Y0461024D01*
X0115177Y0461326D01*
X0115091Y0461631D01*
X0115012Y0461938D01*
X0114941Y0462246D01*
X0114878Y0462556D01*
X0114822Y0462868D01*
X0114773Y0463181D01*
X0114733Y0463495D01*
X0114700Y0463810D01*
X0114675Y0464126D01*
X0114657Y0464442D01*
X0114647Y0464758D01*
X0114645Y0465075D01*
X0114651Y0465392D01*
X0114664Y0465708D01*
X0114686Y0466024D01*
X0114714Y0466339D01*
X0114751Y0466654D01*
X0114795Y0466967D01*
X0114847Y0467280D01*
X0114907Y0467591D01*
X0114974Y0467900D01*
X0115049Y0468208D01*
X0115131Y0468514D01*
X0115220Y0468817D01*
X0115317Y0469119D01*
X0115422Y0469418D01*
X0115534Y0469714D01*
X0115652Y0470008D01*
X0115778Y0470298D01*
X0115911Y0470585D01*
X0116052Y0470870D01*
X0116199Y0471150D01*
X0116352Y0471427D01*
X0116513Y0471700D01*
X0116680Y0471969D01*
X0116854Y0472234D01*
X0117034Y0472494D01*
X0117220Y0472750D01*
X0117413Y0473001D01*
X0117611Y0473248D01*
X0117816Y0473490D01*
X0118026Y0473726D01*
X0118243Y0473958D01*
X0118465Y0474183D01*
X0118692Y0474404D01*
X0118924Y0474619D01*
X0119162Y0474828D01*
X0119405Y0475031D01*
X0119653Y0475229D01*
X0119905Y0475420D01*
X0120162Y0475605D01*
X0120424Y0475783D01*
X0120690Y0475955D01*
X0120959Y0476121D01*
X0121233Y0476280D01*
X0121511Y0476432D01*
X0121792Y0476577D01*
X0122077Y0476716D01*
X0122365Y0476847D01*
X0122657Y0476971D01*
X0122951Y0477089D01*
X0123248Y0477199D01*
X0123547Y0477301D01*
X0123849Y0477396D01*
X0124153Y0477484D01*
X0124460Y0477565D01*
X0124768Y0477638D01*
X0125078Y0477703D01*
X0125389Y0477761D01*
X0125702Y0477811D01*
X0126016Y0477853D01*
X0126330Y0477888D01*
X0126646Y0477915D01*
X0126962Y0477935D01*
X0127278Y0477946D01*
X0127595Y0477950D01*
X0127912Y0477946D01*
X0128228Y0477935D01*
X0128544Y0477915D01*
X0128860Y0477888D01*
X0129174Y0477853D01*
X0129488Y0477811D01*
X0129801Y0477761D01*
X0130112Y0477703D01*
X0130422Y0477638D01*
X0130730Y0477565D01*
X0131037Y0477484D01*
X0131341Y0477396D01*
X0131643Y0477301D01*
X0131942Y0477199D01*
X0132239Y0477089D01*
X0132533Y0476971D01*
X0132825Y0476847D01*
X0133113Y0476716D01*
X0133398Y0476577D01*
X0133679Y0476432D01*
X0133957Y0476280D01*
X0134231Y0476121D01*
X0134500Y0475955D01*
X0134766Y0475783D01*
X0135028Y0475605D01*
X0135285Y0475420D01*
X0135537Y0475229D01*
X0135785Y0475031D01*
X0136028Y0474828D01*
X0136266Y0474619D01*
X0136498Y0474404D01*
X0136725Y0474183D01*
X0136947Y0473958D01*
X0137164Y0473726D01*
X0137374Y0473490D01*
X0137579Y0473248D01*
X0137777Y0473001D01*
X0137970Y0472750D01*
X0138156Y0472494D01*
X0138336Y0472234D01*
X0138510Y0471969D01*
X0138677Y0471700D01*
X0138838Y0471427D01*
X0138991Y0471150D01*
X0139138Y0470870D01*
X0139279Y0470585D01*
X0139412Y0470298D01*
X0139538Y0470008D01*
X0139656Y0469714D01*
X0139768Y0469418D01*
X0139873Y0469119D01*
X0139970Y0468817D01*
X0140059Y0468514D01*
X0140141Y0468208D01*
X0140216Y0467900D01*
X0140283Y0467591D01*
X0140343Y0467280D01*
X0140395Y0466967D01*
X0140439Y0466654D01*
X0140476Y0466339D01*
X0140504Y0466024D01*
X0140526Y0465708D01*
X0140539Y0465392D01*
X0140545Y0465075D01*
X0140543Y0464758D01*
X0140533Y0464442D01*
X0140515Y0464126D01*
X0140490Y0463810D01*
X0140457Y0463495D01*
X0140417Y0463181D01*
X0140368Y0462868D01*
X0140312Y0462556D01*
X0140249Y0462246D01*
X0140178Y0461938D01*
X0140099Y0461631D01*
X0140013Y0461326D01*
X0139919Y0461024D01*
X0139818Y0460723D01*
X0139710Y0460426D01*
X0139595Y0460131D01*
X0139472Y0459839D01*
X0139342Y0459550D01*
X0139206Y0459265D01*
X0139062Y0458982D01*
X0138911Y0458704D01*
X0138754Y0458429D01*
X0138590Y0458158D01*
X0138419Y0457891D01*
X0138242Y0457629D01*
X0138059Y0457371D01*
X0137869Y0457117D01*
X0137674Y0456868D01*
X0137472Y0456624D01*
X0137264Y0456385D01*
X0137050Y0456151D01*
X0136831Y0455923D01*
X0136606Y0455700D01*
X0136376Y0455482D01*
X0136141Y0455270D01*
X0135901Y0455064D01*
X0135655Y0454864D01*
X0135405Y0454670D01*
X0135349Y0454745D01*
X0135597Y0454938D01*
X0135841Y0455137D01*
X0136079Y0455341D01*
X0136313Y0455551D01*
X0136541Y0455767D01*
X0136764Y0455989D01*
X0136982Y0456216D01*
X0137194Y0456448D01*
X0137400Y0456685D01*
X0137601Y0456927D01*
X0137795Y0457175D01*
X0137983Y0457426D01*
X0138165Y0457683D01*
X0138341Y0457943D01*
X0138510Y0458208D01*
X0138673Y0458477D01*
X0138829Y0458750D01*
X0138979Y0459026D01*
X0139121Y0459306D01*
X0139257Y0459590D01*
X0139386Y0459877D01*
X0139508Y0460167D01*
X0139622Y0460459D01*
X0139730Y0460755D01*
X0139830Y0461053D01*
X0139923Y0461353D01*
X0140008Y0461656D01*
X0140086Y0461960D01*
X0140157Y0462266D01*
X0140220Y0462574D01*
X0140276Y0462884D01*
X0140324Y0463194D01*
X0140364Y0463506D01*
X0140397Y0463819D01*
X0140422Y0464132D01*
X0140439Y0464446D01*
X0140449Y0464760D01*
X0140451Y0465075D01*
X0140445Y0465389D01*
X0140432Y0465703D01*
X0140411Y0466017D01*
X0140382Y0466330D01*
X0140346Y0466642D01*
X0140302Y0466953D01*
X0140250Y0467263D01*
X0140191Y0467572D01*
X0140124Y0467879D01*
X0140050Y0468185D01*
X0139969Y0468488D01*
X0139880Y0468790D01*
X0139783Y0469089D01*
X0139680Y0469386D01*
X0139569Y0469680D01*
X0139451Y0469971D01*
X0139326Y0470260D01*
X0139194Y0470545D01*
X0139055Y0470827D01*
X0138909Y0471105D01*
X0138756Y0471380D01*
X0138597Y0471651D01*
X0138431Y0471918D01*
X0138258Y0472181D01*
X0138080Y0472440D01*
X0137895Y0472694D01*
X0137703Y0472943D01*
X0137506Y0473188D01*
X0137303Y0473428D01*
X0137094Y0473663D01*
X0136879Y0473893D01*
X0136659Y0474117D01*
X0136434Y0474336D01*
X0136203Y0474549D01*
X0135967Y0474757D01*
X0135725Y0474959D01*
X0135480Y0475154D01*
X0135229Y0475344D01*
X0134974Y0475528D01*
X0134714Y0475705D01*
X0134450Y0475876D01*
X0134182Y0476040D01*
X0133910Y0476198D01*
X0133635Y0476349D01*
X0133355Y0476493D01*
X0133073Y0476631D01*
X0132787Y0476761D01*
X0132498Y0476885D01*
X0132205Y0477001D01*
X0131911Y0477110D01*
X0131613Y0477212D01*
X0131314Y0477306D01*
X0131011Y0477394D01*
X0130707Y0477474D01*
X0130402Y0477546D01*
X0130094Y0477611D01*
X0129785Y0477668D01*
X0129474Y0477718D01*
X0129163Y0477760D01*
X0128850Y0477795D01*
X0128537Y0477821D01*
X0128223Y0477841D01*
X0127909Y0477852D01*
X0127595Y0477856D01*
X0127281Y0477852D01*
X0126967Y0477841D01*
X0126653Y0477821D01*
X0126340Y0477795D01*
X0126027Y0477760D01*
X0125716Y0477718D01*
X0125405Y0477668D01*
X0125096Y0477611D01*
X0124788Y0477546D01*
X0124483Y0477474D01*
X0124179Y0477394D01*
X0123876Y0477306D01*
X0123577Y0477212D01*
X0123279Y0477110D01*
X0122985Y0477001D01*
X0122692Y0476885D01*
X0122403Y0476761D01*
X0122117Y0476631D01*
X0121835Y0476493D01*
X0121555Y0476349D01*
X0121280Y0476198D01*
X0121008Y0476040D01*
X0120740Y0475876D01*
X0120476Y0475705D01*
X0120216Y0475528D01*
X0119961Y0475344D01*
X0119710Y0475154D01*
X0119465Y0474959D01*
X0119223Y0474757D01*
X0118987Y0474549D01*
X0118756Y0474336D01*
X0118531Y0474117D01*
X0118311Y0473893D01*
X0118096Y0473663D01*
X0117887Y0473428D01*
X0117684Y0473188D01*
X0117487Y0472943D01*
X0117295Y0472694D01*
X0117110Y0472440D01*
X0116932Y0472181D01*
X0116759Y0471918D01*
X0116593Y0471651D01*
X0116434Y0471380D01*
X0116281Y0471105D01*
X0116135Y0470827D01*
X0115996Y0470545D01*
X0115864Y0470260D01*
X0115739Y0469971D01*
X0115621Y0469680D01*
X0115510Y0469386D01*
X0115407Y0469089D01*
X0115310Y0468790D01*
X0115221Y0468488D01*
X0115140Y0468185D01*
X0115066Y0467879D01*
X0114999Y0467572D01*
X0114940Y0467263D01*
X0114888Y0466953D01*
X0114844Y0466642D01*
X0114808Y0466330D01*
X0114779Y0466017D01*
X0114758Y0465703D01*
X0114745Y0465389D01*
X0114739Y0465075D01*
X0114741Y0464760D01*
X0114751Y0464446D01*
X0114768Y0464132D01*
X0114793Y0463819D01*
X0114826Y0463506D01*
X0114866Y0463194D01*
X0114914Y0462884D01*
X0114970Y0462574D01*
X0115033Y0462266D01*
X0115104Y0461960D01*
X0115182Y0461656D01*
X0115267Y0461353D01*
X0115360Y0461053D01*
X0115460Y0460755D01*
X0115568Y0460459D01*
X0115682Y0460167D01*
X0115804Y0459877D01*
X0115933Y0459590D01*
X0116069Y0459306D01*
X0116211Y0459026D01*
X0116361Y0458750D01*
X0116517Y0458477D01*
X0116680Y0458208D01*
X0116849Y0457943D01*
X0117025Y0457683D01*
X0117207Y0457426D01*
X0117395Y0457175D01*
X0117589Y0456927D01*
X0117790Y0456685D01*
X0117996Y0456448D01*
X0118208Y0456216D01*
X0118426Y0455989D01*
X0118649Y0455767D01*
X0118877Y0455551D01*
X0119111Y0455341D01*
X0119349Y0455137D01*
X0119593Y0454938D01*
X0119841Y0454745D01*
X0119898Y0454820D01*
X0119651Y0455012D01*
X0119409Y0455209D01*
X0119172Y0455412D01*
X0118941Y0455621D01*
X0118714Y0455835D01*
X0118492Y0456055D01*
X0118276Y0456280D01*
X0118066Y0456511D01*
X0117861Y0456746D01*
X0117662Y0456987D01*
X0117469Y0457232D01*
X0117283Y0457482D01*
X0117102Y0457736D01*
X0116927Y0457995D01*
X0116759Y0458258D01*
X0116598Y0458525D01*
X0116443Y0458796D01*
X0116294Y0459070D01*
X0116153Y0459348D01*
X0116018Y0459630D01*
X0115890Y0459914D01*
X0115769Y0460202D01*
X0115655Y0460493D01*
X0115549Y0460786D01*
X0115449Y0461082D01*
X0115357Y0461380D01*
X0115272Y0461680D01*
X0115195Y0461983D01*
X0115125Y0462287D01*
X0115062Y0462592D01*
X0115007Y0462899D01*
X0114959Y0463208D01*
X0114919Y0463517D01*
X0114887Y0463828D01*
X0114862Y0464139D01*
X0114845Y0464450D01*
X0114835Y0464762D01*
X0114833Y0465074D01*
X0114839Y0465386D01*
X0114852Y0465698D01*
X0114873Y0466009D01*
X0114901Y0466320D01*
X0114938Y0466630D01*
X0114981Y0466939D01*
X0115032Y0467247D01*
X0115091Y0467554D01*
X0115157Y0467858D01*
X0115231Y0468162D01*
X0115312Y0468463D01*
X0115400Y0468762D01*
X0115496Y0469059D01*
X0115599Y0469354D01*
X0115709Y0469646D01*
X0115826Y0469935D01*
X0115950Y0470222D01*
X0116081Y0470505D01*
X0116219Y0470785D01*
X0116364Y0471061D01*
X0116516Y0471334D01*
X0116674Y0471603D01*
X0116839Y0471868D01*
X0117010Y0472129D01*
X0117187Y0472385D01*
X0117371Y0472638D01*
X0117561Y0472885D01*
X0117756Y0473128D01*
X0117958Y0473367D01*
X0118166Y0473600D01*
X0118379Y0473828D01*
X0118597Y0474050D01*
X0118821Y0474268D01*
X0119050Y0474479D01*
X0119285Y0474685D01*
X0119524Y0474886D01*
X0119768Y0475080D01*
X0120017Y0475268D01*
X0120270Y0475451D01*
X0120528Y0475627D01*
X0120790Y0475796D01*
X0121056Y0475959D01*
X0121326Y0476116D01*
X0121600Y0476266D01*
X0121877Y0476409D01*
X0122157Y0476546D01*
X0122441Y0476675D01*
X0122728Y0476798D01*
X0123018Y0476913D01*
X0123311Y0477021D01*
X0123606Y0477123D01*
X0123904Y0477217D01*
X0124204Y0477303D01*
X0124505Y0477382D01*
X0124809Y0477454D01*
X0125114Y0477519D01*
X0125421Y0477576D01*
X0125729Y0477625D01*
X0126039Y0477667D01*
X0126349Y0477701D01*
X0126660Y0477728D01*
X0126971Y0477747D01*
X0127283Y0477758D01*
X0127595Y0477762D01*
X0127907Y0477758D01*
X0128219Y0477747D01*
X0128530Y0477728D01*
X0128841Y0477701D01*
X0129151Y0477667D01*
X0129461Y0477625D01*
X0129769Y0477576D01*
X0130076Y0477519D01*
X0130381Y0477454D01*
X0130685Y0477382D01*
X0130986Y0477303D01*
X0131286Y0477217D01*
X0131584Y0477123D01*
X0131879Y0477021D01*
X0132172Y0476913D01*
X0132462Y0476798D01*
X0132749Y0476675D01*
X0133033Y0476546D01*
X0133313Y0476409D01*
X0133590Y0476266D01*
X0133864Y0476116D01*
X0134134Y0475959D01*
X0134400Y0475796D01*
X0134662Y0475627D01*
X0134920Y0475451D01*
X0135173Y0475268D01*
X0135422Y0475080D01*
X0135666Y0474886D01*
X0135905Y0474685D01*
X0136140Y0474479D01*
X0136369Y0474268D01*
X0136593Y0474050D01*
X0136811Y0473828D01*
X0137024Y0473600D01*
X0137232Y0473367D01*
X0137434Y0473128D01*
X0137629Y0472885D01*
X0137819Y0472638D01*
X0138003Y0472385D01*
X0138180Y0472129D01*
X0138351Y0471868D01*
X0138516Y0471603D01*
X0138674Y0471334D01*
X0138826Y0471061D01*
X0138971Y0470785D01*
X0139109Y0470505D01*
X0139240Y0470222D01*
X0139364Y0469935D01*
X0139481Y0469646D01*
X0139591Y0469354D01*
X0139694Y0469059D01*
X0139790Y0468762D01*
X0139878Y0468463D01*
X0139959Y0468162D01*
X0140033Y0467858D01*
X0140099Y0467554D01*
X0140158Y0467247D01*
X0140209Y0466939D01*
X0140252Y0466630D01*
X0140289Y0466320D01*
X0140317Y0466009D01*
X0140338Y0465698D01*
X0140351Y0465386D01*
X0140357Y0465074D01*
X0140355Y0464762D01*
X0140345Y0464450D01*
X0140328Y0464139D01*
X0140303Y0463828D01*
X0140271Y0463517D01*
X0140231Y0463208D01*
X0140183Y0462899D01*
X0140128Y0462592D01*
X0140065Y0462287D01*
X0139995Y0461983D01*
X0139918Y0461680D01*
X0139833Y0461380D01*
X0139741Y0461082D01*
X0139641Y0460786D01*
X0139535Y0460493D01*
X0139421Y0460202D01*
X0139300Y0459914D01*
X0139172Y0459630D01*
X0139037Y0459348D01*
X0138896Y0459070D01*
X0138747Y0458796D01*
X0138592Y0458525D01*
X0138431Y0458258D01*
X0138263Y0457995D01*
X0138088Y0457736D01*
X0137907Y0457482D01*
X0137721Y0457232D01*
X0137528Y0456987D01*
X0137329Y0456746D01*
X0137124Y0456511D01*
X0136914Y0456280D01*
X0136698Y0456055D01*
X0136476Y0455835D01*
X0136249Y0455621D01*
X0136018Y0455412D01*
X0135781Y0455209D01*
X0135539Y0455012D01*
X0135292Y0454820D01*
X0135236Y0454896D01*
X0135481Y0455086D01*
X0135721Y0455281D01*
X0135956Y0455483D01*
X0136186Y0455690D01*
X0136411Y0455903D01*
X0136631Y0456121D01*
X0136845Y0456345D01*
X0137054Y0456574D01*
X0137257Y0456807D01*
X0137455Y0457046D01*
X0137646Y0457289D01*
X0137832Y0457538D01*
X0138011Y0457790D01*
X0138184Y0458047D01*
X0138351Y0458308D01*
X0138512Y0458573D01*
X0138665Y0458842D01*
X0138813Y0459114D01*
X0138953Y0459390D01*
X0139087Y0459670D01*
X0139214Y0459952D01*
X0139334Y0460238D01*
X0139447Y0460526D01*
X0139553Y0460817D01*
X0139651Y0461111D01*
X0139743Y0461407D01*
X0139827Y0461705D01*
X0139904Y0462005D01*
X0139973Y0462307D01*
X0140036Y0462610D01*
X0140090Y0462915D01*
X0140138Y0463221D01*
X0140177Y0463529D01*
X0140209Y0463837D01*
X0140234Y0464145D01*
X0140251Y0464455D01*
X0140261Y0464764D01*
X0140263Y0465074D01*
X0140257Y0465384D01*
X0140244Y0465693D01*
X0140223Y0466002D01*
X0140195Y0466311D01*
X0140159Y0466618D01*
X0140116Y0466925D01*
X0140065Y0467231D01*
X0140007Y0467535D01*
X0139941Y0467838D01*
X0139868Y0468139D01*
X0139788Y0468438D01*
X0139700Y0468735D01*
X0139605Y0469030D01*
X0139503Y0469322D01*
X0139394Y0469612D01*
X0139277Y0469899D01*
X0139154Y0470183D01*
X0139024Y0470464D01*
X0138887Y0470742D01*
X0138743Y0471016D01*
X0138593Y0471287D01*
X0138436Y0471554D01*
X0138272Y0471817D01*
X0138102Y0472076D01*
X0137926Y0472331D01*
X0137744Y0472582D01*
X0137555Y0472827D01*
X0137361Y0473069D01*
X0137161Y0473305D01*
X0136955Y0473536D01*
X0136743Y0473763D01*
X0136526Y0473984D01*
X0136304Y0474199D01*
X0136077Y0474410D01*
X0135844Y0474614D01*
X0135606Y0474813D01*
X0135364Y0475006D01*
X0135117Y0475193D01*
X0134866Y0475374D01*
X0134610Y0475548D01*
X0134350Y0475717D01*
X0134086Y0475879D01*
X0133818Y0476034D01*
X0133546Y0476183D01*
X0133271Y0476325D01*
X0132992Y0476461D01*
X0132711Y0476589D01*
X0132426Y0476711D01*
X0132138Y0476825D01*
X0131847Y0476933D01*
X0131554Y0477033D01*
X0131259Y0477127D01*
X0130961Y0477213D01*
X0130662Y0477291D01*
X0130360Y0477362D01*
X0130057Y0477426D01*
X0129753Y0477483D01*
X0129447Y0477532D01*
X0129140Y0477573D01*
X0128832Y0477607D01*
X0128523Y0477634D01*
X0128214Y0477653D01*
X0127905Y0477664D01*
X0127595Y0477668D01*
X0127285Y0477664D01*
X0126976Y0477653D01*
X0126667Y0477634D01*
X0126358Y0477607D01*
X0126050Y0477573D01*
X0125743Y0477532D01*
X0125437Y0477483D01*
X0125133Y0477426D01*
X0124830Y0477362D01*
X0124528Y0477291D01*
X0124229Y0477213D01*
X0123931Y0477127D01*
X0123636Y0477033D01*
X0123343Y0476933D01*
X0123052Y0476825D01*
X0122764Y0476711D01*
X0122479Y0476589D01*
X0122198Y0476461D01*
X0121919Y0476325D01*
X0121644Y0476183D01*
X0121372Y0476034D01*
X0121104Y0475879D01*
X0120840Y0475717D01*
X0120580Y0475548D01*
X0120324Y0475374D01*
X0120073Y0475193D01*
X0119826Y0475006D01*
X0119584Y0474813D01*
X0119346Y0474614D01*
X0119113Y0474410D01*
X0118886Y0474199D01*
X0118664Y0473984D01*
X0118447Y0473763D01*
X0118235Y0473536D01*
X0118029Y0473305D01*
X0117829Y0473069D01*
X0117635Y0472827D01*
X0117446Y0472582D01*
X0117264Y0472331D01*
X0117088Y0472076D01*
X0116918Y0471817D01*
X0116754Y0471554D01*
X0116597Y0471287D01*
X0116447Y0471016D01*
X0116303Y0470742D01*
X0116166Y0470464D01*
X0116036Y0470183D01*
X0115913Y0469899D01*
X0115796Y0469612D01*
X0115687Y0469322D01*
X0115585Y0469030D01*
X0115490Y0468735D01*
X0115402Y0468438D01*
X0115322Y0468139D01*
X0115249Y0467838D01*
X0115183Y0467535D01*
X0115125Y0467231D01*
X0115074Y0466925D01*
X0115031Y0466618D01*
X0114995Y0466311D01*
X0114967Y0466002D01*
X0114946Y0465693D01*
X0114933Y0465384D01*
X0114927Y0465074D01*
X0114929Y0464764D01*
X0114939Y0464455D01*
X0114956Y0464145D01*
X0114981Y0463837D01*
X0115013Y0463529D01*
X0115052Y0463221D01*
X0115100Y0462915D01*
X0115154Y0462610D01*
X0115217Y0462307D01*
X0115286Y0462005D01*
X0115363Y0461705D01*
X0115447Y0461407D01*
X0115539Y0461111D01*
X0115637Y0460817D01*
X0115743Y0460526D01*
X0115856Y0460238D01*
X0115976Y0459952D01*
X0116103Y0459670D01*
X0116237Y0459390D01*
X0116377Y0459114D01*
X0116525Y0458842D01*
X0116678Y0458573D01*
X0116839Y0458308D01*
X0117006Y0458047D01*
X0117179Y0457790D01*
X0117358Y0457538D01*
X0117544Y0457289D01*
X0117735Y0457046D01*
X0117933Y0456807D01*
X0118136Y0456574D01*
X0118345Y0456345D01*
X0118559Y0456121D01*
X0118779Y0455903D01*
X0119004Y0455690D01*
X0119234Y0455483D01*
X0119469Y0455281D01*
X0119709Y0455086D01*
X0119954Y0454896D01*
X0120011Y0454971D01*
X0119768Y0455159D01*
X0119529Y0455354D01*
X0119296Y0455554D01*
X0119068Y0455759D01*
X0118844Y0455971D01*
X0118626Y0456187D01*
X0118413Y0456409D01*
X0118206Y0456636D01*
X0118004Y0456868D01*
X0117808Y0457105D01*
X0117618Y0457347D01*
X0117434Y0457593D01*
X0117256Y0457844D01*
X0117084Y0458099D01*
X0116919Y0458358D01*
X0116759Y0458621D01*
X0116607Y0458888D01*
X0116460Y0459158D01*
X0116321Y0459432D01*
X0116188Y0459709D01*
X0116062Y0459990D01*
X0115943Y0460273D01*
X0115831Y0460560D01*
X0115726Y0460849D01*
X0115628Y0461140D01*
X0115537Y0461434D01*
X0115454Y0461730D01*
X0115377Y0462027D01*
X0115308Y0462327D01*
X0115247Y0462628D01*
X0115192Y0462931D01*
X0115146Y0463235D01*
X0115106Y0463540D01*
X0115074Y0463845D01*
X0115050Y0464152D01*
X0115033Y0464459D01*
X0115023Y0464766D01*
X0115021Y0465074D01*
X0115027Y0465381D01*
X0115040Y0465688D01*
X0115060Y0465995D01*
X0115089Y0466301D01*
X0115124Y0466607D01*
X0115167Y0466911D01*
X0115218Y0467214D01*
X0115275Y0467516D01*
X0115341Y0467817D01*
X0115413Y0468116D01*
X0115493Y0468412D01*
X0115580Y0468707D01*
X0115674Y0469000D01*
X0115776Y0469290D01*
X0115884Y0469578D01*
X0115999Y0469863D01*
X0116122Y0470145D01*
X0116251Y0470424D01*
X0116387Y0470700D01*
X0116530Y0470972D01*
X0116679Y0471241D01*
X0116835Y0471506D01*
X0116997Y0471767D01*
X0117166Y0472024D01*
X0117341Y0472277D01*
X0117522Y0472525D01*
X0117709Y0472769D01*
X0117902Y0473009D01*
X0118100Y0473243D01*
X0118305Y0473473D01*
X0118515Y0473698D01*
X0118730Y0473917D01*
X0118951Y0474131D01*
X0119176Y0474340D01*
X0119407Y0474543D01*
X0119643Y0474740D01*
X0119884Y0474932D01*
X0120129Y0475117D01*
X0120378Y0475297D01*
X0120632Y0475470D01*
X0120890Y0475637D01*
X0121152Y0475798D01*
X0121418Y0475952D01*
X0121688Y0476100D01*
X0121961Y0476241D01*
X0122238Y0476376D01*
X0122517Y0476503D01*
X0122800Y0476624D01*
X0123086Y0476738D01*
X0123374Y0476844D01*
X0123665Y0476944D01*
X0123958Y0477037D01*
X0124254Y0477122D01*
X0124551Y0477200D01*
X0124850Y0477271D01*
X0125151Y0477334D01*
X0125453Y0477390D01*
X0125757Y0477439D01*
X0126062Y0477480D01*
X0126367Y0477514D01*
X0126673Y0477540D01*
X0126980Y0477559D01*
X0127288Y0477570D01*
X0127595Y0477574D01*
X0127902Y0477570D01*
X0128210Y0477559D01*
X0128517Y0477540D01*
X0128823Y0477514D01*
X0129128Y0477480D01*
X0129433Y0477439D01*
X0129737Y0477390D01*
X0130039Y0477334D01*
X0130340Y0477271D01*
X0130639Y0477200D01*
X0130936Y0477122D01*
X0131232Y0477037D01*
X0131525Y0476944D01*
X0131816Y0476844D01*
X0132104Y0476738D01*
X0132390Y0476624D01*
X0132673Y0476503D01*
X0132952Y0476376D01*
X0133229Y0476241D01*
X0133502Y0476100D01*
X0133772Y0475952D01*
X0134038Y0475798D01*
X0134300Y0475637D01*
X0134558Y0475470D01*
X0134812Y0475297D01*
X0135061Y0475117D01*
X0135306Y0474932D01*
X0135547Y0474740D01*
X0135783Y0474543D01*
X0136014Y0474340D01*
X0136239Y0474131D01*
X0136460Y0473917D01*
X0136675Y0473698D01*
X0136885Y0473473D01*
X0137090Y0473243D01*
X0137288Y0473009D01*
X0137481Y0472769D01*
X0137668Y0472525D01*
X0137849Y0472277D01*
X0138024Y0472024D01*
X0138193Y0471767D01*
X0138355Y0471506D01*
X0138511Y0471241D01*
X0138660Y0470972D01*
X0138803Y0470700D01*
X0138939Y0470424D01*
X0139068Y0470145D01*
X0139191Y0469863D01*
X0139306Y0469578D01*
X0139414Y0469290D01*
X0139516Y0469000D01*
X0139610Y0468707D01*
X0139697Y0468412D01*
X0139777Y0468116D01*
X0139849Y0467817D01*
X0139915Y0467516D01*
X0139972Y0467214D01*
X0140023Y0466911D01*
X0140066Y0466607D01*
X0140101Y0466301D01*
X0140130Y0465995D01*
X0140150Y0465688D01*
X0140163Y0465381D01*
X0140169Y0465074D01*
X0140167Y0464766D01*
X0140157Y0464459D01*
X0140140Y0464152D01*
X0140116Y0463845D01*
X0140084Y0463540D01*
X0140044Y0463235D01*
X0139998Y0462931D01*
X0139943Y0462628D01*
X0139882Y0462327D01*
X0139813Y0462027D01*
X0139736Y0461730D01*
X0139653Y0461434D01*
X0139562Y0461140D01*
X0139464Y0460849D01*
X0139359Y0460560D01*
X0139247Y0460273D01*
X0139128Y0459990D01*
X0139002Y0459709D01*
X0138869Y0459432D01*
X0138730Y0459158D01*
X0138583Y0458888D01*
X0138431Y0458621D01*
X0138271Y0458358D01*
X0138106Y0458099D01*
X0137934Y0457844D01*
X0137756Y0457593D01*
X0137572Y0457347D01*
X0137382Y0457105D01*
X0137186Y0456868D01*
X0136984Y0456636D01*
X0136777Y0456409D01*
X0136564Y0456187D01*
X0136346Y0455971D01*
X0136122Y0455759D01*
X0135894Y0455554D01*
X0135661Y0455354D01*
X0135422Y0455159D01*
X0135179Y0454971D01*
X0135123Y0455046D01*
X0135364Y0455233D01*
X0135601Y0455426D01*
X0135832Y0455625D01*
X0136059Y0455829D01*
X0136281Y0456038D01*
X0136497Y0456253D01*
X0136708Y0456474D01*
X0136914Y0456699D01*
X0137114Y0456929D01*
X0137309Y0457165D01*
X0137497Y0457404D01*
X0137680Y0457649D01*
X0137857Y0457898D01*
X0138027Y0458151D01*
X0138192Y0458408D01*
X0138350Y0458669D01*
X0138501Y0458934D01*
X0138646Y0459202D01*
X0138785Y0459474D01*
X0138917Y0459749D01*
X0139042Y0460028D01*
X0139160Y0460309D01*
X0139271Y0460593D01*
X0139375Y0460880D01*
X0139473Y0461169D01*
X0139563Y0461461D01*
X0139646Y0461754D01*
X0139721Y0462050D01*
X0139790Y0462347D01*
X0139851Y0462646D01*
X0139905Y0462947D01*
X0139951Y0463248D01*
X0139991Y0463551D01*
X0140022Y0463854D01*
X0140047Y0464159D01*
X0140063Y0464463D01*
X0140073Y0464768D01*
X0140075Y0465073D01*
X0140069Y0465378D01*
X0140056Y0465683D01*
X0140036Y0465988D01*
X0140008Y0466292D01*
X0139973Y0466595D01*
X0139930Y0466897D01*
X0139880Y0467198D01*
X0139823Y0467498D01*
X0139758Y0467796D01*
X0139686Y0468092D01*
X0139607Y0468387D01*
X0139520Y0468680D01*
X0139427Y0468970D01*
X0139326Y0469258D01*
X0139218Y0469544D01*
X0139104Y0469827D01*
X0138982Y0470107D01*
X0138854Y0470384D01*
X0138719Y0470657D01*
X0138578Y0470927D01*
X0138429Y0471194D01*
X0138275Y0471457D01*
X0138114Y0471716D01*
X0137946Y0471972D01*
X0137773Y0472223D01*
X0137593Y0472469D01*
X0137407Y0472711D01*
X0137216Y0472949D01*
X0137019Y0473182D01*
X0136816Y0473410D01*
X0136607Y0473633D01*
X0136394Y0473851D01*
X0136175Y0474063D01*
X0135951Y0474270D01*
X0135721Y0474472D01*
X0135487Y0474668D01*
X0135249Y0474858D01*
X0135005Y0475042D01*
X0134758Y0475220D01*
X0134506Y0475392D01*
X0134249Y0475558D01*
X0133989Y0475717D01*
X0133725Y0475871D01*
X0133458Y0476017D01*
X0133187Y0476157D01*
X0132912Y0476291D01*
X0132635Y0476417D01*
X0132354Y0476537D01*
X0132070Y0476650D01*
X0131784Y0476756D01*
X0131496Y0476855D01*
X0131205Y0476947D01*
X0130911Y0477031D01*
X0130616Y0477109D01*
X0130319Y0477179D01*
X0130021Y0477242D01*
X0129721Y0477298D01*
X0129419Y0477346D01*
X0129117Y0477387D01*
X0128814Y0477420D01*
X0128510Y0477446D01*
X0128205Y0477465D01*
X0127900Y0477476D01*
X0127595Y0477480D01*
X0127290Y0477476D01*
X0126985Y0477465D01*
X0126680Y0477446D01*
X0126376Y0477420D01*
X0126073Y0477387D01*
X0125771Y0477346D01*
X0125469Y0477298D01*
X0125169Y0477242D01*
X0124871Y0477179D01*
X0124574Y0477109D01*
X0124279Y0477031D01*
X0123985Y0476947D01*
X0123694Y0476855D01*
X0123406Y0476756D01*
X0123120Y0476650D01*
X0122836Y0476537D01*
X0122555Y0476417D01*
X0122278Y0476291D01*
X0122003Y0476157D01*
X0121732Y0476017D01*
X0121465Y0475871D01*
X0121201Y0475717D01*
X0120941Y0475558D01*
X0120684Y0475392D01*
X0120432Y0475220D01*
X0120185Y0475042D01*
X0119941Y0474858D01*
X0119703Y0474668D01*
X0119469Y0474472D01*
X0119239Y0474270D01*
X0119015Y0474063D01*
X0118796Y0473851D01*
X0118583Y0473633D01*
X0118374Y0473410D01*
X0118171Y0473182D01*
X0117974Y0472949D01*
X0117783Y0472711D01*
X0117597Y0472469D01*
X0117417Y0472223D01*
X0117244Y0471972D01*
X0117076Y0471716D01*
X0116915Y0471457D01*
X0116761Y0471194D01*
X0116612Y0470927D01*
X0116471Y0470657D01*
X0116336Y0470384D01*
X0116208Y0470107D01*
X0116086Y0469827D01*
X0115972Y0469544D01*
X0115864Y0469258D01*
X0115763Y0468970D01*
X0115670Y0468680D01*
X0115583Y0468387D01*
X0115504Y0468092D01*
X0115432Y0467796D01*
X0115367Y0467498D01*
X0115310Y0467198D01*
X0115260Y0466897D01*
X0115217Y0466595D01*
X0115182Y0466292D01*
X0115154Y0465988D01*
X0115134Y0465683D01*
X0115121Y0465378D01*
X0115115Y0465073D01*
X0115117Y0464768D01*
X0115127Y0464463D01*
X0115143Y0464159D01*
X0115168Y0463854D01*
X0115199Y0463551D01*
X0115239Y0463248D01*
X0115285Y0462947D01*
X0115339Y0462646D01*
X0115400Y0462347D01*
X0115469Y0462050D01*
X0115544Y0461754D01*
X0115627Y0461461D01*
X0115717Y0461169D01*
X0115815Y0460880D01*
X0115919Y0460593D01*
X0116030Y0460309D01*
X0116148Y0460028D01*
X0116273Y0459749D01*
X0116405Y0459474D01*
X0116544Y0459202D01*
X0116689Y0458934D01*
X0116840Y0458669D01*
X0116998Y0458408D01*
X0117163Y0458151D01*
X0117333Y0457898D01*
X0117510Y0457649D01*
X0117693Y0457404D01*
X0117881Y0457165D01*
X0118076Y0456929D01*
X0118276Y0456699D01*
X0118482Y0456474D01*
X0118693Y0456253D01*
X0118909Y0456038D01*
X0119131Y0455829D01*
X0119358Y0455625D01*
X0119589Y0455426D01*
X0119826Y0455233D01*
X0120067Y0455046D01*
X0120123Y0455121D01*
X0119884Y0455307D01*
X0119649Y0455498D01*
X0119420Y0455695D01*
X0119195Y0455898D01*
X0118974Y0456106D01*
X0118760Y0456320D01*
X0118550Y0456538D01*
X0118346Y0456762D01*
X0118147Y0456990D01*
X0117954Y0457224D01*
X0117767Y0457462D01*
X0117586Y0457704D01*
X0117410Y0457951D01*
X0117241Y0458202D01*
X0117078Y0458458D01*
X0116921Y0458717D01*
X0116771Y0458980D01*
X0116627Y0459246D01*
X0116489Y0459516D01*
X0116358Y0459789D01*
X0116234Y0460065D01*
X0116117Y0460345D01*
X0116007Y0460627D01*
X0115903Y0460911D01*
X0115807Y0461198D01*
X0115717Y0461488D01*
X0115635Y0461779D01*
X0115560Y0462072D01*
X0115492Y0462368D01*
X0115431Y0462664D01*
X0115378Y0462962D01*
X0115332Y0463262D01*
X0115293Y0463562D01*
X0115261Y0463863D01*
X0115237Y0464165D01*
X0115220Y0464468D01*
X0115211Y0464770D01*
X0115209Y0465073D01*
X0115215Y0465376D01*
X0115228Y0465678D01*
X0115248Y0465981D01*
X0115276Y0466282D01*
X0115311Y0466583D01*
X0115353Y0466883D01*
X0115403Y0467182D01*
X0115460Y0467479D01*
X0115524Y0467775D01*
X0115595Y0468069D01*
X0115674Y0468362D01*
X0115760Y0468652D01*
X0115853Y0468941D01*
X0115952Y0469226D01*
X0116059Y0469510D01*
X0116173Y0469790D01*
X0116293Y0470068D01*
X0116421Y0470343D01*
X0116555Y0470615D01*
X0116695Y0470883D01*
X0116842Y0471148D01*
X0116996Y0471409D01*
X0117156Y0471666D01*
X0117322Y0471919D01*
X0117494Y0472168D01*
X0117672Y0472413D01*
X0117857Y0472654D01*
X0118047Y0472889D01*
X0118242Y0473120D01*
X0118444Y0473347D01*
X0118650Y0473568D01*
X0118863Y0473784D01*
X0119080Y0473995D01*
X0119302Y0474200D01*
X0119530Y0474400D01*
X0119762Y0474595D01*
X0119999Y0474783D01*
X0120241Y0474966D01*
X0120486Y0475143D01*
X0120737Y0475314D01*
X0120991Y0475478D01*
X0121249Y0475637D01*
X0121511Y0475789D01*
X0121776Y0475934D01*
X0122045Y0476073D01*
X0122318Y0476206D01*
X0122593Y0476331D01*
X0122872Y0476450D01*
X0123153Y0476562D01*
X0123437Y0476667D01*
X0123724Y0476766D01*
X0124013Y0476857D01*
X0124304Y0476941D01*
X0124597Y0477018D01*
X0124891Y0477087D01*
X0125188Y0477150D01*
X0125485Y0477205D01*
X0125784Y0477253D01*
X0126084Y0477294D01*
X0126386Y0477327D01*
X0126687Y0477353D01*
X0126990Y0477371D01*
X0127292Y0477382D01*
X0127595Y0477386D01*
X0127898Y0477382D01*
X0128200Y0477371D01*
X0128503Y0477353D01*
X0128804Y0477327D01*
X0129106Y0477294D01*
X0129406Y0477253D01*
X0129705Y0477205D01*
X0130002Y0477150D01*
X0130299Y0477087D01*
X0130593Y0477018D01*
X0130886Y0476941D01*
X0131177Y0476857D01*
X0131466Y0476766D01*
X0131753Y0476667D01*
X0132037Y0476562D01*
X0132318Y0476450D01*
X0132597Y0476331D01*
X0132872Y0476206D01*
X0133145Y0476073D01*
X0133414Y0475934D01*
X0133679Y0475789D01*
X0133941Y0475637D01*
X0134199Y0475478D01*
X0134453Y0475314D01*
X0134704Y0475143D01*
X0134949Y0474966D01*
X0135191Y0474783D01*
X0135428Y0474595D01*
X0135660Y0474400D01*
X0135888Y0474200D01*
X0136110Y0473995D01*
X0136327Y0473784D01*
X0136540Y0473568D01*
X0136746Y0473347D01*
X0136948Y0473120D01*
X0137143Y0472889D01*
X0137333Y0472654D01*
X0137518Y0472413D01*
X0137696Y0472168D01*
X0137868Y0471919D01*
X0138034Y0471666D01*
X0138194Y0471409D01*
X0138348Y0471148D01*
X0138495Y0470883D01*
X0138635Y0470615D01*
X0138769Y0470343D01*
X0138897Y0470068D01*
X0139017Y0469790D01*
X0139131Y0469510D01*
X0139238Y0469226D01*
X0139337Y0468941D01*
X0139430Y0468652D01*
X0139516Y0468362D01*
X0139595Y0468069D01*
X0139666Y0467775D01*
X0139730Y0467479D01*
X0139787Y0467182D01*
X0139837Y0466883D01*
X0139879Y0466583D01*
X0139914Y0466282D01*
X0139942Y0465981D01*
X0139962Y0465678D01*
X0139975Y0465376D01*
X0139981Y0465073D01*
X0139979Y0464770D01*
X0139970Y0464468D01*
X0139953Y0464165D01*
X0139929Y0463863D01*
X0139897Y0463562D01*
X0139858Y0463262D01*
X0139812Y0462962D01*
X0139759Y0462664D01*
X0139698Y0462368D01*
X0139630Y0462072D01*
X0139555Y0461779D01*
X0139473Y0461488D01*
X0139383Y0461198D01*
X0139287Y0460911D01*
X0139183Y0460627D01*
X0139073Y0460345D01*
X0138956Y0460065D01*
X0138832Y0459789D01*
X0138701Y0459516D01*
X0138563Y0459246D01*
X0138419Y0458980D01*
X0138269Y0458717D01*
X0138112Y0458458D01*
X0137949Y0458202D01*
X0137780Y0457951D01*
X0137604Y0457704D01*
X0137423Y0457462D01*
X0137236Y0457224D01*
X0137043Y0456990D01*
X0136844Y0456762D01*
X0136640Y0456538D01*
X0136430Y0456320D01*
X0136216Y0456106D01*
X0135995Y0455898D01*
X0135770Y0455695D01*
X0135541Y0455498D01*
X0135306Y0455307D01*
X0135067Y0455121D01*
X0135010Y0455196D01*
X0135248Y0455381D01*
X0135480Y0455571D01*
X0135709Y0455766D01*
X0135932Y0455967D01*
X0136150Y0456174D01*
X0136364Y0456386D01*
X0136572Y0456603D01*
X0136774Y0456825D01*
X0136971Y0457052D01*
X0137163Y0457283D01*
X0137349Y0457519D01*
X0137529Y0457760D01*
X0137703Y0458005D01*
X0137871Y0458254D01*
X0138033Y0458508D01*
X0138188Y0458765D01*
X0138337Y0459026D01*
X0138480Y0459290D01*
X0138617Y0459558D01*
X0138746Y0459829D01*
X0138869Y0460103D01*
X0138986Y0460380D01*
X0139095Y0460660D01*
X0139198Y0460943D01*
X0139294Y0461227D01*
X0139382Y0461515D01*
X0139464Y0461804D01*
X0139539Y0462095D01*
X0139606Y0462388D01*
X0139667Y0462682D01*
X0139720Y0462978D01*
X0139765Y0463275D01*
X0139804Y0463573D01*
X0139835Y0463872D01*
X0139859Y0464172D01*
X0139876Y0464472D01*
X0139885Y0464772D01*
X0139887Y0465073D01*
X0139881Y0465373D01*
X0139869Y0465674D01*
X0139848Y0465973D01*
X0139821Y0466273D01*
X0139786Y0466571D01*
X0139744Y0466869D01*
X0139695Y0467165D01*
X0139638Y0467460D01*
X0139574Y0467754D01*
X0139504Y0468046D01*
X0139426Y0468336D01*
X0139340Y0468625D01*
X0139248Y0468911D01*
X0139149Y0469195D01*
X0139043Y0469476D01*
X0138930Y0469754D01*
X0138811Y0470030D01*
X0138684Y0470303D01*
X0138551Y0470572D01*
X0138412Y0470838D01*
X0138266Y0471101D01*
X0138114Y0471360D01*
X0137955Y0471616D01*
X0137790Y0471867D01*
X0137619Y0472114D01*
X0137442Y0472357D01*
X0137259Y0472596D01*
X0137071Y0472830D01*
X0136877Y0473059D01*
X0136677Y0473283D01*
X0136472Y0473503D01*
X0136261Y0473717D01*
X0136045Y0473927D01*
X0135825Y0474131D01*
X0135599Y0474329D01*
X0135368Y0474522D01*
X0135133Y0474709D01*
X0134894Y0474891D01*
X0134650Y0475066D01*
X0134401Y0475236D01*
X0134149Y0475399D01*
X0133893Y0475556D01*
X0133633Y0475707D01*
X0133369Y0475851D01*
X0133102Y0475989D01*
X0132832Y0476121D01*
X0132559Y0476245D01*
X0132282Y0476363D01*
X0132003Y0476474D01*
X0131721Y0476579D01*
X0131437Y0476676D01*
X0131150Y0476767D01*
X0130861Y0476850D01*
X0130571Y0476926D01*
X0130278Y0476996D01*
X0129984Y0477058D01*
X0129689Y0477112D01*
X0129392Y0477160D01*
X0129094Y0477200D01*
X0128795Y0477233D01*
X0128496Y0477259D01*
X0128196Y0477277D01*
X0127896Y0477288D01*
X0127595Y0477292D01*
X0127294Y0477288D01*
X0126994Y0477277D01*
X0126694Y0477259D01*
X0126395Y0477233D01*
X0126096Y0477200D01*
X0125798Y0477160D01*
X0125501Y0477112D01*
X0125206Y0477058D01*
X0124912Y0476996D01*
X0124619Y0476926D01*
X0124329Y0476850D01*
X0124040Y0476767D01*
X0123753Y0476676D01*
X0123469Y0476579D01*
X0123187Y0476474D01*
X0122908Y0476363D01*
X0122631Y0476245D01*
X0122358Y0476121D01*
X0122088Y0475989D01*
X0121821Y0475851D01*
X0121557Y0475707D01*
X0121297Y0475556D01*
X0121041Y0475399D01*
X0120789Y0475236D01*
X0120540Y0475066D01*
X0120296Y0474891D01*
X0120057Y0474709D01*
X0119822Y0474522D01*
X0119591Y0474329D01*
X0119365Y0474131D01*
X0119145Y0473927D01*
X0118929Y0473717D01*
X0118718Y0473503D01*
X0118513Y0473283D01*
X0118313Y0473059D01*
X0118119Y0472830D01*
X0117931Y0472596D01*
X0117748Y0472357D01*
X0117571Y0472114D01*
X0117400Y0471867D01*
X0117235Y0471616D01*
X0117076Y0471360D01*
X0116924Y0471101D01*
X0116778Y0470838D01*
X0116639Y0470572D01*
X0116506Y0470303D01*
X0116379Y0470030D01*
X0116260Y0469754D01*
X0116147Y0469476D01*
X0116041Y0469195D01*
X0115942Y0468911D01*
X0115850Y0468625D01*
X0115764Y0468336D01*
X0115686Y0468046D01*
X0115616Y0467754D01*
X0115552Y0467460D01*
X0115495Y0467165D01*
X0115446Y0466869D01*
X0115404Y0466571D01*
X0115369Y0466273D01*
X0115342Y0465973D01*
X0115321Y0465674D01*
X0115309Y0465373D01*
X0115303Y0465073D01*
X0115305Y0464772D01*
X0115314Y0464472D01*
X0115331Y0464172D01*
X0115355Y0463872D01*
X0115386Y0463573D01*
X0115425Y0463275D01*
X0115470Y0462978D01*
X0115523Y0462682D01*
X0115584Y0462388D01*
X0115651Y0462095D01*
X0115726Y0461804D01*
X0115808Y0461515D01*
X0115896Y0461227D01*
X0115992Y0460943D01*
X0116095Y0460660D01*
X0116204Y0460380D01*
X0116321Y0460103D01*
X0116444Y0459829D01*
X0116573Y0459558D01*
X0116710Y0459290D01*
X0116853Y0459026D01*
X0117002Y0458765D01*
X0117157Y0458508D01*
X0117319Y0458254D01*
X0117487Y0458005D01*
X0117661Y0457760D01*
X0117841Y0457519D01*
X0118027Y0457283D01*
X0118219Y0457052D01*
X0118416Y0456825D01*
X0118618Y0456603D01*
X0118826Y0456386D01*
X0119040Y0456174D01*
X0119258Y0455967D01*
X0119481Y0455766D01*
X0119710Y0455571D01*
X0119942Y0455381D01*
X0120180Y0455196D01*
X0120236Y0455272D01*
X0120001Y0455454D01*
X0119770Y0455643D01*
X0119543Y0455837D01*
X0119321Y0456037D01*
X0119105Y0456242D01*
X0118893Y0456452D01*
X0118687Y0456667D01*
X0118486Y0456887D01*
X0118290Y0457113D01*
X0118100Y0457342D01*
X0117916Y0457577D01*
X0117737Y0457816D01*
X0117564Y0458059D01*
X0117398Y0458306D01*
X0117237Y0458558D01*
X0117083Y0458813D01*
X0116935Y0459072D01*
X0116793Y0459334D01*
X0116658Y0459600D01*
X0116529Y0459869D01*
X0116407Y0460141D01*
X0116291Y0460416D01*
X0116182Y0460694D01*
X0116081Y0460974D01*
X0115986Y0461257D01*
X0115898Y0461542D01*
X0115817Y0461829D01*
X0115742Y0462117D01*
X0115676Y0462408D01*
X0115616Y0462700D01*
X0115563Y0462994D01*
X0115518Y0463289D01*
X0115479Y0463584D01*
X0115448Y0463881D01*
X0115425Y0464178D01*
X0115408Y0464476D01*
X0115399Y0464774D01*
X0115397Y0465072D01*
X0115403Y0465371D01*
X0115415Y0465669D01*
X0115435Y0465966D01*
X0115463Y0466263D01*
X0115497Y0466559D01*
X0115539Y0466855D01*
X0115588Y0467149D01*
X0115644Y0467442D01*
X0115707Y0467733D01*
X0115778Y0468023D01*
X0115855Y0468311D01*
X0115939Y0468597D01*
X0116031Y0468881D01*
X0116129Y0469163D01*
X0116234Y0469442D01*
X0116346Y0469718D01*
X0116465Y0469992D01*
X0116590Y0470262D01*
X0116722Y0470530D01*
X0116861Y0470794D01*
X0117006Y0471055D01*
X0117157Y0471312D01*
X0117314Y0471565D01*
X0117478Y0471814D01*
X0117648Y0472060D01*
X0117823Y0472301D01*
X0118005Y0472538D01*
X0118192Y0472770D01*
X0118384Y0472997D01*
X0118583Y0473220D01*
X0118786Y0473438D01*
X0118995Y0473651D01*
X0119209Y0473859D01*
X0119429Y0474061D01*
X0119652Y0474258D01*
X0119881Y0474449D01*
X0120115Y0474635D01*
X0120352Y0474815D01*
X0120594Y0474989D01*
X0120841Y0475157D01*
X0121091Y0475319D01*
X0121345Y0475475D01*
X0121603Y0475625D01*
X0121865Y0475768D01*
X0122130Y0475905D01*
X0122398Y0476036D01*
X0122669Y0476159D01*
X0122944Y0476276D01*
X0123221Y0476387D01*
X0123501Y0476490D01*
X0123783Y0476587D01*
X0124067Y0476677D01*
X0124354Y0476759D01*
X0124642Y0476835D01*
X0124932Y0476904D01*
X0125224Y0476965D01*
X0125517Y0477020D01*
X0125812Y0477067D01*
X0126107Y0477107D01*
X0126404Y0477140D01*
X0126701Y0477165D01*
X0126999Y0477183D01*
X0127297Y0477194D01*
X0127595Y0477198D01*
X0127893Y0477194D01*
X0128191Y0477183D01*
X0128489Y0477165D01*
X0128786Y0477140D01*
X0129083Y0477107D01*
X0129378Y0477067D01*
X0129673Y0477020D01*
X0129966Y0476965D01*
X0130258Y0476904D01*
X0130548Y0476835D01*
X0130836Y0476759D01*
X0131123Y0476677D01*
X0131407Y0476587D01*
X0131689Y0476490D01*
X0131969Y0476387D01*
X0132246Y0476276D01*
X0132521Y0476159D01*
X0132792Y0476036D01*
X0133060Y0475905D01*
X0133325Y0475768D01*
X0133587Y0475625D01*
X0133845Y0475475D01*
X0134099Y0475319D01*
X0134349Y0475157D01*
X0134596Y0474989D01*
X0134838Y0474815D01*
X0135075Y0474635D01*
X0135309Y0474449D01*
X0135538Y0474258D01*
X0135761Y0474061D01*
X0135981Y0473859D01*
X0136195Y0473651D01*
X0136404Y0473438D01*
X0136607Y0473220D01*
X0136806Y0472997D01*
X0136998Y0472770D01*
X0137185Y0472538D01*
X0137367Y0472301D01*
X0137542Y0472060D01*
X0137712Y0471814D01*
X0137876Y0471565D01*
X0138033Y0471312D01*
X0138184Y0471055D01*
X0138329Y0470794D01*
X0138468Y0470530D01*
X0138600Y0470262D01*
X0138725Y0469992D01*
X0138844Y0469718D01*
X0138956Y0469442D01*
X0139061Y0469163D01*
X0139159Y0468881D01*
X0139251Y0468597D01*
X0139335Y0468311D01*
X0139412Y0468023D01*
X0139483Y0467733D01*
X0139546Y0467442D01*
X0139602Y0467149D01*
X0139651Y0466855D01*
X0139693Y0466559D01*
X0139727Y0466263D01*
X0139755Y0465966D01*
X0139775Y0465669D01*
X0139787Y0465371D01*
X0139793Y0465072D01*
X0139791Y0464774D01*
X0139782Y0464476D01*
X0139765Y0464178D01*
X0139742Y0463881D01*
X0139711Y0463584D01*
X0139672Y0463289D01*
X0139627Y0462994D01*
X0139574Y0462700D01*
X0139514Y0462408D01*
X0139448Y0462117D01*
X0139373Y0461829D01*
X0139292Y0461542D01*
X0139204Y0461257D01*
X0139109Y0460974D01*
X0139008Y0460694D01*
X0138899Y0460416D01*
X0138783Y0460141D01*
X0138661Y0459869D01*
X0138532Y0459600D01*
X0138397Y0459334D01*
X0138255Y0459072D01*
X0138107Y0458813D01*
X0137953Y0458558D01*
X0137792Y0458306D01*
X0137626Y0458059D01*
X0137453Y0457816D01*
X0137274Y0457577D01*
X0137090Y0457342D01*
X0136900Y0457113D01*
X0136704Y0456887D01*
X0136503Y0456667D01*
X0136297Y0456452D01*
X0136085Y0456242D01*
X0135869Y0456037D01*
X0135647Y0455837D01*
X0135420Y0455643D01*
X0135189Y0455454D01*
X0134954Y0455272D01*
X0134897Y0455347D01*
X0135131Y0455528D01*
X0135360Y0455715D01*
X0135585Y0455908D01*
X0135805Y0456106D01*
X0136020Y0456309D01*
X0136230Y0456518D01*
X0136435Y0456732D01*
X0136634Y0456950D01*
X0136828Y0457174D01*
X0137017Y0457402D01*
X0137200Y0457634D01*
X0137377Y0457871D01*
X0137548Y0458113D01*
X0137714Y0458358D01*
X0137873Y0458607D01*
X0138026Y0458861D01*
X0138173Y0459117D01*
X0138314Y0459378D01*
X0138448Y0459642D01*
X0138576Y0459909D01*
X0138697Y0460179D01*
X0138812Y0460451D01*
X0138920Y0460727D01*
X0139021Y0461005D01*
X0139115Y0461286D01*
X0139202Y0461568D01*
X0139283Y0461853D01*
X0139356Y0462140D01*
X0139423Y0462428D01*
X0139482Y0462718D01*
X0139534Y0463010D01*
X0139579Y0463302D01*
X0139617Y0463596D01*
X0139648Y0463890D01*
X0139672Y0464185D01*
X0139688Y0464480D01*
X0139697Y0464776D01*
X0139699Y0465072D01*
X0139693Y0465368D01*
X0139681Y0465664D01*
X0139661Y0465959D01*
X0139634Y0466254D01*
X0139600Y0466548D01*
X0139558Y0466841D01*
X0139510Y0467133D01*
X0139454Y0467423D01*
X0139391Y0467712D01*
X0139321Y0468000D01*
X0139244Y0468286D01*
X0139161Y0468570D01*
X0139070Y0468851D01*
X0138972Y0469131D01*
X0138868Y0469408D01*
X0138757Y0469682D01*
X0138639Y0469953D01*
X0138515Y0470222D01*
X0138384Y0470487D01*
X0138246Y0470749D01*
X0138103Y0471008D01*
X0137953Y0471263D01*
X0137796Y0471515D01*
X0137634Y0471762D01*
X0137466Y0472005D01*
X0137291Y0472245D01*
X0137111Y0472480D01*
X0136926Y0472710D01*
X0136734Y0472936D01*
X0136538Y0473157D01*
X0136336Y0473373D01*
X0136128Y0473584D01*
X0135916Y0473790D01*
X0135698Y0473991D01*
X0135476Y0474187D01*
X0135249Y0474377D01*
X0135018Y0474561D01*
X0134782Y0474739D01*
X0134542Y0474912D01*
X0134297Y0475079D01*
X0134049Y0475240D01*
X0133796Y0475395D01*
X0133540Y0475543D01*
X0133281Y0475685D01*
X0133018Y0475821D01*
X0132752Y0475951D01*
X0132483Y0476073D01*
X0132210Y0476190D01*
X0131935Y0476299D01*
X0131658Y0476402D01*
X0131378Y0476498D01*
X0131096Y0476587D01*
X0130811Y0476669D01*
X0130525Y0476744D01*
X0130237Y0476812D01*
X0129948Y0476873D01*
X0129657Y0476927D01*
X0129364Y0476974D01*
X0129071Y0477014D01*
X0128777Y0477046D01*
X0128482Y0477071D01*
X0128187Y0477090D01*
X0127891Y0477100D01*
X0127595Y0477104D01*
X0127299Y0477100D01*
X0127003Y0477090D01*
X0126708Y0477071D01*
X0126413Y0477046D01*
X0126119Y0477014D01*
X0125826Y0476974D01*
X0125533Y0476927D01*
X0125242Y0476873D01*
X0124953Y0476812D01*
X0124665Y0476744D01*
X0124379Y0476669D01*
X0124094Y0476587D01*
X0123812Y0476498D01*
X0123532Y0476402D01*
X0123255Y0476299D01*
X0122980Y0476190D01*
X0122707Y0476073D01*
X0122438Y0475951D01*
X0122172Y0475821D01*
X0121909Y0475685D01*
X0121650Y0475543D01*
X0121394Y0475395D01*
X0121141Y0475240D01*
X0120893Y0475079D01*
X0120648Y0474912D01*
X0120408Y0474739D01*
X0120172Y0474561D01*
X0119941Y0474377D01*
X0119714Y0474187D01*
X0119492Y0473991D01*
X0119274Y0473790D01*
X0119062Y0473584D01*
X0118854Y0473373D01*
X0118652Y0473157D01*
X0118456Y0472936D01*
X0118264Y0472710D01*
X0118079Y0472480D01*
X0117899Y0472245D01*
X0117724Y0472005D01*
X0117556Y0471762D01*
X0117394Y0471515D01*
X0117237Y0471263D01*
X0117087Y0471008D01*
X0116944Y0470749D01*
X0116806Y0470487D01*
X0116675Y0470222D01*
X0116551Y0469953D01*
X0116433Y0469682D01*
X0116322Y0469408D01*
X0116218Y0469131D01*
X0116120Y0468851D01*
X0116029Y0468570D01*
X0115946Y0468286D01*
X0115869Y0468000D01*
X0115799Y0467712D01*
X0115736Y0467423D01*
X0115680Y0467133D01*
X0115632Y0466841D01*
X0115590Y0466548D01*
X0115556Y0466254D01*
X0115529Y0465959D01*
X0115509Y0465664D01*
X0115497Y0465368D01*
X0115491Y0465072D01*
X0115493Y0464776D01*
X0115502Y0464480D01*
X0115518Y0464185D01*
X0115542Y0463890D01*
X0115573Y0463596D01*
X0115611Y0463302D01*
X0115656Y0463010D01*
X0115708Y0462718D01*
X0115767Y0462428D01*
X0115834Y0462140D01*
X0115907Y0461853D01*
X0115988Y0461568D01*
X0116075Y0461286D01*
X0116169Y0461005D01*
X0116270Y0460727D01*
X0116378Y0460451D01*
X0116493Y0460179D01*
X0116614Y0459909D01*
X0116742Y0459642D01*
X0116876Y0459378D01*
X0117017Y0459117D01*
X0117164Y0458861D01*
X0117317Y0458607D01*
X0117476Y0458358D01*
X0117642Y0458113D01*
X0117813Y0457871D01*
X0117990Y0457634D01*
X0118173Y0457402D01*
X0118362Y0457174D01*
X0118556Y0456950D01*
X0118755Y0456732D01*
X0118960Y0456518D01*
X0119170Y0456309D01*
X0119385Y0456106D01*
X0119605Y0455908D01*
X0119830Y0455715D01*
X0120059Y0455528D01*
X0120293Y0455347D01*
D17*
X0117595Y0465000D02*
X0117598Y0465245D01*
X0117607Y0465491D01*
X0117622Y0465736D01*
X0117643Y0465980D01*
X0117670Y0466224D01*
X0117703Y0466467D01*
X0117742Y0466710D01*
X0117787Y0466951D01*
X0117838Y0467191D01*
X0117895Y0467430D01*
X0117957Y0467667D01*
X0118026Y0467903D01*
X0118100Y0468137D01*
X0118180Y0468369D01*
X0118265Y0468599D01*
X0118356Y0468827D01*
X0118453Y0469052D01*
X0118555Y0469276D01*
X0118663Y0469496D01*
X0118776Y0469714D01*
X0118894Y0469929D01*
X0119018Y0470141D01*
X0119146Y0470350D01*
X0119280Y0470556D01*
X0119419Y0470758D01*
X0119563Y0470957D01*
X0119712Y0471152D01*
X0119865Y0471344D01*
X0120023Y0471532D01*
X0120185Y0471716D01*
X0120353Y0471895D01*
X0120524Y0472071D01*
X0120700Y0472242D01*
X0120879Y0472410D01*
X0121063Y0472572D01*
X0121251Y0472730D01*
X0121443Y0472883D01*
X0121638Y0473032D01*
X0121837Y0473176D01*
X0122039Y0473315D01*
X0122245Y0473449D01*
X0122454Y0473577D01*
X0122666Y0473701D01*
X0122881Y0473819D01*
X0123099Y0473932D01*
X0123319Y0474040D01*
X0123543Y0474142D01*
X0123768Y0474239D01*
X0123996Y0474330D01*
X0124226Y0474415D01*
X0124458Y0474495D01*
X0124692Y0474569D01*
X0124928Y0474638D01*
X0125165Y0474700D01*
X0125404Y0474757D01*
X0125644Y0474808D01*
X0125885Y0474853D01*
X0126128Y0474892D01*
X0126371Y0474925D01*
X0126615Y0474952D01*
X0126859Y0474973D01*
X0127104Y0474988D01*
X0127350Y0474997D01*
X0127595Y0475000D01*
X0127840Y0474997D01*
X0128086Y0474988D01*
X0128331Y0474973D01*
X0128575Y0474952D01*
X0128819Y0474925D01*
X0129062Y0474892D01*
X0129305Y0474853D01*
X0129546Y0474808D01*
X0129786Y0474757D01*
X0130025Y0474700D01*
X0130262Y0474638D01*
X0130498Y0474569D01*
X0130732Y0474495D01*
X0130964Y0474415D01*
X0131194Y0474330D01*
X0131422Y0474239D01*
X0131647Y0474142D01*
X0131871Y0474040D01*
X0132091Y0473932D01*
X0132309Y0473819D01*
X0132524Y0473701D01*
X0132736Y0473577D01*
X0132945Y0473449D01*
X0133151Y0473315D01*
X0133353Y0473176D01*
X0133552Y0473032D01*
X0133747Y0472883D01*
X0133939Y0472730D01*
X0134127Y0472572D01*
X0134311Y0472410D01*
X0134490Y0472242D01*
X0134666Y0472071D01*
X0134837Y0471895D01*
X0135005Y0471716D01*
X0135167Y0471532D01*
X0135325Y0471344D01*
X0135478Y0471152D01*
X0135627Y0470957D01*
X0135771Y0470758D01*
X0135910Y0470556D01*
X0136044Y0470350D01*
X0136172Y0470141D01*
X0136296Y0469929D01*
X0136414Y0469714D01*
X0136527Y0469496D01*
X0136635Y0469276D01*
X0136737Y0469052D01*
X0136834Y0468827D01*
X0136925Y0468599D01*
X0137010Y0468369D01*
X0137090Y0468137D01*
X0137164Y0467903D01*
X0137233Y0467667D01*
X0137295Y0467430D01*
X0137352Y0467191D01*
X0137403Y0466951D01*
X0137448Y0466710D01*
X0137487Y0466467D01*
X0137520Y0466224D01*
X0137547Y0465980D01*
X0137568Y0465736D01*
X0137583Y0465491D01*
X0137592Y0465245D01*
X0137595Y0465000D01*
X0137592Y0464755D01*
X0137583Y0464509D01*
X0137568Y0464264D01*
X0137547Y0464020D01*
X0137520Y0463776D01*
X0137487Y0463533D01*
X0137448Y0463290D01*
X0137403Y0463049D01*
X0137352Y0462809D01*
X0137295Y0462570D01*
X0137233Y0462333D01*
X0137164Y0462097D01*
X0137090Y0461863D01*
X0137010Y0461631D01*
X0136925Y0461401D01*
X0136834Y0461173D01*
X0136737Y0460948D01*
X0136635Y0460724D01*
X0136527Y0460504D01*
X0136414Y0460286D01*
X0136296Y0460071D01*
X0136172Y0459859D01*
X0136044Y0459650D01*
X0135910Y0459444D01*
X0135771Y0459242D01*
X0135627Y0459043D01*
X0135478Y0458848D01*
X0135325Y0458656D01*
X0135167Y0458468D01*
X0135005Y0458284D01*
X0134837Y0458105D01*
X0134666Y0457929D01*
X0134490Y0457758D01*
X0134311Y0457590D01*
X0134127Y0457428D01*
X0133939Y0457270D01*
X0133747Y0457117D01*
X0133552Y0456968D01*
X0133353Y0456824D01*
X0133151Y0456685D01*
X0132945Y0456551D01*
X0132736Y0456423D01*
X0132524Y0456299D01*
X0132309Y0456181D01*
X0132091Y0456068D01*
X0131871Y0455960D01*
X0131647Y0455858D01*
X0131422Y0455761D01*
X0131194Y0455670D01*
X0130964Y0455585D01*
X0130732Y0455505D01*
X0130498Y0455431D01*
X0130262Y0455362D01*
X0130025Y0455300D01*
X0129786Y0455243D01*
X0129546Y0455192D01*
X0129305Y0455147D01*
X0129062Y0455108D01*
X0128819Y0455075D01*
X0128575Y0455048D01*
X0128331Y0455027D01*
X0128086Y0455012D01*
X0127840Y0455003D01*
X0127595Y0455000D01*
X0127350Y0455003D01*
X0127104Y0455012D01*
X0126859Y0455027D01*
X0126615Y0455048D01*
X0126371Y0455075D01*
X0126128Y0455108D01*
X0125885Y0455147D01*
X0125644Y0455192D01*
X0125404Y0455243D01*
X0125165Y0455300D01*
X0124928Y0455362D01*
X0124692Y0455431D01*
X0124458Y0455505D01*
X0124226Y0455585D01*
X0123996Y0455670D01*
X0123768Y0455761D01*
X0123543Y0455858D01*
X0123319Y0455960D01*
X0123099Y0456068D01*
X0122881Y0456181D01*
X0122666Y0456299D01*
X0122454Y0456423D01*
X0122245Y0456551D01*
X0122039Y0456685D01*
X0121837Y0456824D01*
X0121638Y0456968D01*
X0121443Y0457117D01*
X0121251Y0457270D01*
X0121063Y0457428D01*
X0120879Y0457590D01*
X0120700Y0457758D01*
X0120524Y0457929D01*
X0120353Y0458105D01*
X0120185Y0458284D01*
X0120023Y0458468D01*
X0119865Y0458656D01*
X0119712Y0458848D01*
X0119563Y0459043D01*
X0119419Y0459242D01*
X0119280Y0459444D01*
X0119146Y0459650D01*
X0119018Y0459859D01*
X0118894Y0460071D01*
X0118776Y0460286D01*
X0118663Y0460504D01*
X0118555Y0460724D01*
X0118453Y0460948D01*
X0118356Y0461173D01*
X0118265Y0461401D01*
X0118180Y0461631D01*
X0118100Y0461863D01*
X0118026Y0462097D01*
X0117957Y0462333D01*
X0117895Y0462570D01*
X0117838Y0462809D01*
X0117787Y0463049D01*
X0117742Y0463290D01*
X0117703Y0463533D01*
X0117670Y0463776D01*
X0117643Y0464020D01*
X0117622Y0464264D01*
X0117607Y0464509D01*
X0117598Y0464755D01*
X0117595Y0465000D01*
M02*
