%
M48
M72
T01C0.0200
T02C0.0295
T03C0.0315
T04C0.0320
T05C0.0354
T06C0.0400
T07C0.0440
T08C0.0827
T09C0.1300
%
T01
X8260Y29000
X10760Y29000
X13260Y29000
X15260Y29000
X17760Y29000
X19760Y30700
X20760Y30450
X20260Y29000
X22760Y29000
X25260Y29000
X27760Y29000
X27760Y30500
X27760Y34000
X27760Y36500
X27760Y40000
X27760Y42500
X27760Y46500
X27760Y49000
X27760Y51500
X25260Y55000
X24260Y54500
X23260Y55000
X21260Y55000
X20260Y55000
X17760Y56000
X17260Y55000
X16760Y54500
X14760Y55000
X13260Y55000
X10760Y55000
X8260Y54000
X8260Y51500
X8260Y49000
X8260Y46500
X8260Y41500
X8260Y39000
X8260Y36500
X8260Y34000
X8260Y31500
X17760Y31500
X18760Y31400
X17760Y34000
X17760Y36500
X17760Y41500
X17760Y45500
X16760Y45500
X17760Y47500
X17760Y48500
X17760Y51000
X17760Y52500
X8260Y56500
X8260Y59000
X8260Y61500
X8260Y64000
X8260Y68000
X10760Y68000
X13260Y68000
X15760Y68000
X18260Y68000
X20760Y68000
X23260Y68000
X25760Y68000
X28260Y68000
X30760Y68000
X33260Y68000
X35760Y68000
X38260Y68000
X40760Y68000
X43260Y68000
X45760Y68000
X48260Y68000
X50760Y68000
X53260Y68000
X55760Y68000
X58260Y68000
X60760Y68000
X63260Y68000
X65760Y68000
X68260Y68000
X70760Y68000
X73260Y68000
X75760Y68000
X78260Y68000
X80760Y68000
X83260Y68000
X85760Y68000
X87260Y68000
X87260Y65500
X87260Y63000
X87260Y60500
X87260Y58000
X84760Y58000
X84760Y57000
X83760Y56000
X82760Y57000
X83260Y60287
X87260Y55500
X87260Y53000
X87260Y50500
X87260Y48000
X87260Y45500
X87260Y40500
X87260Y38000
X87260Y35500
X87260Y31500
X87260Y29000
X84760Y29000
X82260Y29000
X79760Y29000
X78760Y29000
X72760Y29000
X70260Y29000
X67760Y29000
X65260Y29000
X63760Y29000
X57760Y29000
X55260Y29000
X52760Y29000
X50260Y29000
X48760Y29000
X42760Y29000
X42760Y31000
X42760Y33000
X42760Y34000
X42760Y36500
X42760Y40000
X42760Y42500
X42760Y46500
X42760Y49000
X42760Y51500
X42760Y54000
X42760Y56000
X42760Y57000
X42760Y58000
X42760Y60500
X42760Y63000
X42760Y65500
X39760Y58000
X39760Y57000
X38760Y56000
X37760Y57000
X32510Y51250
X32010Y50750
X27760Y57500
X27760Y60500
X27760Y63000
X27760Y65500
X17760Y65500
X17760Y63000
X17760Y60500
X47010Y50750
X47510Y51250
X53760Y56000
X54760Y57000
X54760Y58000
X52760Y57000
X57760Y57000
X57760Y58000
X57760Y56000
X57760Y54000
X57760Y51500
X57760Y49000
X57760Y46500
X57760Y42500
X57760Y40000
X57760Y36500
X57760Y34000
X57760Y31500
X63760Y35000
X65260Y35000
X66010Y36000
X65260Y36500
X63260Y37000
X72760Y36500
X72760Y34000
X72760Y31500
X78760Y35000
X80260Y35000
X81010Y36000
X80260Y36500
X78260Y37000
X72760Y40000
X72760Y42500
X72760Y46500
X72760Y49000
X72760Y51500
X72760Y54000
X72760Y56000
X72760Y57000
X72760Y58000
X69760Y58000
X69760Y57000
X68760Y56000
X67760Y57000
X72760Y60500
X72760Y63000
X72760Y65500
X57760Y65500
X57760Y63000
X57760Y60500
X62510Y51250
X62010Y50750
X77010Y50750
X77510Y51250
X51010Y36000
X50260Y36500
X50260Y35000
X48760Y35000
X48260Y37000
X40260Y29000
X37760Y29000
X35260Y29000
X33760Y29000
X33760Y35000
X35260Y35000
X36010Y36000
X35260Y36500
X33260Y37000
T02
X33744Y39000
X31775Y39000
X37275Y37500
X39244Y37500
X38760Y39516
X38760Y41484
X38760Y45516
X38760Y47484
X46775Y39000
X48744Y39000
X52275Y37500
X54244Y37500
X53760Y39516
X53760Y41484
X53760Y45516
X53760Y47484
X61775Y39000
X63744Y39000
X67275Y37500
X69244Y37500
X68760Y39516
X68760Y41484
X68760Y45516
X68760Y47484
X76775Y39000
X78744Y39000
X82275Y37500
X84244Y37500
X83760Y39516
X83760Y41484
X83760Y45516
X83760Y47484
X84244Y33500
X82275Y33500
X78744Y33000
X76775Y33000
X69244Y33500
X67275Y33500
X63744Y33000
X61775Y33000
X54244Y33500
X52275Y33500
X48744Y33000
X46775Y33000
X39244Y33500
X37275Y33500
X33744Y33000
X31775Y33000
X23744Y33500
X21775Y33500
X21775Y39500
X23744Y39500
X24244Y46500
X22275Y46500
X22275Y52500
X24244Y52500
X13744Y39500
X11775Y39500
X11775Y33500
X13744Y33500
T03
X9760Y40106
X9760Y40894
X17260Y43008
X17260Y43992
X19260Y40894
X19260Y40106
X27260Y43008
X27260Y43992
X34366Y41000
X35153Y41000
X29653Y33000
X28866Y33000
X43866Y33000
X44653Y33000
X49366Y41000
X50153Y41000
X58866Y33000
X59653Y33000
X64366Y41000
X65153Y41000
X73866Y33000
X74653Y33000
X79366Y41000
X80153Y41000
X81260Y60106
X81260Y60894
X84260Y60894
X84260Y60106
X77260Y60106
X77260Y60894
X74260Y60894
X74260Y60106
X69260Y60106
X69260Y60894
X66260Y60894
X66260Y60106
X62260Y60106
X62260Y60894
X59260Y60894
X59260Y60106
X54260Y60106
X54260Y60894
X51260Y60894
X51260Y60106
X47260Y60106
X47260Y60894
X44260Y60894
X44260Y60106
X39260Y60106
X39260Y60894
X36260Y60894
X36260Y60106
X32260Y60106
X32260Y60894
X29260Y60894
X29260Y60106
X26252Y57000
X25267Y57000
X16252Y57000
X15267Y57000
T04
X13760Y56500
X13760Y57500
X13760Y58500
X13760Y59500
X13760Y60500
X13760Y61500
X13760Y62500
X15260Y61500
X16260Y61500
X17260Y61500
X19260Y61500
X19260Y60500
X19260Y59500
X20760Y59500
X20760Y60500
X20760Y61500
X20760Y62500
X22260Y62500
X22260Y61500
X22260Y60500
X22260Y59500
X22260Y58500
X22260Y57500
X22260Y56500
X22260Y55500
X20760Y56500
X20760Y57500
X20760Y58500
X19260Y58500
X19260Y57500
X19260Y56500
X19260Y55500
X17260Y58500
X19260Y62500
X19260Y63500
X19260Y64500
X20760Y64500
X20760Y63500
X22260Y63500
X22260Y64500
X23760Y64500
X23760Y63500
X25260Y64500
X26260Y64500
X28760Y64500
X29760Y64500
X30760Y64500
X30760Y65500
X29760Y65500
X28760Y65500
X32260Y66000
X32260Y67000
X35260Y67000
X35260Y66000
X36760Y66000
X37760Y66000
X38760Y66000
X38760Y65000
X37760Y65000
X36760Y65000
X43760Y64500
X44760Y64500
X45760Y64500
X45760Y65500
X44760Y65500
X43760Y65500
X47260Y66000
X47260Y67000
X50260Y67000
X50260Y66000
X51760Y66000
X52760Y66000
X53760Y66000
X53760Y65000
X52760Y65000
X51760Y65000
X58760Y64500
X59760Y64500
X60760Y64500
X60760Y65500
X59760Y65500
X58760Y65500
X62260Y66000
X62260Y67000
X65260Y67000
X65260Y66000
X66760Y66000
X67760Y66000
X68760Y66000
X68760Y65000
X67760Y65000
X66760Y65000
X73760Y64500
X74760Y64500
X75760Y64500
X75760Y65500
X74760Y65500
X73760Y65500
X77260Y66000
X77260Y67000
X80260Y67000
X80260Y66000
X81760Y66000
X82760Y66000
X83760Y66000
X83760Y65000
X82760Y65000
X81760Y65000
X82260Y58500
X83260Y58500
X84260Y58500
X84260Y55500
X83260Y55500
X82260Y55500
X81260Y55500
X80260Y55500
X79260Y55500
X79260Y58500
X80260Y58500
X81260Y58500
X74260Y58500
X74260Y55500
X69260Y55500
X68260Y55500
X67260Y55500
X66260Y55500
X65260Y55500
X64260Y55500
X64260Y58500
X65260Y58500
X66260Y58500
X67260Y58500
X68260Y58500
X69260Y58500
X59260Y58500
X59260Y55500
X54260Y55500
X53260Y55500
X52260Y55500
X51260Y55500
X50260Y55500
X49260Y55500
X49260Y58500
X50260Y58500
X51260Y58500
X52260Y58500
X53260Y58500
X54260Y58500
X44260Y58500
X44260Y55500
X39260Y55500
X38260Y55500
X37260Y55500
X36260Y55500
X35260Y55500
X34260Y55500
X34260Y58500
X35260Y58500
X36260Y58500
X37260Y58500
X38260Y58500
X39260Y58500
X29260Y58500
X27260Y58500
X23760Y58500
X23760Y57500
X23760Y56500
X23760Y59500
X23760Y60500
X23760Y61500
X23760Y62500
X25260Y61500
X26260Y61500
X27260Y61500
X29260Y55500
X27760Y53000
X24760Y51000
X24760Y50000
X24760Y49000
X25760Y49000
X26760Y49000
X27760Y50000
X24760Y48000
X25760Y46000
X26760Y46000
X29260Y43000
X30260Y43000
X31110Y43000
X31110Y44000
X31110Y45000
X31110Y46000
X34410Y46000
X35260Y46000
X35260Y45000
X34410Y45000
X34410Y44000
X34410Y43000
X36760Y42500
X36760Y43500
X36760Y44500
X36260Y47000
X39760Y44500
X39760Y43500
X39760Y42500
X44260Y43000
X45260Y43000
X46110Y43000
X46110Y44000
X46110Y45000
X46110Y46000
X49410Y46000
X50260Y46000
X50260Y45000
X49410Y45000
X49410Y44000
X49410Y43000
X51760Y42500
X51760Y43500
X51760Y44500
X54760Y44500
X54760Y43500
X54760Y42500
X59260Y43000
X60260Y43000
X61110Y43000
X61110Y44000
X61110Y45000
X61110Y46000
X64410Y46000
X65260Y46000
X65260Y45000
X64410Y45000
X64410Y44000
X64410Y43000
X66760Y42500
X66760Y43500
X66760Y44500
X66260Y47000
X69760Y44500
X69760Y43500
X69760Y42500
X74260Y43000
X75260Y43000
X76110Y43000
X76110Y44000
X76110Y45000
X76110Y46000
X79410Y46000
X80260Y46000
X80260Y45000
X79410Y45000
X79410Y44000
X79410Y43000
X81760Y42500
X81760Y43500
X81760Y44500
X81260Y47000
X84760Y44500
X84760Y43500
X84760Y42500
X79410Y37500
X79410Y36500
X79410Y35500
X79410Y34500
X81760Y34500
X81760Y35500
X81760Y36500
X84760Y36500
X84760Y35500
X84760Y34500
X76110Y34500
X76110Y35500
X76110Y36500
X74760Y36500
X74760Y35500
X76110Y37500
X69760Y36500
X69760Y35500
X69760Y34500
X66760Y34500
X66760Y35500
X66760Y36500
X64410Y36500
X64410Y35500
X64410Y34500
X61110Y34500
X61110Y35500
X61110Y36500
X59760Y36500
X59760Y35500
X61110Y37500
X64410Y37500
X54760Y36500
X54760Y35500
X54760Y34500
X51760Y34500
X51760Y35500
X51760Y36500
X49410Y36500
X49410Y35500
X49410Y34500
X46110Y34500
X46110Y35500
X46110Y36500
X46110Y37500
X44760Y36500
X44760Y35500
X39760Y35500
X39760Y34500
X39760Y36500
X36760Y36500
X36760Y35500
X36760Y34500
X34410Y34500
X34410Y35500
X34410Y36500
X34410Y37500
X31110Y37500
X31110Y36500
X31110Y35500
X31110Y34500
X29760Y35500
X29760Y36500
X27260Y39000
X26260Y39000
X24410Y38000
X24410Y37000
X24410Y36000
X25260Y36000
X26260Y36000
X25260Y35000
X24410Y35000
X21110Y35000
X21110Y36000
X21110Y37000
X21110Y38000
X19760Y39000
X18760Y38000
X17260Y39000
X16260Y39000
X14410Y38000
X14410Y37000
X14410Y36000
X15260Y36000
X16260Y36000
X15260Y35000
X14410Y35000
X11110Y35000
X11110Y36000
X10260Y36000
X11110Y37000
X11110Y38000
X10260Y39000
X9260Y38000
X9260Y35000
X11760Y32500
X12760Y32500
X13760Y32500
X14760Y32500
X14760Y29500
X13760Y29500
X12760Y29500
X11760Y29500
X18760Y29500
X19760Y29500
X20760Y29500
X21760Y29500
X21760Y32500
X20760Y32500
X19760Y32500
X18760Y32500
X18760Y35000
X19760Y36000
X17260Y42000
X18760Y43500
X19760Y43500
X19760Y46000
X20760Y46000
X21760Y48000
X21760Y49000
X21760Y50000
X21760Y51000
X20760Y49000
X19760Y49000
X18760Y49000
X18760Y52000
X12260Y55500
X12260Y56500
X12260Y57500
X12260Y58500
X10760Y58500
X10760Y57500
X10760Y56500
X9260Y56500
X9260Y55500
X9260Y57500
X9260Y58500
X9260Y59500
X9260Y60500
X9260Y61500
X9260Y62500
X10760Y62500
X10760Y61500
X10760Y60500
X10760Y59500
X12260Y59500
X12260Y60500
X12260Y61500
X12260Y62500
X12260Y63500
X12260Y64500
X10760Y64500
X10760Y63500
X9260Y63500
X9260Y64500
X13760Y64500
X13760Y63500
X15260Y64500
X16260Y64500
X36260Y50000
X27260Y42000
X12760Y46000
X12760Y47000
X9760Y43500
X8760Y43500
X49410Y37500
X51260Y47000
X51260Y50000
X66260Y50000
X81260Y50000
T05
X79260Y47000
X76260Y47000
X73260Y48000
X73260Y45000
X64260Y47000
X61260Y47000
X58260Y48000
X58260Y45000
X49260Y47000
X46260Y47000
X43260Y48000
X43260Y45000
X34260Y47000
X31260Y47000
X28260Y48000
X26760Y50000
X25760Y50000
X25760Y53000
X26760Y53000
X20760Y53000
X19760Y53000
X19760Y50000
X20760Y50000
X12760Y49500
X11760Y48000
X8760Y48000
X12760Y52500
X11760Y53000
X8760Y53000
X28260Y45000
T06
X25260Y44665
X24310Y42500
X22760Y40950
X21210Y42500
X22760Y44050
X19810Y44500
X18710Y44500
X15260Y44665
X14310Y42500
X12760Y40950
X11210Y42500
X12760Y44050
X9810Y44500
X8710Y44500
X9210Y49500
X9310Y50500
X9210Y51500
X15760Y52016
X15760Y53984
X15760Y48484
X15760Y46516
X15260Y40335
X25260Y40335
X28260Y35000
X38260Y38500
X43260Y35000
X53260Y38500
X58260Y35000
X68260Y38500
X73260Y35000
X83260Y38500
X80260Y49000
X79260Y49000
X78260Y49000
X78775Y52500
X80744Y52500
X76760Y55450
X78310Y57000
X76760Y58550
X75210Y57000
X80260Y65000
X81760Y67000
X82760Y67000
X83760Y67000
X75760Y67000
X74760Y67000
X73760Y67000
X68760Y67000
X67760Y67000
X66760Y67000
X65260Y65000
X60760Y67000
X59760Y67000
X58760Y67000
X53760Y67000
X52760Y67000
X51760Y67000
X50260Y65000
X45760Y67000
X44760Y67000
X43760Y67000
X38760Y67000
X37760Y67000
X36760Y67000
X35260Y65000
X30760Y67000
X29760Y67000
X28760Y67000
X31760Y58550
X33310Y57000
X31760Y55450
X30210Y57000
X33775Y52500
X35744Y52500
X35260Y49000
X34260Y49000
X33260Y49000
X45210Y57000
X46760Y55450
X48310Y57000
X46760Y58550
X48775Y52500
X50744Y52500
X50260Y49000
X49260Y49000
X48260Y49000
X60210Y57000
X61760Y55450
X63310Y57000
X61760Y58550
X63775Y52500
X65744Y52500
X65260Y49000
X64260Y49000
X63260Y49000
T07
X62760Y29500
X61760Y29500
X60760Y29500
X59760Y29500
X58760Y29500
X47760Y29500
X46760Y29500
X45760Y29500
X44760Y29500
X43760Y29500
X32760Y29500
X31760Y29500
X30760Y29500
X29760Y29500
X28760Y29500
X73760Y29500
X74760Y29500
X75760Y29500
X76760Y29500
X77760Y29500
T08
X70968Y30372
X71661Y33500
X70968Y36628
X70968Y40372
X71661Y43500
X70968Y46628
X56661Y43500
X55968Y40372
X55968Y36628
X56661Y33500
X55968Y30372
X41661Y33500
X40968Y30372
X40968Y36628
X40968Y40372
X41661Y43500
X40968Y46628
X55968Y46628
X85968Y46628
X86661Y43500
X85968Y40372
X85968Y36628
X86661Y33500
X85968Y30372
T09
X72760Y38500
X85760Y48500
X83010Y50250
X75510Y50250
X68010Y50250
X60510Y50250
X53010Y50250
X45510Y50250
X38010Y50250
X30510Y50250
X42760Y38500
X45510Y62750
X53010Y62750
X55760Y66500
X60510Y62750
X68010Y62750
X75510Y62750
X83010Y62750
X85760Y66500
X38010Y62750
X30510Y62750
X9760Y66500
X9760Y30500
M30
